# Blender 5.2.0 LTS
# www.blender.org
mtllib body_hatch.mtl
o arch
v 1.607870 -0.458156 -0.545000
v 1.712486 -0.492148 -0.545000
v 1.712486 -0.492148 -0.770000
v 1.607870 -0.458156 -0.770000
v 1.620691 -0.295248 -0.545000
v 1.729337 -0.278040 -0.545000
v 1.729337 -0.278040 -0.770000
v 1.620691 -0.295248 -0.770000
v 1.558156 -0.144275 -0.545000
v 1.647148 -0.079619 -0.545000
v 1.647148 -0.079619 -0.770000
v 1.558156 -0.144275 -0.770000
v 1.433897 -0.038148 -0.545000
v 1.483836 0.059863 -0.545000
v 1.483836 0.059863 -0.770000
v 1.433897 -0.038148 -0.770000
v 1.275000 0.000000 -0.545000
v 1.275000 0.110000 -0.545000
v 1.275000 0.110000 -0.770000
v 1.275000 0.000000 -0.770000
v 1.116103 -0.038148 -0.545000
v 1.066164 0.059863 -0.545000
v 1.066164 0.059863 -0.770000
v 1.116103 -0.038148 -0.770000
v 0.991844 -0.144275 -0.545000
v 0.902852 -0.079619 -0.545000
v 0.902852 -0.079619 -0.770000
v 0.991844 -0.144275 -0.770000
v 0.929309 -0.295248 -0.545000
v 0.820663 -0.278040 -0.545000
v 0.820663 -0.278040 -0.770000
v 0.929309 -0.295248 -0.770000
v 0.942130 -0.458156 -0.545000
v 0.837514 -0.492148 -0.545000
v 0.837514 -0.492148 -0.770000
v 0.942130 -0.458156 -0.770000
v -1.861000 -0.320000 0.587500
v -1.861000 -0.270000 0.637500
v -1.911000 -0.270000 0.587500
v -1.861000 0.132000 0.637500
v -1.861000 0.182000 0.587500
v -1.911000 0.132000 0.587500
v -1.861000 -0.320000 -0.587500
v -1.911000 -0.270000 -0.587500
v -1.861000 -0.270000 -0.637500
v -1.861000 0.182000 -0.587500
v -1.861000 0.132000 -0.637500
v -1.911000 0.132000 -0.587500
v 1.861000 -0.320000 0.587500
v 1.911000 -0.270000 0.587500
v 1.861000 -0.270000 0.637500
v 1.861000 0.182000 0.587500
v 1.861000 0.132000 0.637500
v 1.911000 0.132000 0.587500
v 1.861000 -0.320000 -0.587500
v 1.861000 -0.270000 -0.637500
v 1.911000 -0.270000 -0.587500
v 1.861000 0.182000 -0.587500
v 1.911000 0.132000 -0.587500
v 1.861000 0.132000 -0.637500
v -1.783000 0.162000 0.825000
v -1.783000 0.212000 0.875000
v -1.833000 0.212000 0.825000
v -1.783000 0.410650 0.875000
v -1.783000 0.460650 0.825000
v -1.833000 0.410650 0.825000
v -1.783000 0.162000 -0.825000
v -1.833000 0.212000 -0.825000
v -1.783000 0.212000 -0.875000
v -1.783000 0.460650 -0.825000
v -1.783000 0.410650 -0.875000
v -1.833000 0.410650 -0.825000
v 1.783000 0.162000 0.825000
v 1.833000 0.212000 0.825000
v 1.783000 0.212000 0.875000
v 1.783000 0.460650 0.825000
v 1.783000 0.410650 0.875000
v 1.833000 0.410650 0.825000
v 1.783000 0.162000 -0.825000
v 1.783000 0.212000 -0.875000
v 1.833000 0.212000 -0.825000
v 1.783000 0.460650 -0.825000
v 1.833000 0.410650 -0.825000
v 1.783000 0.410650 -0.875000
v 1.670000 -0.490000 0.597500
v 1.670000 -0.460000 0.627500
v 1.640000 -0.460000 0.597500
v 1.670000 -0.300000 0.627500
v 1.670000 -0.270000 0.597500
v 1.640000 -0.300000 0.597500
v 1.670000 -0.490000 -0.597500
v 1.640000 -0.460000 -0.597500
v 1.670000 -0.460000 -0.627500
v 1.670000 -0.270000 -0.597500
v 1.670000 -0.300000 -0.627500
v 1.640000 -0.300000 -0.597500
v 1.910000 -0.490000 0.597500
v 1.940000 -0.460000 0.597500
v 1.910000 -0.460000 0.627500
v 1.910000 -0.270000 0.597500
v 1.910000 -0.300000 0.627500
v 1.940000 -0.300000 0.597500
v 1.910000 -0.490000 -0.597500
v 1.910000 -0.460000 -0.627500
v 1.940000 -0.460000 -0.597500
v 1.910000 -0.270000 -0.597500
v 1.940000 -0.300000 -0.597500
v 1.910000 -0.300000 -0.627500
v -1.910000 -0.490000 0.597500
v -1.910000 -0.460000 0.627500
v -1.940000 -0.460000 0.597500
v -1.910000 -0.300000 0.627500
v -1.910000 -0.270000 0.597500
v -1.940000 -0.300000 0.597500
v -1.910000 -0.490000 -0.597500
v -1.940000 -0.460000 -0.597500
v -1.910000 -0.460000 -0.627500
v -1.910000 -0.270000 -0.597500
v -1.910000 -0.300000 -0.627500
v -1.940000 -0.300000 -0.597500
v -1.670000 -0.490000 0.597500
v -1.640000 -0.460000 0.597500
v -1.670000 -0.460000 0.627500
v -1.670000 -0.270000 0.597500
v -1.670000 -0.300000 0.627500
v -1.640000 -0.300000 0.597500
v -1.670000 -0.490000 -0.597500
v -1.670000 -0.460000 -0.627500
v -1.640000 -0.460000 -0.597500
v -1.670000 -0.270000 -0.597500
v -1.640000 -0.300000 -0.597500
v -1.670000 -0.300000 -0.627500
v -1.032000 0.162000 0.727500
v -1.032000 0.222000 0.787500
v -1.092000 0.222000 0.727500
v -1.032000 0.685000 0.787500
v -1.032000 0.745000 0.727500
v -1.092000 0.685000 0.727500
v -1.032000 0.162000 -0.727500
v -1.092000 0.222000 -0.727500
v -1.032000 0.222000 -0.787500
v -1.032000 0.745000 -0.727500
v -1.032000 0.685000 -0.787500
v -1.092000 0.685000 -0.727500
v 0.564000 0.162000 0.727500
v 0.624000 0.222000 0.727500
v 0.564000 0.222000 0.787500
v 0.564000 0.745000 0.727500
v 0.564000 0.685000 0.787500
v 0.624000 0.685000 0.727500
v 0.564000 0.162000 -0.727500
v 0.564000 0.222000 -0.787500
v 0.624000 0.222000 -0.727500
v 0.564000 0.745000 -0.727500
v 0.624000 0.685000 -0.727500
v 0.564000 0.685000 -0.787500
v -1.756000 0.027607 0.722500
v -1.756000 0.057607 0.752500
v -1.786000 0.057607 0.722500
v -1.756000 0.266392 0.752500
v -1.756000 0.296392 0.722500
v -1.786000 0.266392 0.722500
v -1.756000 0.027607 -0.722500
v -1.786000 0.057607 -0.722500
v -1.756000 0.057607 -0.752500
v -1.756000 0.296392 -0.722500
v -1.756000 0.266392 -0.752500
v -1.786000 0.266392 -0.722500
v -1.676000 0.027607 0.722500
v -1.646000 0.057607 0.722500
v -1.676000 0.057607 0.752500
v -1.676000 0.296392 0.722500
v -1.676000 0.266392 0.752500
v -1.646000 0.266392 0.722500
v -1.676000 0.027607 -0.722500
v -1.676000 0.057607 -0.752500
v -1.646000 0.057607 -0.722500
v -1.676000 0.296392 -0.722500
v -1.646000 0.266392 -0.722500
v -1.676000 0.266392 -0.752500
v 1.607870 -0.458156 0.770000
v 1.712486 -0.492148 0.770000
v 1.712486 -0.492148 0.545000
v 1.607870 -0.458156 0.545000
v 1.620691 -0.295248 0.770000
v 1.729337 -0.278040 0.770000
v 1.729337 -0.278040 0.545000
v 1.620691 -0.295248 0.545000
v 1.558156 -0.144275 0.770000
v 1.647148 -0.079619 0.770000
v 1.647148 -0.079619 0.545000
v 1.558156 -0.144275 0.545000
v 1.433897 -0.038148 0.770000
v 1.483836 0.059863 0.770000
v 1.483836 0.059863 0.545000
v 1.433897 -0.038148 0.545000
v 1.275000 0.000000 0.770000
v 1.275000 0.110000 0.770000
v 1.275000 0.110000 0.545000
v 1.275000 0.000000 0.545000
v 1.116103 -0.038148 0.770000
v 1.066164 0.059863 0.770000
v 1.066164 0.059863 0.545000
v 1.116103 -0.038148 0.545000
v 0.991844 -0.144275 0.770000
v 0.902852 -0.079619 0.770000
v 0.902852 -0.079619 0.545000
v 0.991844 -0.144275 0.545000
v 0.929309 -0.295248 0.770000
v 0.820663 -0.278040 0.770000
v 0.820663 -0.278040 0.545000
v 0.929309 -0.295248 0.545000
v 0.942130 -0.458156 0.770000
v 0.837514 -0.492148 0.770000
v 0.837514 -0.492148 0.545000
v 0.942130 -0.458156 0.545000
v -0.942130 -0.458156 -0.545000
v -0.837514 -0.492148 -0.545000
v -0.837514 -0.492148 -0.770000
v -0.942130 -0.458156 -0.770000
v -0.929309 -0.295248 -0.545000
v -0.820663 -0.278040 -0.545000
v -0.820663 -0.278040 -0.770000
v -0.929309 -0.295248 -0.770000
v -0.991844 -0.144275 -0.545000
v -0.902852 -0.079619 -0.545000
v -0.902852 -0.079619 -0.770000
v -0.991844 -0.144275 -0.770000
v -1.116103 -0.038148 -0.545000
v -1.066164 0.059863 -0.545000
v -1.066164 0.059863 -0.770000
v -1.116103 -0.038148 -0.770000
v -1.275000 0.000000 -0.545000
v -1.275000 0.110000 -0.545000
v -1.275000 0.110000 -0.770000
v -1.275000 0.000000 -0.770000
v -1.433897 -0.038148 -0.545000
v -1.483836 0.059863 -0.545000
v -1.483836 0.059863 -0.770000
v -1.433897 -0.038148 -0.770000
v -1.558156 -0.144275 -0.545000
v -1.647148 -0.079619 -0.545000
v -1.647148 -0.079619 -0.770000
v -1.558156 -0.144275 -0.770000
v -1.620691 -0.295248 -0.545000
v -1.729337 -0.278040 -0.545000
v -1.729337 -0.278040 -0.770000
v -1.620691 -0.295248 -0.770000
v -1.607870 -0.458156 -0.545000
v -1.712486 -0.492148 -0.545000
v -1.712486 -0.492148 -0.770000
v -1.607870 -0.458156 -0.770000
v -0.942130 -0.458156 0.770000
v -0.837514 -0.492148 0.770000
v -0.837514 -0.492148 0.545000
v -0.942130 -0.458156 0.545000
v -0.929309 -0.295248 0.770000
v -0.820663 -0.278040 0.770000
v -0.820663 -0.278040 0.545000
v -0.929309 -0.295248 0.545000
v -0.991844 -0.144275 0.770000
v -0.902852 -0.079619 0.770000
v -0.902852 -0.079619 0.545000
v -0.991844 -0.144275 0.545000
v -1.116103 -0.038148 0.770000
v -1.066164 0.059863 0.770000
v -1.066164 0.059863 0.545000
v -1.116103 -0.038148 0.545000
v -1.275000 0.000000 0.770000
v -1.275000 0.110000 0.770000
v -1.275000 0.110000 0.545000
v -1.275000 0.000000 0.545000
v -1.433897 -0.038148 0.770000
v -1.483836 0.059863 0.770000
v -1.483836 0.059863 0.545000
v -1.433897 -0.038148 0.545000
v -1.558156 -0.144275 0.770000
v -1.647148 -0.079619 0.770000
v -1.647148 -0.079619 0.545000
v -1.558156 -0.144275 0.545000
v -1.620691 -0.295248 0.770000
v -1.729337 -0.278040 0.770000
v -1.729337 -0.278040 0.545000
v -1.620691 -0.295248 0.545000
v -1.607870 -0.458156 0.770000
v -1.712486 -0.492148 0.770000
v -1.712486 -0.492148 0.545000
v -1.607870 -0.458156 0.545000
vn 0.9969 -0.0785 -0.0000
vn -0.9969 0.0785 -0.0000
vn -0.0000 -0.0000 1.0000
vn -0.0000 -0.0000 -1.0000
vn 0.9239 0.3827 -0.0000
vn -0.9239 -0.3827 -0.0000
vn 0.6494 0.7604 -0.0000
vn -0.6494 -0.7604 -0.0000
vn 0.2334 0.9724 -0.0000
vn -0.2334 -0.9724 -0.0000
vn -0.2334 0.9724 -0.0000
vn 0.2334 -0.9724 -0.0000
vn -0.6494 0.7604 -0.0000
vn 0.6494 -0.7604 -0.0000
vn -0.9239 0.3827 -0.0000
vn 0.9239 -0.3827 -0.0000
vn -0.9969 -0.0785 -0.0000
vn 0.9969 0.0785 -0.0000
vn -0.3090 -0.9511 -0.0000
vn 0.3090 -0.9511 -0.0000
vn -0.5774 -0.5773 0.5773
vn -0.5774 0.5773 0.5773
vn -0.5774 -0.5773 -0.5773
vn -0.5774 0.5773 -0.5773
vn 0.5774 -0.5774 0.5773
vn 0.5774 0.5774 0.5773
vn 0.5774 -0.5774 -0.5774
vn 0.5774 0.5774 -0.5774
vn -0.7071 -0.7071 -0.0000
vn -0.7071 -0.0000 0.7071
vn -0.7071 0.7071 -0.0000
vn -0.7071 -0.0000 -0.7071
vn -0.0000 -0.7071 -0.7071
vn -0.0000 0.7071 -0.7071
vn 0.7071 -0.0000 -0.7071
vn 0.7071 -0.7071 -0.0000
vn 0.7071 0.7071 -0.0000
vn 0.7071 -0.0000 0.7071
vn -0.0000 -0.7071 0.7071
vn -0.0000 0.7071 0.7071
vn -0.0000 -1.0000 -0.0000
vn -1.0000 -0.0000 -0.0000
vn -0.0000 1.0000 -0.0000
vn 1.0000 -0.0000 -0.0000
vn 0.5774 -0.5773 0.5774
vn 0.5774 0.5773 0.5774
vn 0.5774 0.5773 -0.5774
vn -0.5774 -0.5774 0.5774
vn -0.5774 0.5774 0.5774
vn -0.5774 -0.5774 -0.5774
vn -0.5774 0.5774 -0.5774
vn 0.5774 -0.5774 0.5774
vn 0.5774 0.5774 0.5774
vn -0.5773 -0.5774 0.5774
vn -0.5773 0.5774 0.5774
vn -0.5773 -0.5774 -0.5774
vn -0.5773 0.5774 -0.5774
vn 0.5773 -0.5774 0.5774
vn 0.5773 0.5774 0.5774
vn 0.5773 -0.5774 -0.5774
vn 0.5773 0.5774 -0.5774
vn 0.5774 -0.5773 0.5773
vn 0.5774 0.5773 0.5773
vn 0.5774 -0.5774 -0.5773
vn 0.5773 0.5774 -0.5773
vn -0.5774 0.5774 0.5773
vn -0.5774 0.5774 -0.5773
vt 0.000000 0.000000
vt 1.000000 0.000000
vt 1.000000 1.000000
vt 0.000000 1.000000
vt 0.128271 0.740196
vt 0.128271 0.750000
vt 0.125000 0.740196
vt 0.600100 0.000000
vt 0.625000 0.009804
vt 0.600100 0.009804
vt 0.128271 0.509804
vt 0.125000 0.509804
vt 0.128271 0.500000
vt 0.625000 0.244554
vt 0.600100 0.252453
vt 0.600100 0.240196
vt 0.371729 0.740196
vt 0.393675 0.740196
vt 0.385815 0.751635
vt 0.626635 0.746733
vt 0.600100 0.753271
vt 0.600100 0.742647
vt 0.371729 0.509804
vt 0.385815 0.498365
vt 0.393675 0.509804
vt 0.626635 0.503267
vt 0.600100 0.507353
vt 0.600100 0.496729
vt 0.399900 0.000000
vt 0.399900 0.009804
vt 0.399900 0.253271
vt 0.399900 0.240196
vt 0.625000 0.996729
vt 0.600100 0.996729
vt 0.399900 0.996729
vt 0.871729 0.509804
vt 0.871729 0.740196
vt 0.128410 0.742857
vt 0.128410 0.750000
vt 0.125000 0.742857
vt 0.583145 0.000000
vt 0.625000 0.007143
vt 0.583145 0.007143
vt 0.128410 0.507143
vt 0.125000 0.507143
vt 0.128410 0.500000
vt 0.625000 0.246375
vt 0.583145 0.252557
vt 0.583145 0.242857
vt 0.371590 0.742857
vt 0.406391 0.742857
vt 0.394223 0.751705
vt 0.626705 0.748133
vt 0.583145 0.753410
vt 0.583145 0.744643
vt 0.371590 0.507143
vt 0.394223 0.498295
vt 0.406391 0.507143
vt 0.626705 0.501867
vt 0.583145 0.505357
vt 0.583145 0.496590
vt 0.416855 0.000000
vt 0.416855 0.007143
vt 0.416855 0.253410
vt 0.416855 0.242857
vt 0.625000 0.996590
vt 0.583145 0.996590
vt 0.416855 0.996590
vt 0.871590 0.507143
vt 0.871590 0.742857
vt 0.150000 0.744024
vt 0.150000 0.750000
vt 0.125000 0.744024
vt 0.590909 0.000000
vt 0.625000 0.005976
vt 0.590909 0.005976
vt 0.150000 0.505976
vt 0.125000 0.505976
vt 0.150000 0.500000
vt 0.625000 0.254349
vt 0.590909 0.268750
vt 0.590909 0.244024
vt 0.350000 0.744024
vt 0.400568 0.744024
vt 0.379545 0.762500
vt 0.637500 0.759512
vt 0.590909 0.775000
vt 0.590909 0.745518
vt 0.350000 0.505976
vt 0.379545 0.487500
vt 0.400568 0.505976
vt 0.637500 0.490488
vt 0.590909 0.504482
vt 0.590909 0.475000
vt 0.409091 0.000000
vt 0.409091 0.005976
vt 0.409091 0.275000
vt 0.409091 0.244024
vt 0.625000 0.975000
vt 0.590909 0.975000
vt 0.409091 0.975000
vt 0.850000 0.505976
vt 0.850000 0.744024
vt 0.590909 0.268750
vt 0.133741 0.740476
vt 0.133741 0.750000
vt 0.125000 0.740476
vt 0.599271 0.000000
vt 0.625000 0.009524
vt 0.599271 0.009524
vt 0.133741 0.509524
vt 0.125000 0.509524
vt 0.133741 0.500000
vt 0.625000 0.246565
vt 0.599271 0.256556
vt 0.599271 0.240476
vt 0.366259 0.740476
vt 0.394297 0.740476
vt 0.383494 0.754371
vt 0.629371 0.749609
vt 0.599271 0.758741
vt 0.599271 0.742857
vt 0.366259 0.509524
vt 0.383494 0.495629
vt 0.394297 0.509524
vt 0.629371 0.500391
vt 0.599271 0.507143
vt 0.599271 0.491259
vt 0.400729 0.000000
vt 0.400729 0.009524
vt 0.400729 0.258741
vt 0.400729 0.240476
vt 0.625000 0.991259
vt 0.599271 0.991259
vt 0.400729 0.991259
vt 0.866259 0.509524
vt 0.866259 0.740476
vt 0.178571 0.745017
vt 0.178571 0.750000
vt 0.125000 0.745017
vt 0.597097 0.000000
vt 0.625000 0.004983
vt 0.597097 0.004983
vt 0.178571 0.504983
vt 0.125000 0.504983
vt 0.178571 0.500000
vt 0.625000 0.264535
vt 0.597097 0.290179
vt 0.597097 0.245017
vt 0.321429 0.745017
vt 0.395927 0.745017
vt 0.362166 0.776786
vt 0.651786 0.774294
vt 0.597097 0.803571
vt 0.597097 0.746262
vt 0.321429 0.504983
vt 0.362166 0.473214
vt 0.395928 0.504983
vt 0.651786 0.475706
vt 0.597097 0.503738
vt 0.597097 0.446429
vt 0.402903 0.000000
vt 0.402903 0.004983
vt 0.402903 0.303571
vt 0.402903 0.245017
vt 0.625000 0.946429
vt 0.597097 0.946429
vt 0.402903 0.946429
vt 0.821429 0.504983
vt 0.821429 0.745017
s 0
usemtl body
f 2/1/1 3/2/1 7/3/1 6/4/1
f 4/1/2 1/2/2 5/3/2 8/4/2
f 1/1/3 2/2/3 6/3/3 5/4/3
f 3/1/4 4/2/4 8/3/4 7/4/4
f 6/1/5 7/2/5 11/3/5 10/4/5
f 8/1/6 5/2/6 9/3/6 12/4/6
f 5/1/3 6/2/3 10/3/3 9/4/3
f 7/1/4 8/2/4 12/3/4 11/4/4
f 10/1/7 11/2/7 15/3/7 14/4/7
f 12/1/8 9/2/8 13/3/8 16/4/8
f 9/1/3 10/2/3 14/3/3 13/4/3
f 11/1/4 12/2/4 16/3/4 15/4/4
f 14/1/9 15/2/9 19/3/9 18/4/9
f 16/1/10 13/2/10 17/3/10 20/4/10
f 13/1/3 14/2/3 18/3/3 17/4/3
f 15/1/4 16/2/4 20/3/4 19/4/4
f 18/1/11 19/2/11 23/3/11 22/4/11
f 20/1/12 17/2/12 21/3/12 24/4/12
f 17/1/3 18/2/3 22/3/3 21/4/3
f 19/1/4 20/2/4 24/3/4 23/4/4
f 22/1/13 23/2/13 27/3/13 26/4/13
f 24/1/14 21/2/14 25/3/14 28/4/14
f 21/1/3 22/2/3 26/3/3 25/4/3
f 23/1/4 24/2/4 28/3/4 27/4/4
f 26/1/15 27/2/15 31/3/15 30/4/15
f 28/1/16 25/2/16 29/3/16 32/4/16
f 25/1/3 26/2/3 30/3/3 29/4/3
f 27/1/4 28/2/4 32/3/4 31/4/4
f 30/1/17 31/2/17 35/3/17 34/4/17
f 32/1/18 29/2/18 33/3/18 36/4/18
f 29/1/3 30/2/3 34/3/3 33/4/3
f 31/1/4 32/2/4 36/3/4 35/4/4
f 1/1/19 4/2/19 3/3/19 2/4/19
f 36/1/20 33/2/20 34/3/20 35/4/20
f 37/5/21 38/6/21 39/7/21
f 40/8/22 41/9/22 42/10/22
f 43/11/23 44/12/23 45/13/23
f 46/14/24 47/15/24 48/16/24
f 49/17/25 50/18/25 51/19/25
f 52/20/26 53/21/26 54/22/26
f 55/23/27 56/24/27 57/25/27
f 58/26/28 59/27/28 60/28/28
f 43/11/29 37/5/29 39/7/29 44/12/29
f 38/29/30 40/8/30 42/10/30 39/30/30
f 41/9/31 46/14/31 48/16/31 42/10/31
f 47/15/32 45/31/32 44/32/32 48/16/32
f 55/23/33 43/11/33 45/13/33 56/24/33
f 46/14/34 58/26/34 60/28/34 47/15/34
f 59/27/35 57/25/35 56/24/35 60/28/35
f 49/17/36 55/23/36 57/25/36 50/18/36
f 58/26/37 52/20/37 54/22/37 59/27/37
f 53/21/38 51/19/38 50/18/38 54/22/38
f 37/5/39 49/17/39 51/19/39 38/6/39
f 52/20/40 41/33/40 40/34/40 53/21/40
f 43/11/41 55/23/41 49/17/41 37/5/41
f 39/30/42 42/10/42 48/16/42 44/32/42
f 51/19/3 53/21/3 40/34/3 38/35/3
f 58/26/43 46/36/43 41/37/43 52/20/43
f 45/31/4 47/15/4 60/28/4 56/24/4
f 57/25/44 59/27/44 54/22/44 50/18/44
f 61/38/21 62/39/21 63/40/21
f 64/41/22 65/42/22 66/43/22
f 67/44/23 68/45/23 69/46/23
f 70/47/24 71/48/24 72/49/24
f 73/50/45 74/51/45 75/52/45
f 76/53/46 77/54/46 78/55/46
f 79/56/27 80/57/27 81/58/27
f 82/59/47 83/60/47 84/61/47
f 67/44/29 61/38/29 63/40/29 68/45/29
f 62/62/30 64/41/30 66/43/30 63/63/30
f 65/42/31 70/47/31 72/49/31 66/43/31
f 71/48/32 69/64/32 68/65/32 72/49/32
f 79/56/33 67/44/33 69/46/33 80/57/33
f 70/47/34 82/59/34 84/61/34 71/48/34
f 83/60/35 81/58/35 80/57/35 84/61/35
f 73/50/36 79/56/36 81/58/36 74/51/36
f 82/59/37 76/53/37 78/55/37 83/60/37
f 77/54/38 75/52/38 74/51/38 78/55/38
f 61/38/39 73/50/39 75/52/39 62/39/39
f 76/53/40 65/66/40 64/67/40 77/54/40
f 67/44/41 79/56/41 73/50/41 61/38/41
f 63/63/42 66/43/42 72/49/42 68/65/42
f 75/52/3 77/54/3 64/67/3 62/68/3
f 82/59/43 70/69/43 65/70/43 76/53/43
f 69/64/4 71/48/4 84/61/4 80/57/4
f 81/58/44 83/60/44 78/55/44 74/51/44
f 157/138/54 158/139/54 159/140/54
f 160/141/66 161/142/66 162/143/66
f 163/144/56 164/145/56 165/146/56
f 166/147/67 167/148/67 168/149/67
f 169/150/58 170/151/58 171/152/58
f 172/153/59 173/154/59 174/155/59
f 175/156/60 176/157/60 177/158/60
f 178/159/61 179/160/61 180/161/61
f 163/144/29 157/138/29 159/140/29 164/145/29
f 158/162/30 160/141/30 162/143/30 159/163/30
f 161/142/31 166/147/31 168/149/31 162/143/31
f 167/148/32 165/164/32 164/165/32 168/149/32
f 175/156/33 163/144/33 165/146/33 176/157/33
f 166/147/34 178/159/34 180/161/34 167/148/34
f 179/160/35 177/158/35 176/157/35 180/161/35
f 169/150/36 175/156/36 177/158/36 170/151/36
f 178/159/37 172/153/37 174/155/37 179/160/37
f 173/154/38 171/152/38 170/151/38 174/155/38
f 157/138/39 169/150/39 171/152/39 158/139/39
f 172/153/40 161/166/40 160/167/40 173/154/40
f 163/144/41 175/156/41 169/150/41 157/138/41
f 159/163/42 162/143/42 168/149/42 164/165/42
f 171/152/3 173/154/3 160/167/3 158/168/3
f 178/159/43 166/169/43 161/170/43 172/153/43
f 165/164/4 167/148/4 180/161/4 176/157/4
f 177/158/44 179/160/44 174/155/44 170/151/44
f 182/1/1 183/2/1 187/3/1 186/4/1
f 184/1/2 181/2/2 185/3/2 188/4/2
f 181/1/3 182/2/3 186/3/3 185/4/3
f 183/1/4 184/2/4 188/3/4 187/4/4
f 186/1/5 187/2/5 191/3/5 190/4/5
f 188/1/6 185/2/6 189/3/6 192/4/6
f 185/1/3 186/2/3 190/3/3 189/4/3
f 187/1/4 188/2/4 192/3/4 191/4/4
f 190/1/7 191/2/7 195/3/7 194/4/7
f 192/1/8 189/2/8 193/3/8 196/4/8
f 189/1/3 190/2/3 194/3/3 193/4/3
f 191/1/4 192/2/4 196/3/4 195/4/4
f 194/1/9 195/2/9 199/3/9 198/4/9
f 196/1/10 193/2/10 197/3/10 200/4/10
f 193/1/3 194/2/3 198/3/3 197/4/3
f 195/1/4 196/2/4 200/3/4 199/4/4
f 198/1/11 199/2/11 203/3/11 202/4/11
f 200/1/12 197/2/12 201/3/12 204/4/12
f 197/1/3 198/2/3 202/3/3 201/4/3
f 199/1/4 200/2/4 204/3/4 203/4/4
f 202/1/13 203/2/13 207/3/13 206/4/13
f 204/1/14 201/2/14 205/3/14 208/4/14
f 201/1/3 202/2/3 206/3/3 205/4/3
f 203/1/4 204/2/4 208/3/4 207/4/4
f 206/1/15 207/2/15 211/3/15 210/4/15
f 208/1/16 205/2/16 209/3/16 212/4/16
f 205/1/3 206/2/3 210/3/3 209/4/3
f 207/1/4 208/2/4 212/3/4 211/4/4
f 210/1/17 211/2/17 215/3/17 214/4/17
f 212/1/18 209/2/18 213/3/18 216/4/18
f 209/1/3 210/2/3 214/3/3 213/4/3
f 211/1/4 212/2/4 216/3/4 215/4/4
f 181/1/19 184/2/19 183/3/19 182/4/19
f 216/1/20 213/2/20 214/3/20 215/4/20
f 218/1/1 219/2/1 223/3/1 222/4/1
f 220/1/2 217/2/2 221/3/2 224/4/2
f 217/1/3 218/2/3 222/3/3 221/4/3
f 219/1/4 220/2/4 224/3/4 223/4/4
f 222/1/5 223/2/5 227/3/5 226/4/5
f 224/1/6 221/2/6 225/3/6 228/4/6
f 221/1/3 222/2/3 226/3/3 225/4/3
f 223/1/4 224/2/4 228/3/4 227/4/4
f 226/1/7 227/2/7 231/3/7 230/4/7
f 228/1/8 225/2/8 229/3/8 232/4/8
f 225/1/3 226/2/3 230/3/3 229/4/3
f 227/1/4 228/2/4 232/3/4 231/4/4
f 230/1/9 231/2/9 235/3/9 234/4/9
f 232/1/10 229/2/10 233/3/10 236/4/10
f 229/1/3 230/2/3 234/3/3 233/4/3
f 231/1/4 232/2/4 236/3/4 235/4/4
f 234/1/11 235/2/11 239/3/11 238/4/11
f 236/1/12 233/2/12 237/3/12 240/4/12
f 233/1/3 234/2/3 238/3/3 237/4/3
f 235/1/4 236/2/4 240/3/4 239/4/4
f 238/1/13 239/2/13 243/3/13 242/4/13
f 240/1/14 237/2/14 241/3/14 244/4/14
f 237/1/3 238/2/3 242/3/3 241/4/3
f 239/1/4 240/2/4 244/3/4 243/4/4
f 242/1/15 243/2/15 247/3/15 246/4/15
f 244/1/16 241/2/16 245/3/16 248/4/16
f 241/1/3 242/2/3 246/3/3 245/4/3
f 243/1/4 244/2/4 248/3/4 247/4/4
f 246/1/17 247/2/17 251/3/17 250/4/17
f 248/1/18 245/2/18 249/3/18 252/4/18
f 245/1/3 246/2/3 250/3/3 249/4/3
f 247/1/4 248/2/4 252/3/4 251/4/4
f 217/1/19 220/2/19 219/3/19 218/4/19
f 252/1/20 249/2/20 250/3/20 251/4/20
f 254/1/1 255/2/1 259/3/1 258/4/1
f 256/1/2 253/2/2 257/3/2 260/4/2
f 253/1/3 254/2/3 258/3/3 257/4/3
f 255/1/4 256/2/4 260/3/4 259/4/4
f 258/1/5 259/2/5 263/3/5 262/4/5
f 260/1/6 257/2/6 261/3/6 264/4/6
f 257/1/3 258/2/3 262/3/3 261/4/3
f 259/1/4 260/2/4 264/3/4 263/4/4
f 262/1/7 263/2/7 267/3/7 266/4/7
f 264/1/8 261/2/8 265/3/8 268/4/8
f 261/1/3 262/2/3 266/3/3 265/4/3
f 263/1/4 264/2/4 268/3/4 267/4/4
f 266/1/9 267/2/9 271/3/9 270/4/9
f 268/1/10 265/2/10 269/3/10 272/4/10
f 265/1/3 266/2/3 270/3/3 269/4/3
f 267/1/4 268/2/4 272/3/4 271/4/4
f 270/1/11 271/2/11 275/3/11 274/4/11
f 272/1/12 269/2/12 273/3/12 276/4/12
f 269/1/3 270/2/3 274/3/3 273/4/3
f 271/1/4 272/2/4 276/3/4 275/4/4
f 274/1/13 275/2/13 279/3/13 278/4/13
f 276/1/14 273/2/14 277/3/14 280/4/14
f 273/1/3 274/2/3 278/3/3 277/4/3
f 275/1/4 276/2/4 280/3/4 279/4/4
f 278/1/15 279/2/15 283/3/15 282/4/15
f 280/1/16 277/2/16 281/3/16 284/4/16
f 277/1/3 278/2/3 282/3/3 281/4/3
f 279/1/4 280/2/4 284/3/4 283/4/4
f 282/1/17 283/2/17 287/3/17 286/4/17
f 284/1/18 281/2/18 285/3/18 288/4/18
f 281/1/3 282/2/3 286/3/3 285/4/3
f 283/1/4 284/2/4 288/3/4 287/4/4
f 253/1/19 256/2/19 255/3/19 254/4/19
f 288/1/20 285/2/20 286/3/20 287/4/20
usemtl dark
f 85/71/48 86/72/48 87/73/48
f 88/74/49 89/75/49 90/76/49
f 91/77/50 92/78/50 93/79/50
f 94/80/51 95/81/51 96/82/51
f 97/83/52 98/84/52 99/85/52
f 100/86/53 101/87/53 102/88/53
f 103/89/27 104/90/27 105/91/27
f 106/92/28 107/93/28 108/94/28
f 91/77/29 85/71/29 87/73/29 92/78/29
f 86/95/30 88/74/30 90/76/30 87/96/30
f 89/75/31 94/80/31 96/82/31 90/76/31
f 95/81/32 93/97/32 92/98/32 96/82/32
f 103/89/33 91/77/33 93/79/33 104/90/33
f 94/80/34 106/92/34 108/94/34 95/81/34
f 107/93/35 105/91/35 104/90/35 108/94/35
f 97/83/36 103/89/36 105/91/36 98/84/36
f 106/92/37 100/86/37 102/88/37 107/93/37
f 101/87/38 99/85/38 98/84/38 102/88/38
f 85/71/39 97/83/39 99/85/39 86/72/39
f 100/86/40 89/99/40 88/100/40 101/87/40
f 91/77/41 103/89/41 97/83/41 85/71/41
f 87/96/42 90/76/42 96/82/42 92/98/42
f 99/85/3 101/87/3 88/100/3 86/101/3
f 106/92/43 94/102/43 89/103/43 100/86/43
f 93/97/4 95/81/4 108/94/4 104/90/4
f 105/91/44 107/93/44 102/88/44 98/84/44
f 109/71/54 110/72/54 111/73/54
f 112/74/55 113/75/55 114/76/55
f 115/77/56 116/78/56 117/79/56
f 118/80/57 119/104/57 120/82/57
f 121/83/58 122/84/58 123/85/58
f 124/86/59 125/87/59 126/88/59
f 127/89/60 128/90/60 129/91/60
f 130/92/61 131/93/61 132/94/61
f 115/77/29 109/71/29 111/73/29 116/78/29
f 110/95/30 112/74/30 114/76/30 111/96/30
f 113/75/31 118/80/31 120/82/31 114/76/31
f 119/104/32 117/97/32 116/98/32 120/82/32
f 127/89/33 115/77/33 117/79/33 128/90/33
f 118/80/34 130/92/34 132/94/34 119/104/34
f 131/93/35 129/91/35 128/90/35 132/94/35
f 121/83/36 127/89/36 129/91/36 122/84/36
f 130/92/37 124/86/37 126/88/37 131/93/37
f 125/87/38 123/85/38 122/84/38 126/88/38
f 109/71/39 121/83/39 123/85/39 110/72/39
f 124/86/40 113/99/40 112/100/40 125/87/40
f 115/77/41 127/89/41 121/83/41 109/71/41
f 111/96/42 114/76/42 120/82/42 116/98/42
f 123/85/3 125/87/3 112/100/3 110/101/3
f 130/92/43 118/102/43 113/103/43 124/86/43
f 117/97/4 119/104/4 132/94/4 128/90/4
f 129/91/44 131/93/44 126/88/44 122/84/44
f 133/105/21 134/106/21 135/107/21
f 136/108/22 137/109/22 138/110/22
f 139/111/50 140/112/50 141/113/50
f 142/114/51 143/115/51 144/116/51
f 145/117/62 146/118/62 147/119/62
f 148/120/63 149/121/63 150/122/63
f 151/123/64 152/124/64 153/125/64
f 154/126/65 155/127/65 156/128/65
f 139/111/29 133/105/29 135/107/29 140/112/29
f 134/129/30 136/108/30 138/110/30 135/130/30
f 137/109/31 142/114/31 144/116/31 138/110/31
f 143/115/32 141/131/32 140/132/32 144/116/32
f 151/123/33 139/111/33 141/113/33 152/124/33
f 142/114/34 154/126/34 156/128/34 143/115/34
f 155/127/35 153/125/35 152/124/35 156/128/35
f 145/117/36 151/123/36 153/125/36 146/118/36
f 154/126/37 148/120/37 150/122/37 155/127/37
f 149/121/38 147/119/38 146/118/38 150/122/38
f 133/105/39 145/117/39 147/119/39 134/106/39
f 148/120/40 137/133/40 136/134/40 149/121/40
f 139/111/41 151/123/41 145/117/41 133/105/41
f 135/130/42 138/110/42 144/116/42 140/132/42
f 147/119/3 149/121/3 136/134/3 134/135/3
f 154/126/43 142/136/43 137/137/43 148/120/43
f 141/131/4 143/115/4 156/128/4 152/124/4
f 153/125/44 155/127/44 150/122/44 146/118/44
