# Blender 5.2.0 LTS
# www.blender.org
mtllib tire.mtl
o Cylinder
v 0.082500 0.269412 0.000000
v 0.052500 0.300000 0.000000
v -0.082500 0.269412 -0.000000
v -0.052500 0.300000 -0.000000
v 0.082500 0.248904 0.103100
v 0.052500 0.277164 0.114805
v -0.082500 0.248904 0.103100
v -0.052500 0.277164 0.114805
v 0.082500 0.190503 0.190503
v 0.052500 0.212132 0.212132
v -0.082500 0.190503 0.190503
v -0.052500 0.212132 0.212132
v 0.082500 0.103100 0.248904
v 0.052500 0.114805 0.277164
v -0.082500 0.103100 0.248904
v -0.052500 0.114805 0.277164
v 0.082500 0.000000 0.269412
v 0.052500 0.000000 0.300000
v -0.082500 -0.000000 0.269412
v -0.052500 -0.000000 0.300000
v 0.082500 -0.103100 0.248904
v 0.052500 -0.114805 0.277164
v -0.082500 -0.103100 0.248904
v -0.052500 -0.114805 0.277164
v 0.082500 -0.190503 0.190503
v 0.052500 -0.212132 0.212132
v -0.082500 -0.190503 0.190503
v -0.052500 -0.212132 0.212132
v 0.082500 -0.248904 0.103100
v 0.052500 -0.277164 0.114805
v -0.082500 -0.248904 0.103100
v -0.052500 -0.277164 0.114805
v 0.082500 -0.269412 0.000000
v 0.052500 -0.300000 0.000000
v -0.082500 -0.269412 -0.000000
v -0.052500 -0.300000 -0.000000
v 0.082500 -0.248904 -0.103100
v 0.052500 -0.277164 -0.114805
v -0.082500 -0.248904 -0.103100
v -0.052500 -0.277164 -0.114805
v 0.082500 -0.190503 -0.190503
v 0.052500 -0.212132 -0.212132
v -0.082500 -0.190503 -0.190503
v -0.052500 -0.212132 -0.212132
v 0.082500 -0.103100 -0.248904
v 0.052500 -0.114805 -0.277164
v -0.082500 -0.103100 -0.248904
v -0.052500 -0.114805 -0.277164
v 0.082500 0.000000 -0.269412
v 0.052500 0.000000 -0.300000
v -0.082500 -0.000000 -0.269412
v -0.052500 -0.000000 -0.300000
v 0.082500 0.103100 -0.248904
v 0.052500 0.114805 -0.277164
v -0.082500 0.103100 -0.248904
v -0.052500 0.114805 -0.277164
v 0.082500 0.190503 -0.190503
v 0.052500 0.212132 -0.212132
v -0.082500 0.190503 -0.190503
v -0.052500 0.212132 -0.212132
v 0.082500 0.248904 -0.103100
v 0.052500 0.277164 -0.114805
v -0.082500 0.248904 -0.103100
v -0.052500 0.277164 -0.114805
v 0.088500 0.174000 0.000000
v -0.088500 0.174000 -0.000000
v 0.088500 0.150688 0.087000
v -0.088500 0.150688 0.087000
v 0.088500 0.087000 0.150688
v -0.088500 0.087000 0.150688
v 0.088500 0.000000 0.174000
v -0.088500 -0.000000 0.174000
v 0.088500 -0.087000 0.150688
v -0.088500 -0.087000 0.150688
v 0.088500 -0.150688 0.087000
v -0.088500 -0.150688 0.087000
v 0.088500 -0.174000 0.000000
v -0.088500 -0.174000 -0.000000
v 0.088500 -0.150688 -0.087000
v -0.088500 -0.150688 -0.087000
v 0.088500 -0.087000 -0.150688
v -0.088500 -0.087000 -0.150688
v 0.088500 0.000000 -0.174000
v -0.088500 -0.000000 -0.174000
v 0.088500 0.087000 -0.150688
v -0.088500 0.087000 -0.150688
v 0.088500 0.150688 -0.087000
v -0.088500 0.150688 -0.087000
v 0.092500 0.054000 0.000000
v -0.092500 0.054000 -0.000000
v 0.092500 0.038184 0.038184
v -0.092500 0.038184 0.038184
v 0.092500 0.000000 0.054000
v -0.092500 -0.000000 0.054000
v 0.092500 -0.038184 0.038184
v -0.092500 -0.038184 0.038184
v 0.092500 -0.054000 0.000000
v -0.092500 -0.054000 -0.000000
v 0.092500 -0.038184 -0.038184
v -0.092500 -0.038184 -0.038184
v 0.092500 0.000000 -0.054000
v -0.092500 -0.000000 -0.054000
v 0.092500 0.038184 -0.038184
v -0.092500 0.038184 -0.038184
vn 0.7071 0.6935 0.1379
vn -0.7071 0.6935 0.1379
vn 0.7071 0.5879 0.3928
vn -0.7071 0.5879 0.3928
vn 0.7071 0.3928 0.5879
vn -0.7071 0.3928 0.5879
vn 0.7071 0.1379 0.6935
vn -0.7071 0.1379 0.6935
vn 0.7071 -0.1379 0.6935
vn -0.7071 -0.1379 0.6935
vn 0.7071 -0.3928 0.5879
vn -0.7071 -0.3928 0.5879
vn 0.7071 -0.5879 0.3928
vn -0.7071 -0.5879 0.3928
vn 0.7071 -0.6935 0.1379
vn -0.7071 -0.6935 0.1379
vn 0.7071 -0.6935 -0.1379
vn -0.7071 -0.6935 -0.1379
vn 0.7071 -0.5879 -0.3928
vn -0.7071 -0.5879 -0.3928
vn 0.7071 -0.3928 -0.5879
vn -0.7071 -0.3928 -0.5879
vn 0.7071 -0.1379 -0.6935
vn -0.7071 -0.1379 -0.6935
vn 0.7071 0.1379 -0.6935
vn -0.7071 0.1379 -0.6935
vn 0.7071 0.3928 -0.5879
vn -0.7071 0.3928 -0.5879
vn 0.7071 0.5879 -0.3928
vn -0.7071 0.5879 -0.3928
vn 0.7071 0.6935 -0.1379
vn -0.7071 0.6935 -0.1379
vn 1.0000 -0.0000 -0.0000
vn -0.0000 0.9808 0.1951
vn -0.0000 0.9808 -0.1951
vn -1.0000 -0.0000 -0.0000
vn -0.0000 0.8315 0.5556
vn -0.0000 0.5556 0.8315
vn -0.0000 0.1951 0.9808
vn -0.0000 -0.1951 0.9808
vn -0.0000 -0.5556 0.8315
vn -0.0000 -0.8315 0.5556
vn -0.0000 -0.9808 0.1951
vn -0.0000 -0.9808 -0.1951
vn -0.0000 -0.8315 -0.5556
vn -0.0000 -0.5556 -0.8315
vn -0.0000 -0.1951 -0.9808
vn -0.0000 0.1951 -0.9808
vn -0.0000 0.5556 -0.8315
vn -0.0000 0.8315 -0.5556
vn -0.0000 0.9659 0.2588
vn -0.0000 0.7071 0.7071
vn -0.0000 0.2588 0.9659
vn -0.0000 -0.2588 0.9659
vn -0.0000 -0.7071 0.7071
vn -0.0000 -0.9659 0.2588
vn -0.0000 -0.9659 -0.2588
vn -0.0000 -0.7071 -0.7071
vn -0.0000 -0.2588 -0.9659
vn -0.0000 0.2588 -0.9659
vn -0.0000 0.7071 -0.7071
vn -0.0000 0.9659 -0.2588
vn -0.0000 0.9239 0.3827
vn -0.0000 0.3827 0.9239
vn -0.0000 -0.3827 0.9239
vn -0.0000 -0.9239 0.3827
vn -0.0000 -0.9239 -0.3827
vn -0.0000 -0.3827 -0.9239
vn -0.0000 0.3827 -0.9239
vn -0.0000 0.9239 -0.3827
vt 0.750000 0.490000
vt 0.841844 0.471731
vt 0.832480 0.449124
vt 0.750000 0.465530
vt 0.341844 0.471731
vt 0.250000 0.490000
vt 0.250000 0.465530
vt 0.332480 0.449124
vt 0.919706 0.419706
vt 0.902403 0.402403
vt 0.419706 0.419706
vt 0.402403 0.402403
vt 0.971731 0.341844
vt 0.949124 0.332480
vt 0.471731 0.341844
vt 0.449124 0.332480
vt 0.990000 0.250000
vt 0.965530 0.250000
vt 0.490000 0.250000
vt 0.465530 0.250000
vt 0.971731 0.158156
vt 0.949124 0.167520
vt 0.471731 0.158156
vt 0.449124 0.167520
vt 0.919706 0.080294
vt 0.902403 0.097597
vt 0.419706 0.080294
vt 0.402403 0.097597
vt 0.841844 0.028269
vt 0.832480 0.050876
vt 0.341844 0.028269
vt 0.332480 0.050876
vt 0.750000 0.010000
vt 0.750000 0.034470
vt 0.250000 0.010000
vt 0.250000 0.034470
vt 0.658156 0.028269
vt 0.667520 0.050876
vt 0.158156 0.028269
vt 0.167520 0.050876
vt 0.580294 0.080294
vt 0.597597 0.097597
vt 0.080294 0.080294
vt 0.097597 0.097597
vt 0.528269 0.158156
vt 0.550876 0.167520
vt 0.028269 0.158156
vt 0.050876 0.167520
vt 0.510000 0.250000
vt 0.534470 0.250000
vt 0.010000 0.250000
vt 0.034470 0.250000
vt 0.528269 0.341844
vt 0.550876 0.332480
vt 0.028269 0.341844
vt 0.050876 0.332480
vt 0.580294 0.419706
vt 0.597597 0.402403
vt 0.080294 0.419706
vt 0.097597 0.402403
vt 0.658156 0.471731
vt 0.667520 0.449124
vt 0.158156 0.471731
vt 0.167520 0.449124
vt 1.000000 0.590909
vt 1.000000 0.909091
vt 0.937500 0.909091
vt 0.937500 0.590909
vt 0.062500 0.590909
vt 0.062500 0.909091
vt 0.000000 0.909091
vt 0.000000 0.590909
vt 0.875000 0.909091
vt 0.875000 0.590909
vt 0.812500 0.909091
vt 0.812500 0.590909
vt 0.750000 0.909091
vt 0.750000 0.590909
vt 0.687500 0.909091
vt 0.687500 0.590909
vt 0.625000 0.909091
vt 0.625000 0.590909
vt 0.562500 0.909091
vt 0.562500 0.590909
vt 0.500000 0.909091
vt 0.500000 0.590909
vt 0.437500 0.909091
vt 0.437500 0.590909
vt 0.375000 0.909091
vt 0.375000 0.590909
vt 0.312500 0.909091
vt 0.312500 0.590909
vt 0.250000 0.909091
vt 0.250000 0.590909
vt 0.187500 0.909091
vt 0.187500 0.590909
vt 0.125000 0.909091
vt 0.125000 0.590909
vt 1.000000 0.500000
vt 1.000000 1.000000
vt 0.916667 1.000000
vt 0.916667 0.500000
vt 0.833333 1.000000
vt 0.833333 0.500000
vt 0.750000 1.000000
vt 0.750000 0.500000
vt 0.666667 1.000000
vt 0.666667 0.500000
vt 0.583333 1.000000
vt 0.583333 0.500000
vt 0.500000 1.000000
vt 0.500000 0.500000
vt 0.416667 1.000000
vt 0.416667 0.500000
vt 0.333333 1.000000
vt 0.333333 0.500000
vt 0.250000 1.000000
vt 0.250000 0.500000
vt 0.166667 1.000000
vt 0.166667 0.500000
vt 0.370000 0.457846
vt 0.130000 0.457846
vt 0.042154 0.370000
vt 0.042154 0.130000
vt 0.130000 0.042154
vt 0.370000 0.042154
vt 0.457846 0.130000
vt 0.457846 0.370000
vt 0.083333 1.000000
vt 0.083333 0.500000
vt 0.000000 1.000000
vt 0.000000 0.500000
vt 0.870000 0.457846
vt 0.957846 0.370000
vt 0.957846 0.130000
vt 0.870000 0.042154
vt 0.630000 0.042154
vt 0.542154 0.130000
vt 0.542154 0.370000
vt 0.630000 0.457846
vt 0.875000 1.000000
vt 0.875000 0.500000
vt 0.750000 1.000000
vt 0.750000 0.500000
vt 0.625000 1.000000
vt 0.625000 0.500000
vt 0.500000 1.000000
vt 0.500000 0.500000
vt 0.375000 1.000000
vt 0.375000 0.500000
vt 0.250000 1.000000
vt 0.250000 0.500000
vt 0.080294 0.419706
vt 0.080294 0.080294
vt 0.419706 0.080294
vt 0.125000 1.000000
vt 0.125000 0.500000
vt 0.000000 1.000000
vt 0.000000 0.500000
vt 0.919706 0.080294
vt 0.580294 0.080294
s 0
usemtl tire
f 2/1/1 6/2/1 5/3/1 1/4/1
f 8/5/2 4/6/2 3/7/2 7/8/2
f 6/2/3 10/9/3 9/10/3 5/3/3
f 12/11/4 8/5/4 7/8/4 11/12/4
f 10/9/5 14/13/5 13/14/5 9/10/5
f 16/15/6 12/11/6 11/12/6 15/16/6
f 14/13/7 18/17/7 17/18/7 13/14/7
f 20/19/8 16/15/8 15/16/8 19/20/8
f 18/17/9 22/21/9 21/22/9 17/18/9
f 24/23/10 20/19/10 19/20/10 23/24/10
f 22/21/11 26/25/11 25/26/11 21/22/11
f 28/27/12 24/23/12 23/24/12 27/28/12
f 26/25/13 30/29/13 29/30/13 25/26/13
f 32/31/14 28/27/14 27/28/14 31/32/14
f 30/29/15 34/33/15 33/34/15 29/30/15
f 36/35/16 32/31/16 31/32/16 35/36/16
f 34/33/17 38/37/17 37/38/17 33/34/17
f 40/39/18 36/35/18 35/36/18 39/40/18
f 38/37/19 42/41/19 41/42/19 37/38/19
f 44/43/20 40/39/20 39/40/20 43/44/20
f 42/41/21 46/45/21 45/46/21 41/42/21
f 48/47/22 44/43/22 43/44/22 47/48/22
f 46/45/23 50/49/23 49/50/23 45/46/23
f 52/51/24 48/47/24 47/48/24 51/52/24
f 50/49/25 54/53/25 53/54/25 49/50/25
f 56/55/26 52/51/26 51/52/26 55/56/26
f 54/53/27 58/57/27 57/58/27 53/54/27
f 60/59/28 56/55/28 55/56/28 59/60/28
f 58/57/29 62/61/29 61/62/29 57/58/29
f 64/63/30 60/59/30 59/60/30 63/64/30
f 62/61/31 2/1/31 1/4/31 61/62/31
f 4/6/32 64/63/32 63/64/32 3/7/32
f 1/4/33 5/3/33 9/10/33 13/14/33 17/18/33 21/22/33 25/26/33 29/30/33 33/34/33 37/38/33 41/42/33 45/46/33 49/50/33 53/54/33 57/58/33 61/62/33
f 2/65/34 4/66/34 8/67/34 6/68/34
f 62/69/35 64/70/35 4/71/35 2/72/35
f 7/8/36 3/7/36 63/64/36 59/60/36 55/56/36 51/52/36 47/48/36 43/44/36 39/40/36 35/36/36 31/32/36 27/28/36 23/24/36 19/20/36 15/16/36 11/12/36
f 6/68/37 8/67/37 12/73/37 10/74/37
f 10/74/38 12/73/38 16/75/38 14/76/38
f 14/76/39 16/75/39 20/77/39 18/78/39
f 18/78/40 20/77/40 24/79/40 22/80/40
f 22/80/41 24/79/41 28/81/41 26/82/41
f 26/82/42 28/81/42 32/83/42 30/84/42
f 30/84/43 32/83/43 36/85/43 34/86/43
f 34/86/44 36/85/44 40/87/44 38/88/44
f 38/88/45 40/87/45 44/89/45 42/90/45
f 42/90/46 44/89/46 48/91/46 46/92/46
f 46/92/47 48/91/47 52/93/47 50/94/47
f 50/94/48 52/93/48 56/95/48 54/96/48
f 54/96/49 56/95/49 60/97/49 58/98/49
f 58/98/50 60/97/50 64/70/50 62/69/50
f 89/99/63 90/100/63 92/141/63 91/142/63
f 91/142/64 92/141/64 94/143/64 93/144/64
f 93/144/65 94/143/65 96/145/65 95/146/65
f 95/146/66 96/145/66 98/147/66 97/148/66
f 97/148/67 98/147/67 100/149/67 99/150/67
f 99/150/68 100/149/68 102/151/68 101/152/68
f 92/11/36 90/6/36 104/153/36 102/51/36 100/154/36 98/35/36 96/155/36 94/19/36
f 101/152/69 102/151/69 104/156/69 103/157/69
f 103/157/70 104/156/70 90/158/70 89/159/70
f 89/1/33 91/9/33 93/17/33 95/160/33 97/33/33 99/161/33 101/49/33 103/57/33
usemtl rim
f 65/99/51 66/100/51 68/101/51 67/102/51
f 67/102/52 68/101/52 70/103/52 69/104/52
f 69/104/53 70/103/53 72/105/53 71/106/53
f 71/106/54 72/105/54 74/107/54 73/108/54
f 73/108/55 74/107/55 76/109/55 75/110/55
f 75/110/56 76/109/56 78/111/56 77/112/56
f 77/112/57 78/111/57 80/113/57 79/114/57
f 79/114/58 80/113/58 82/115/58 81/116/58
f 81/116/59 82/115/59 84/117/59 83/118/59
f 83/118/60 84/117/60 86/119/60 85/120/60
f 68/121/36 66/6/36 88/122/36 86/123/36 84/51/36 82/124/36 80/125/36 78/35/36 76/126/36 74/127/36 72/19/36 70/128/36
f 85/120/61 86/119/61 88/129/61 87/130/61
f 87/130/62 88/129/62 66/131/62 65/132/62
f 65/1/33 67/133/33 69/134/33 71/17/33 73/135/33 75/136/33 77/33/33 79/137/33 81/138/33 83/49/33 85/139/33 87/140/33
