# Blender 5.2.0 LTS
# www.blender.org
mtllib frame.mtl
o Cube
v -0.290000 0.100000 0.280000
v -0.290000 0.110000 0.290000
v -0.300000 0.110000 0.280000
v -0.290000 0.102929 0.287071
v -0.295774 0.104226 0.285774
v -0.297071 0.110000 0.287071
v -0.297071 0.102929 0.280000
v -0.290000 0.120000 0.290000
v -0.290000 0.130000 0.280000
v -0.300000 0.120000 0.280000
v -0.290000 0.127071 0.287071
v -0.295774 0.125774 0.285774
v -0.297071 0.127071 0.280000
v -0.297071 0.120000 0.287071
v -0.290000 0.100000 -0.280000
v -0.300000 0.110000 -0.280000
v -0.290000 0.110000 -0.290000
v -0.297071 0.102929 -0.280000
v -0.295774 0.104226 -0.285774
v -0.297071 0.110000 -0.287071
v -0.290000 0.102929 -0.287071
v -0.290000 0.130000 -0.280000
v -0.290000 0.120000 -0.290000
v -0.300000 0.120000 -0.280000
v -0.290000 0.127071 -0.287071
v -0.295774 0.125774 -0.285774
v -0.297071 0.120000 -0.287071
v -0.297071 0.127071 -0.280000
v 0.490000 0.100000 0.280000
v 0.500000 0.110000 0.280000
v 0.490000 0.110000 0.290000
v 0.497071 0.102929 0.280000
v 0.495774 0.104226 0.285774
v 0.497071 0.110000 0.287071
v 0.490000 0.102929 0.287071
v 0.490000 0.130000 0.280000
v 0.490000 0.120000 0.290000
v 0.500000 0.120000 0.280000
v 0.490000 0.127071 0.287071
v 0.495774 0.125774 0.285774
v 0.497071 0.120000 0.287071
v 0.497071 0.127071 0.280000
v 0.490000 0.100000 -0.280000
v 0.490000 0.110000 -0.290000
v 0.500000 0.110000 -0.280000
v 0.490000 0.102929 -0.287071
v 0.495774 0.104226 -0.285774
v 0.497071 0.110000 -0.287071
v 0.497071 0.102929 -0.280000
v 0.490000 0.130000 -0.280000
v 0.500000 0.120000 -0.280000
v 0.490000 0.120000 -0.290000
v 0.497071 0.127071 -0.280000
v 0.495774 0.125774 -0.285774
v 0.497071 0.120000 -0.287071
v 0.490000 0.127071 -0.287071
v 0.410000 0.100000 0.140000
v 0.410000 0.110000 0.150000
v 0.400000 0.110000 0.140000
v 0.410000 0.102929 0.147071
v 0.404227 0.104226 0.145774
v 0.402929 0.110000 0.147071
v 0.402929 0.102929 0.140000
v 0.410000 0.120000 0.150000
v 0.410000 0.130000 0.140000
v 0.400000 0.120000 0.140000
v 0.410000 0.127071 0.147071
v 0.404227 0.125774 0.145774
v 0.402929 0.127071 0.140000
v 0.402929 0.120000 0.147071
v 0.410000 0.100000 -0.140000
v 0.400000 0.110000 -0.140000
v 0.410000 0.110000 -0.150000
v 0.402929 0.102929 -0.140000
v 0.404227 0.104226 -0.145774
v 0.402929 0.110000 -0.147071
v 0.410000 0.102929 -0.147071
v 0.410000 0.130000 -0.140000
v 0.410000 0.120000 -0.150000
v 0.400000 0.120000 -0.140000
v 0.410000 0.127071 -0.147071
v 0.404227 0.125774 -0.145774
v 0.402929 0.120000 -0.147071
v 0.402929 0.127071 -0.140000
v 0.690000 0.100000 0.140000
v 0.700000 0.110000 0.140000
v 0.690000 0.110000 0.150000
v 0.697071 0.102929 0.140000
v 0.695774 0.104226 0.145774
v 0.697071 0.110000 0.147071
v 0.690000 0.102929 0.147071
v 0.690000 0.130000 0.140000
v 0.690000 0.120000 0.150000
v 0.700000 0.120000 0.140000
v 0.690000 0.127071 0.147071
v 0.695774 0.125774 0.145774
v 0.697071 0.120000 0.147071
v 0.697071 0.127071 0.140000
v 0.690000 0.100000 -0.140000
v 0.690000 0.110000 -0.150000
v 0.700000 0.110000 -0.140000
v 0.690000 0.102929 -0.147071
v 0.695774 0.104226 -0.145774
v 0.697071 0.110000 -0.147071
v 0.697071 0.102929 -0.140000
v 0.690000 0.130000 -0.140000
v 0.700000 0.120000 -0.140000
v 0.690000 0.120000 -0.150000
v 0.697071 0.127071 -0.140000
v 0.695774 0.125774 -0.145774
v 0.697071 0.120000 -0.147071
v 0.690000 0.127071 -0.147071
v -0.750000 0.145000 -0.302000
v 0.650000 0.145000 -0.302000
v -0.750000 0.129444 -0.295556
v 0.650000 0.129444 -0.295556
v -0.750000 0.123000 -0.280000
v 0.650000 0.123000 -0.280000
v -0.750000 0.129444 -0.264444
v 0.650000 0.129444 -0.264444
v -0.750000 0.145000 -0.258000
v 0.650000 0.145000 -0.258000
v -0.750000 0.160556 -0.264444
v 0.650000 0.160556 -0.264444
v -0.750000 0.167000 -0.280000
v 0.650000 0.167000 -0.280000
v -0.750000 0.160556 -0.295556
v 0.650000 0.160556 -0.295556
v -0.750000 0.145000 0.258000
v 0.650000 0.145000 0.258000
v -0.750000 0.129444 0.264444
v 0.650000 0.129444 0.264444
v -0.750000 0.123000 0.280000
v 0.650000 0.123000 0.280000
v -0.750000 0.129444 0.295556
v 0.650000 0.129444 0.295556
v -0.750000 0.145000 0.302000
v 0.650000 0.145000 0.302000
v -0.750000 0.160556 0.295556
v 0.650000 0.160556 0.295556
v -0.750000 0.167000 0.280000
v 0.650000 0.167000 0.280000
v -0.750000 0.160556 0.264444
v 0.650000 0.160556 0.264444
v 0.620000 0.167000 -0.260000
v 0.620000 0.167000 0.260000
v 0.635556 0.160556 -0.260000
v 0.635556 0.160556 0.260000
v 0.642000 0.145000 -0.260000
v 0.642000 0.145000 0.260000
v 0.635556 0.129444 -0.260000
v 0.635556 0.129444 0.260000
v 0.620000 0.123000 -0.260000
v 0.620000 0.123000 0.260000
v 0.604444 0.129444 -0.260000
v 0.604444 0.129444 0.260000
v 0.598000 0.145000 -0.260000
v 0.598000 0.145000 0.260000
v 0.604444 0.160556 -0.260000
v 0.604444 0.160556 0.260000
v -0.700000 0.167000 -0.280000
v -0.700000 0.167000 0.280000
v -0.684444 0.160556 -0.280000
v -0.684444 0.160556 0.280000
v -0.678000 0.145000 -0.280000
v -0.678000 0.145000 0.280000
v -0.684444 0.129444 -0.280000
v -0.684444 0.129444 0.280000
v -0.700000 0.123000 -0.280000
v -0.700000 0.123000 0.280000
v -0.715556 0.129444 -0.280000
v -0.715556 0.129444 0.280000
v -0.722000 0.145000 -0.280000
v -0.722000 0.145000 0.280000
v -0.715556 0.160556 -0.280000
v -0.715556 0.160556 0.280000
v -0.150000 0.165000 -0.280000
v -0.150000 0.165000 0.280000
v -0.135858 0.159142 -0.280000
v -0.135858 0.159142 0.280000
v -0.130000 0.145000 -0.280000
v -0.130000 0.145000 0.280000
v -0.135858 0.130858 -0.280000
v -0.135858 0.130858 0.280000
v -0.150000 0.125000 -0.280000
v -0.150000 0.125000 0.280000
v -0.164142 0.130858 -0.280000
v -0.164142 0.130858 0.280000
v -0.170000 0.145000 -0.280000
v -0.170000 0.145000 0.280000
v -0.164142 0.159142 -0.280000
v -0.164142 0.159142 0.280000
v 0.700000 0.162000 -0.500000
v 0.700000 0.162000 0.500000
v 0.710392 0.156000 -0.500000
v 0.710392 0.156000 0.500000
v 0.710392 0.144000 -0.500000
v 0.710392 0.144000 0.500000
v 0.700000 0.138000 -0.500000
v 0.700000 0.138000 0.500000
v 0.689608 0.144000 -0.500000
v 0.689608 0.144000 0.500000
v 0.689608 0.156000 -0.500000
v 0.689608 0.156000 0.500000
v 0.775000 0.178000 -0.570000
v 0.775000 0.178000 -0.430000
v 0.790588 0.169000 -0.570000
v 0.790588 0.169000 -0.430000
v 0.790588 0.151000 -0.570000
v 0.790588 0.151000 -0.430000
v 0.775000 0.142000 -0.570000
v 0.775000 0.142000 -0.430000
v 0.759412 0.151000 -0.570000
v 0.759412 0.151000 -0.430000
v 0.759412 0.169000 -0.570000
v 0.759412 0.169000 -0.430000
v 0.775000 0.178000 0.430000
v 0.775000 0.178000 0.570000
v 0.790588 0.169000 0.430000
v 0.790588 0.169000 0.570000
v 0.790588 0.151000 0.430000
v 0.790588 0.151000 0.570000
v 0.775000 0.142000 0.430000
v 0.775000 0.142000 0.570000
v 0.759412 0.151000 0.430000
v 0.759412 0.151000 0.570000
v 0.759412 0.169000 0.430000
v 0.759412 0.169000 0.570000
v -0.775000 0.185000 -0.525000
v -0.775000 0.185000 0.525000
v -0.757322 0.177678 -0.525000
v -0.757322 0.177678 0.525000
v -0.750000 0.160000 -0.525000
v -0.750000 0.160000 0.525000
v -0.757322 0.142322 -0.525000
v -0.757322 0.142322 0.525000
v -0.775000 0.135000 -0.525000
v -0.775000 0.135000 0.525000
v -0.792678 0.142322 -0.525000
v -0.792678 0.142322 0.525000
v -0.800000 0.160000 -0.525000
v -0.800000 0.160000 0.525000
v -0.792678 0.177678 -0.525000
v -0.792678 0.177678 0.525000
vn -0.3251 -0.8881 0.3251
vn -0.3251 -0.3251 0.8881
vn -0.8881 -0.3251 0.3251
vn -0.3251 0.3251 0.8881
vn -0.3251 0.8881 0.3251
vn -0.8881 0.3251 0.3251
vn -0.3251 -0.8881 -0.3251
vn -0.8881 -0.3251 -0.3251
vn -0.3251 -0.3251 -0.8881
vn -0.3251 0.8881 -0.3251
vn -0.3251 0.3251 -0.8881
vn -0.8881 0.3251 -0.3251
vn 0.3251 -0.8881 0.3251
vn 0.8881 -0.3251 0.3251
vn 0.3251 -0.3251 0.8881
vn 0.3251 0.8881 0.3251
vn 0.3251 0.3251 0.8881
vn 0.8881 0.3251 0.3251
vn 0.3251 -0.8881 -0.3251
vn 0.3251 -0.3251 -0.8881
vn 0.8881 -0.3251 -0.3251
vn 0.3251 0.8881 -0.3251
vn 0.8881 0.3251 -0.3251
vn 0.3251 0.3251 -0.8881
vn -0.3827 -0.9239 -0.0000
vn -0.9239 -0.3827 -0.0000
vn -0.3827 -0.0000 0.9239
vn -0.9239 -0.0000 0.3827
vn -0.3827 0.9239 -0.0000
vn -0.9239 0.3827 -0.0000
vn -0.3827 -0.0000 -0.9239
vn -0.9239 -0.0000 -0.3827
vn -0.0000 -0.9239 -0.3827
vn -0.0000 -0.3827 -0.9239
vn -0.0000 0.9239 -0.3827
vn -0.0000 0.3827 -0.9239
vn 0.9239 -0.0000 -0.3827
vn 0.3827 -0.0000 -0.9239
vn 0.3827 -0.9239 -0.0000
vn 0.9239 -0.3827 -0.0000
vn 0.3827 0.9239 -0.0000
vn 0.9239 0.3827 -0.0000
vn 0.3827 -0.0000 0.9239
vn 0.9239 -0.0000 0.3827
vn -0.0000 -0.9239 0.3827
vn -0.0000 -0.3827 0.9239
vn -0.0000 0.9239 0.3827
vn -0.0000 0.3827 0.9239
vn -0.0000 -1.0000 -0.0000
vn -1.0000 -0.0000 -0.0000
vn -0.0000 -0.0000 1.0000
vn -0.0000 1.0000 -0.0000
vn -0.0000 -0.0000 -1.0000
vn 1.0000 -0.0000 -0.0000
vn 0.5000 0.8660 -0.0000
vn 0.5000 -0.8660 -0.0000
vn -0.5000 -0.8660 -0.0000
vn -0.5000 0.8660 -0.0000
vt 0.128125 0.745690
vt 0.128125 0.750000
vt 0.126321 0.750000
vt 0.125000 0.745690
vt 0.458333 0.996875
vt 0.458333 1.000000
vt 0.410221 1.000000
vt 0.375000 0.996875
vt 0.458333 0.004310
vt 0.375000 0.004310
vt 0.375000 0.001822
vt 0.458333 0.000000
vt 0.541667 0.996875
vt 0.625000 0.996875
vt 0.625000 0.998679
vt 0.541667 1.000000
vt 0.871875 0.745690
vt 0.875000 0.745690
vt 0.875000 0.748178
vt 0.871875 0.750000
vt 0.541667 0.004310
vt 0.541667 0.000000
vt 0.589779 0.000000
vt 0.625000 0.004310
vt 0.128125 0.504310
vt 0.125000 0.504310
vt 0.125000 0.501822
vt 0.128125 0.500000
vt 0.458333 0.245690
vt 0.458333 0.250000
vt 0.392610 0.250660
vt 0.375000 0.245690
vt 0.458333 0.253125
vt 0.375000 0.253125
vt 0.871875 0.504310
vt 0.871875 0.500000
vt 0.873679 0.500000
vt 0.875000 0.504310
vt 0.541667 0.253125
vt 0.541667 0.250000
vt 0.607390 0.249089
vt 0.625000 0.253125
vt 0.541667 0.245690
vt 0.625000 0.245690
vt 0.371875 0.745690
vt 0.375000 0.745690
vt 0.386740 0.749833
vt 0.373437 0.751562
vt 0.458333 0.745690
vt 0.458333 0.750000
vt 0.458333 0.753125
vt 0.628125 0.745690
vt 0.626562 0.751562
vt 0.613700 0.749393
vt 0.625000 0.745690
vt 0.541667 0.753125
vt 0.541667 0.750000
vt 0.541667 0.745690
vt 0.371875 0.504310
vt 0.373438 0.498438
vt 0.386300 0.500607
vt 0.375000 0.504310
vt 0.458333 0.496875
vt 0.458333 0.500000
vt 0.458333 0.504310
vt 0.628125 0.504310
vt 0.625000 0.504310
vt 0.613260 0.500167
vt 0.626562 0.498438
vt 0.541667 0.504310
vt 0.541667 0.500000
vt 0.541667 0.496875
vt 0.133333 0.741667
vt 0.133333 0.750000
vt 0.128522 0.750000
vt 0.125000 0.741667
vt 0.458333 0.991667
vt 0.375000 0.991667
vt 0.458333 0.008333
vt 0.375000 0.008333
vt 0.375000 0.003522
vt 0.541667 0.991667
vt 0.625000 0.991667
vt 0.625000 0.996478
vt 0.866667 0.741667
vt 0.875000 0.741667
vt 0.875000 0.746478
vt 0.866667 0.750000
vt 0.541667 0.008333
vt 0.625000 0.008333
vt 0.133333 0.508333
vt 0.125000 0.508333
vt 0.125000 0.503522
vt 0.133333 0.500000
vt 0.458333 0.241667
vt 0.392610 0.251761
vt 0.375000 0.241667
vt 0.458333 0.258333
vt 0.375000 0.258333
vt 0.866667 0.508333
vt 0.866667 0.500000
vt 0.871478 0.500000
vt 0.875000 0.508333
vt 0.541667 0.258333
vt 0.541667 0.250000
vt 0.607390 0.248239
vt 0.625000 0.258333
vt 0.541667 0.241667
vt 0.625000 0.241667
vt 0.366667 0.741667
vt 0.375000 0.741667
vt 0.386740 0.750000
vt 0.370833 0.754167
vt 0.458333 0.741667
vt 0.458333 0.758333
vt 0.633333 0.741667
vt 0.629167 0.754167
vt 0.614434 0.748826
vt 0.625000 0.741667
vt 0.541667 0.758333
vt 0.541667 0.741667
vt 0.366667 0.508333
vt 0.370833 0.495833
vt 0.385566 0.501174
vt 0.375000 0.508333
vt 0.458333 0.491667
vt 0.458333 0.508333
vt 0.633333 0.508333
vt 0.625000 0.508333
vt 0.613260 0.500000
vt 0.629167 0.495833
vt 0.541667 0.508333
vt 0.541667 0.491667
vt 1.000000 0.500000
vt 1.000000 1.000000
vt 0.875000 1.000000
vt 0.875000 0.500000
vt 0.750000 1.000000
vt 0.750000 0.500000
vt 0.625000 1.000000
vt 0.625000 0.500000
vt 0.500000 1.000000
vt 0.500000 0.500000
vt 0.375000 1.000000
vt 0.375000 0.500000
vt 0.250000 1.000000
vt 0.250000 0.500000
vt 0.419706 0.419706
vt 0.250000 0.490000
vt 0.080294 0.419706
vt 0.010000 0.250000
vt 0.080294 0.080294
vt 0.250000 0.010000
vt 0.419706 0.080294
vt 0.490000 0.250000
vt 0.125000 1.000000
vt 0.125000 0.500000
vt 0.000000 1.000000
vt 0.000000 0.500000
vt 0.750000 0.490000
vt 0.919706 0.419706
vt 0.990000 0.250000
vt 0.919706 0.080294
vt 0.750000 0.010000
vt 0.580294 0.080294
vt 0.510000 0.250000
vt 0.580294 0.419706
vt 0.080294 0.419706
vt 0.080294 0.080294
vt 0.419706 0.080294
vt 0.919706 0.080294
vt 0.580294 0.080294
vt 0.833333 1.000000
vt 0.833333 0.500000
vt 0.666667 1.000000
vt 0.666667 0.500000
vt 0.500000 1.000000
vt 0.500000 0.500000
vt 0.333333 1.000000
vt 0.333333 0.500000
vt 0.457846 0.370000
vt 0.042154 0.370000
vt 0.042154 0.130000
vt 0.250000 0.010000
vt 0.457846 0.130000
vt 0.166667 1.000000
vt 0.166667 0.500000
vt -0.000000 1.000000
vt -0.000000 0.500000
vt 0.957846 0.370000
vt 0.957846 0.130000
vt 0.750000 0.010000
vt 0.542154 0.130000
vt 0.542154 0.370000
vt 0.042154 0.370000
vt 0.042154 0.130000
s 0
usemtl trim
f 1/1/1 4/2/1 5/3/1 7/4/1
f 2/5/2 6/6/2 5/7/2 4/8/2
f 3/9/3 7/10/3 5/11/3 6/12/3
f 8/13/4 11/14/4 12/15/4 14/16/4
f 9/17/5 13/18/5 12/19/5 11/20/5
f 10/21/6 14/22/6 12/23/6 13/24/6
f 15/25/7 18/26/7 19/27/7 21/28/7
f 16/29/8 20/30/8 19/31/8 18/32/8
f 17/33/9 21/34/9 19/31/9 20/30/9
f 22/35/10 25/36/10 26/37/10 28/38/10
f 23/39/11 27/40/11 26/41/11 25/42/11
f 24/43/12 28/44/12 26/41/12 27/40/12
f 29/45/13 32/46/13 33/47/13 35/48/13
f 30/49/14 34/50/14 33/47/14 32/46/14
f 31/51/15 35/48/15 33/47/15 34/50/15
f 36/52/16 39/53/16 40/54/16 42/55/16
f 37/56/17 41/57/17 40/54/17 39/53/17
f 38/58/18 42/55/18 40/54/18 41/57/18
f 43/59/19 46/60/19 47/61/19 49/62/19
f 44/63/20 48/64/20 47/61/20 46/60/20
f 45/65/21 49/62/21 47/61/21 48/64/21
f 50/66/22 53/67/22 54/68/22 56/69/22
f 51/70/23 55/71/23 54/68/23 53/67/23
f 52/72/24 56/69/24 54/68/24 55/71/24
f 15/25/25 1/1/25 7/4/25 18/26/25
f 18/32/26 7/10/26 3/9/26 16/29/26
f 2/5/27 8/13/27 14/16/27 6/6/27
f 6/12/28 14/22/28 10/21/28 3/9/28
f 9/17/29 22/35/29 28/38/29 13/18/29
f 13/24/30 28/44/30 24/43/30 10/21/30
f 23/39/31 17/33/31 20/30/31 27/40/31
f 27/40/32 20/30/32 16/29/32 24/43/32
f 43/59/33 15/25/33 21/28/33 46/60/33
f 46/60/34 21/34/34 17/33/34 44/63/34
f 22/35/35 50/66/35 56/69/35 25/36/35
f 25/42/36 56/69/36 52/72/36 23/39/36
f 51/70/37 45/65/37 48/64/37 55/71/37
f 55/71/38 48/64/38 44/63/38 52/72/38
f 29/45/39 43/59/39 49/62/39 32/46/39
f 32/46/40 49/62/40 45/65/40 30/49/40
f 50/66/41 36/52/41 42/55/41 53/67/41
f 53/67/42 42/55/42 38/58/42 51/70/42
f 37/56/43 31/51/43 34/50/43 41/57/43
f 41/57/44 34/50/44 30/49/44 38/58/44
f 1/1/45 29/45/45 35/48/45 4/2/45
f 4/8/46 35/48/46 31/51/46 2/5/46
f 36/52/47 9/17/47 11/20/47 39/53/47
f 39/53/48 11/14/48 8/13/48 37/56/48
f 15/25/49 43/59/49 29/45/49 1/1/49
f 3/9/50 10/21/50 24/43/50 16/29/50
f 31/51/51 37/56/51 8/13/51 2/5/51
f 50/66/52 22/35/52 9/17/52 36/52/52
f 17/33/53 23/39/53 52/72/53 44/63/53
f 45/65/54 51/70/54 38/58/54 30/49/54
f 57/73/1 60/74/1 61/75/1 63/76/1
f 58/77/2 62/6/2 61/7/2 60/78/2
f 59/79/3 63/80/3 61/81/3 62/12/3
f 64/82/4 67/83/4 68/84/4 70/16/4
f 65/85/5 69/86/5 68/87/5 67/88/5
f 66/89/6 70/22/6 68/23/6 69/90/6
f 71/91/7 74/92/7 75/93/7 77/94/7
f 72/95/8 76/30/8 75/96/8 74/97/8
f 73/98/9 77/99/9 75/96/9 76/30/9
f 78/100/10 81/101/10 82/102/10 84/103/10
f 79/104/11 83/105/11 82/106/11 81/107/11
f 80/108/12 84/109/12 82/106/12 83/105/12
f 85/110/13 88/111/13 89/112/13 91/113/13
f 86/114/14 90/50/14 89/112/14 88/111/14
f 87/115/15 91/113/15 89/112/15 90/50/15
f 92/116/16 95/117/16 96/118/16 98/119/16
f 93/120/17 97/57/17 96/118/17 95/117/17
f 94/121/18 98/119/18 96/118/18 97/57/18
f 99/122/19 102/123/19 103/124/19 105/125/19
f 100/126/20 104/64/20 103/124/20 102/123/20
f 101/127/21 105/125/21 103/124/21 104/64/21
f 106/128/22 109/129/22 110/130/22 112/131/22
f 107/132/23 111/71/23 110/130/23 109/129/23
f 108/133/24 112/131/24 110/130/24 111/71/24
f 71/91/25 57/73/25 63/76/25 74/92/25
f 74/97/26 63/80/26 59/79/26 72/95/26
f 58/77/27 64/82/27 70/16/27 62/6/27
f 62/12/28 70/22/28 66/89/28 59/79/28
f 65/85/29 78/100/29 84/103/29 69/86/29
f 69/90/30 84/109/30 80/108/30 66/89/30
f 79/104/31 73/98/31 76/30/31 83/105/31
f 83/105/32 76/30/32 72/95/32 80/108/32
f 99/122/33 71/91/33 77/94/33 102/123/33
f 102/123/34 77/99/34 73/98/34 100/126/34
f 78/100/35 106/128/35 112/131/35 81/101/35
f 81/107/36 112/131/36 108/133/36 79/104/36
f 107/132/37 101/127/37 104/64/37 111/71/37
f 111/71/38 104/64/38 100/126/38 108/133/38
f 85/110/39 99/122/39 105/125/39 88/111/39
f 88/111/40 105/125/40 101/127/40 86/114/40
f 106/128/41 92/116/41 98/119/41 109/129/41
f 109/129/42 98/119/42 94/121/42 107/132/42
f 93/120/43 87/115/43 90/50/43 97/57/43
f 97/57/44 90/50/44 86/114/44 94/121/44
f 57/73/45 85/110/45 91/113/45 60/74/45
f 60/78/46 91/113/46 87/115/46 58/77/46
f 92/116/47 65/85/47 67/88/47 95/117/47
f 95/117/48 67/83/48 64/82/48 93/120/48
f 71/91/49 99/122/49 85/110/49 57/73/49
f 59/79/50 66/89/50 80/108/50 72/95/50
f 87/115/51 93/120/51 64/82/51 58/77/51
f 106/128/52 78/100/52 65/85/52 92/116/52
f 73/98/53 79/104/53 108/133/53 100/126/53
f 101/127/54 107/132/54 94/121/54 86/114/54
f 193/134/55 194/135/55 196/173/55 195/174/55
f 195/174/54 196/173/54 198/175/54 197/176/54
f 197/176/56 198/175/56 200/177/56 199/178/56
f 199/178/57 200/177/57 202/179/57 201/180/57
f 196/181/51 194/149/51 204/182/51 202/183/51 200/184/51 198/185/51
f 201/180/50 202/179/50 204/186/50 203/187/50
f 203/187/58 204/186/58 194/188/58 193/189/58
f 193/160/53 195/190/53 197/191/53 199/192/53 201/193/53 203/194/53
f 205/134/55 206/135/55 208/173/55 207/174/55
f 207/174/54 208/173/54 210/175/54 209/176/54
f 209/176/56 210/175/56 212/177/56 211/178/56
f 211/178/57 212/177/57 214/179/57 213/180/57
f 208/181/51 206/149/51 216/195/51 214/196/51 212/153/51 210/185/51
f 213/180/50 214/179/50 216/186/50 215/187/50
f 215/187/58 216/186/58 206/188/58 205/189/58
f 205/160/53 207/190/53 209/191/53 211/164/53 213/193/53 215/194/53
f 217/134/55 218/135/55 220/173/55 219/174/55
f 219/174/54 220/173/54 222/175/54 221/176/54
f 221/176/56 222/175/56 224/177/56 223/178/56
f 223/178/57 224/177/57 226/179/57 225/180/57
f 220/181/51 218/149/51 228/195/51 226/196/51 224/153/51 222/185/51
f 225/180/50 226/179/50 228/186/50 227/187/50
f 227/187/58 228/186/58 218/188/58 217/189/58
f 217/160/53 219/190/53 221/191/53 223/164/53 225/193/53 227/194/53
f 229/134/41 230/135/41 232/136/41 231/137/41
f 231/137/42 232/136/42 234/138/42 233/139/42
f 233/139/40 234/138/40 236/140/40 235/141/40
f 235/141/39 236/140/39 238/142/39 237/143/39
f 237/143/25 238/142/25 240/144/25 239/145/25
f 239/145/26 240/144/26 242/146/26 241/147/26
f 232/148/51 230/149/51 244/168/51 242/151/51 240/169/51 238/153/51 236/170/51 234/155/51
f 241/147/30 242/146/30 244/156/30 243/157/30
f 243/157/29 244/156/29 230/158/29 229/159/29
f 229/160/53 231/161/53 233/162/53 235/171/53 237/164/53 239/172/53 241/166/53 243/167/53
usemtl body_acid
f 113/134/34 114/135/34 116/136/34 115/137/34
f 115/137/33 116/136/33 118/138/33 117/139/33
f 117/139/45 118/138/45 120/140/45 119/141/45
f 119/141/46 120/140/46 122/142/46 121/143/46
f 121/143/48 122/142/48 124/144/48 123/145/48
f 123/145/47 124/144/47 126/146/47 125/147/47
f 116/148/54 114/149/54 128/150/54 126/151/54 124/152/54 122/153/54 120/154/54 118/155/54
f 125/147/35 126/146/35 128/156/35 127/157/35
f 127/157/36 128/156/36 114/158/36 113/159/36
f 113/160/50 115/161/50 117/162/50 119/163/50 121/164/50 123/165/50 125/166/50 127/167/50
f 129/134/34 130/135/34 132/136/34 131/137/34
f 131/137/33 132/136/33 134/138/33 133/139/33
f 133/139/45 134/138/45 136/140/45 135/141/45
f 135/141/46 136/140/46 138/142/46 137/143/46
f 137/143/48 138/142/48 140/144/48 139/145/48
f 139/145/47 140/144/47 142/146/47 141/147/47
f 132/148/54 130/149/54 144/150/54 142/151/54 140/152/54 138/153/54 136/154/54 134/155/54
f 141/147/35 142/146/35 144/156/35 143/157/35
f 143/157/36 144/156/36 130/158/36 129/159/36
f 129/160/50 131/161/50 133/162/50 135/163/50 137/164/50 139/165/50 141/166/50 143/167/50
f 145/134/41 146/135/41 148/136/41 147/137/41
f 147/137/42 148/136/42 150/138/42 149/139/42
f 149/139/40 150/138/40 152/140/40 151/141/40
f 151/141/39 152/140/39 154/142/39 153/143/39
f 153/143/25 154/142/25 156/144/25 155/145/25
f 155/145/26 156/144/26 158/146/26 157/147/26
f 148/148/51 146/149/51 160/150/51 158/151/51 156/152/51 154/153/51 152/154/51 150/155/51
f 157/147/30 158/146/30 160/156/30 159/157/30
f 159/157/29 160/156/29 146/158/29 145/159/29
f 145/160/53 147/161/53 149/162/53 151/163/53 153/164/53 155/165/53 157/166/53 159/167/53
f 161/134/41 162/135/41 164/136/41 163/137/41
f 163/137/42 164/136/42 166/138/42 165/139/42
f 165/139/40 166/138/40 168/140/40 167/141/40
f 167/141/39 168/140/39 170/142/39 169/143/39
f 169/143/25 170/142/25 172/144/25 171/145/25
f 171/145/26 172/144/26 174/146/26 173/147/26
f 164/148/51 162/149/51 176/150/51 174/151/51 172/152/51 170/153/51 168/154/51 166/155/51
f 173/147/30 174/146/30 176/156/30 175/157/30
f 175/157/29 176/156/29 162/158/29 161/159/29
f 161/160/53 163/161/53 165/162/53 167/163/53 169/164/53 171/165/53 173/166/53 175/167/53
f 177/134/41 178/135/41 180/136/41 179/137/41
f 179/137/42 180/136/42 182/138/42 181/139/42
f 181/139/40 182/138/40 184/140/40 183/141/40
f 183/141/39 184/140/39 186/142/39 185/143/39
f 185/143/25 186/142/25 188/144/25 187/145/25
f 187/145/26 188/144/26 190/146/26 189/147/26
f 180/148/51 178/149/51 192/168/51 190/151/51 188/169/51 186/153/51 184/170/51 182/155/51
f 189/147/30 190/146/30 192/156/30 191/157/30
f 191/157/29 192/156/29 178/158/29 177/159/29
f 177/160/53 179/161/53 181/162/53 183/171/53 185/164/53 187/172/53 189/166/53 191/167/53
