# Blender 5.2.0 LTS
# www.blender.org
mtllib wheel_r.mtl
o Cylinder
v -0.000000 0.141776 -0.090000
v 0.000000 0.160000 -0.072000
v -0.000000 0.154662 -0.084728
v 0.000000 0.141776 0.090000
v 0.000000 0.160000 0.072000
v 0.000000 0.154662 0.084728
v 0.043811 0.134837 -0.090000
v 0.049443 0.152169 -0.072000
v 0.047793 0.147092 -0.084728
v 0.043811 0.134837 0.090000
v 0.049443 0.152169 0.072000
v 0.047793 0.147092 0.084728
v 0.083334 0.114699 -0.090000
v 0.094046 0.129443 -0.072000
v 0.090908 0.125124 -0.084728
v 0.083334 0.114699 0.090000
v 0.094046 0.129443 0.072000
v 0.090908 0.125124 0.084728
v 0.114699 0.083334 -0.090000
v 0.129443 0.094046 -0.072000
v 0.125124 0.090908 -0.084728
v 0.114699 0.083334 0.090000
v 0.129443 0.094046 0.072000
v 0.125124 0.090908 0.084728
v 0.134837 0.043811 -0.090000
v 0.152169 0.049443 -0.072000
v 0.147092 0.047793 -0.084728
v 0.134837 0.043811 0.090000
v 0.152169 0.049443 0.072000
v 0.147092 0.047793 0.084728
v 0.141776 0.000000 -0.090000
v 0.160000 0.000000 -0.072000
v 0.154662 0.000000 -0.084728
v 0.141776 -0.000000 0.090000
v 0.160000 -0.000000 0.072000
v 0.154662 -0.000000 0.084728
v 0.134837 -0.043811 -0.090000
v 0.152169 -0.049443 -0.072000
v 0.147092 -0.047793 -0.084728
v 0.134837 -0.043811 0.090000
v 0.152169 -0.049443 0.072000
v 0.147092 -0.047793 0.084728
v 0.114699 -0.083334 -0.090000
v 0.129443 -0.094046 -0.072000
v 0.125124 -0.090908 -0.084728
v 0.114699 -0.083334 0.090000
v 0.129443 -0.094046 0.072000
v 0.125124 -0.090908 0.084728
v 0.083334 -0.114699 -0.090000
v 0.094046 -0.129443 -0.072000
v 0.090908 -0.125124 -0.084728
v 0.083334 -0.114699 0.090000
v 0.094046 -0.129443 0.072000
v 0.090908 -0.125124 0.084728
v 0.043811 -0.134837 -0.090000
v 0.049443 -0.152169 -0.072000
v 0.047793 -0.147092 -0.084728
v 0.043811 -0.134837 0.090000
v 0.049443 -0.152169 0.072000
v 0.047793 -0.147092 0.084728
v 0.000000 -0.141776 -0.090000
v 0.000000 -0.160000 -0.072000
v 0.000000 -0.154662 -0.084728
v -0.000000 -0.141776 0.090000
v 0.000000 -0.160000 0.072000
v -0.000000 -0.154662 0.084728
v -0.043811 -0.134837 -0.090000
v -0.049443 -0.152169 -0.072000
v -0.047793 -0.147092 -0.084728
v -0.043811 -0.134837 0.090000
v -0.049443 -0.152169 0.072000
v -0.047793 -0.147092 0.084728
v -0.083334 -0.114699 -0.090000
v -0.094046 -0.129443 -0.072000
v -0.090908 -0.125124 -0.084728
v -0.083334 -0.114699 0.090000
v -0.094046 -0.129443 0.072000
v -0.090908 -0.125124 0.084728
v -0.114699 -0.083334 -0.090000
v -0.129443 -0.094046 -0.072000
v -0.125124 -0.090908 -0.084728
v -0.114699 -0.083334 0.090000
v -0.129443 -0.094046 0.072000
v -0.125124 -0.090908 0.084728
v -0.134837 -0.043811 -0.090000
v -0.152169 -0.049443 -0.072000
v -0.147092 -0.047793 -0.084728
v -0.134837 -0.043811 0.090000
v -0.152169 -0.049443 0.072000
v -0.147092 -0.047793 0.084728
v -0.141776 0.000000 -0.090000
v -0.160000 0.000000 -0.072000
v -0.154662 0.000000 -0.084728
v -0.141776 -0.000000 0.090000
v -0.160000 -0.000000 0.072000
v -0.154662 -0.000000 0.084728
v -0.134837 0.043811 -0.090000
v -0.152169 0.049443 -0.072000
v -0.147092 0.047793 -0.084728
v -0.134837 0.043811 0.090000
v -0.152169 0.049443 0.072000
v -0.147092 0.047793 0.084728
v -0.114699 0.083334 -0.090000
v -0.129443 0.094046 -0.072000
v -0.125124 0.090908 -0.084728
v -0.114699 0.083334 0.090000
v -0.129443 0.094046 0.072000
v -0.125124 0.090908 0.084728
v -0.083334 0.114699 -0.090000
v -0.094046 0.129443 -0.072000
v -0.090908 0.125124 -0.084728
v -0.083334 0.114699 0.090000
v -0.094046 0.129443 0.072000
v -0.090908 0.125124 0.084728
v -0.043811 0.134837 -0.090000
v -0.049443 0.152169 -0.072000
v -0.047793 0.147092 -0.084728
v -0.043811 0.134837 0.090000
v -0.049443 0.152169 0.072000
v -0.047793 0.147092 0.084728
v 0.000000 0.096000 -0.096000
v 0.000000 0.096000 0.096000
v 0.056427 0.077666 -0.096000
v 0.056427 0.077666 0.096000
v 0.091301 0.029666 -0.096000
v 0.091301 0.029666 0.096000
v 0.091301 -0.029666 -0.096000
v 0.091301 -0.029666 0.096000
v 0.056427 -0.077666 -0.096000
v 0.056427 -0.077666 0.096000
v 0.000000 -0.096000 -0.096000
v 0.000000 -0.096000 0.096000
v -0.056427 -0.077666 -0.096000
v -0.056427 -0.077666 0.096000
v -0.091301 -0.029666 -0.096000
v -0.091301 -0.029666 0.096000
v -0.091301 0.029666 -0.096000
v -0.091301 0.029666 0.096000
v -0.056427 0.077666 -0.096000
v -0.056427 0.077666 0.096000
v 0.000000 0.028800 -0.101000
v 0.000000 0.028800 0.101000
v 0.024942 0.014400 -0.101000
v 0.024942 0.014400 0.101000
v 0.024942 -0.014400 -0.101000
v 0.024942 -0.014400 0.101000
v 0.000000 -0.028800 -0.101000
v 0.000000 -0.028800 0.101000
v -0.024942 -0.014400 -0.101000
v -0.024942 -0.014400 0.101000
v -0.024942 0.014400 -0.101000
v -0.024942 0.014400 0.101000
vn 0.1445 0.9125 -0.3827
vn 0.0599 0.3780 -0.9239
vn 0.1445 0.9125 0.3827
vn 0.0599 0.3780 0.9239
vn 0.4194 0.8232 -0.3827
vn 0.1737 0.3410 -0.9239
vn 0.4194 0.8232 0.3827
vn 0.1737 0.3410 0.9239
vn 0.6533 0.6533 -0.3827
vn 0.2706 0.2706 -0.9239
vn 0.6533 0.6533 0.3827
vn 0.2706 0.2706 0.9239
vn 0.8232 0.4194 -0.3827
vn 0.3410 0.1737 -0.9239
vn 0.8232 0.4194 0.3827
vn 0.3410 0.1737 0.9239
vn 0.9125 0.1445 -0.3827
vn 0.3780 0.0599 -0.9239
vn 0.9125 0.1445 0.3827
vn 0.3780 0.0599 0.9239
vn 0.9125 -0.1445 -0.3827
vn 0.3780 -0.0599 -0.9239
vn 0.9125 -0.1445 0.3827
vn 0.3780 -0.0599 0.9239
vn 0.8232 -0.4194 -0.3827
vn 0.3410 -0.1737 -0.9239
vn 0.8232 -0.4194 0.3827
vn 0.3410 -0.1737 0.9239
vn 0.6533 -0.6533 -0.3827
vn 0.2706 -0.2706 -0.9239
vn 0.6533 -0.6533 0.3827
vn 0.2706 -0.2706 0.9239
vn 0.4194 -0.8232 -0.3827
vn 0.1737 -0.3410 -0.9239
vn 0.4194 -0.8232 0.3827
vn 0.1737 -0.3410 0.9239
vn 0.1445 -0.9125 -0.3827
vn 0.0599 -0.3780 -0.9239
vn 0.1445 -0.9125 0.3827
vn 0.0599 -0.3780 0.9239
vn -0.1445 -0.9125 -0.3827
vn -0.0599 -0.3780 -0.9239
vn -0.1445 -0.9125 0.3827
vn -0.0599 -0.3780 0.9239
vn -0.4194 -0.8232 -0.3827
vn -0.1737 -0.3410 -0.9239
vn -0.4194 -0.8232 0.3827
vn -0.1737 -0.3410 0.9239
vn -0.6533 -0.6533 -0.3827
vn -0.2706 -0.2706 -0.9239
vn -0.6533 -0.6533 0.3827
vn -0.2706 -0.2706 0.9239
vn -0.8232 -0.4194 -0.3827
vn -0.3410 -0.1737 -0.9239
vn -0.8232 -0.4194 0.3827
vn -0.3410 -0.1737 0.9239
vn -0.9125 -0.1445 -0.3827
vn -0.3780 -0.0599 -0.9239
vn -0.9125 -0.1445 0.3827
vn -0.3780 -0.0599 0.9239
vn -0.9125 0.1445 -0.3827
vn -0.3780 0.0599 -0.9239
vn -0.9125 0.1445 0.3827
vn -0.3780 0.0599 0.9239
vn -0.8232 0.4194 -0.3827
vn -0.3410 0.1737 -0.9239
vn -0.8232 0.4194 0.3827
vn -0.3410 0.1737 0.9239
vn -0.6533 0.6533 -0.3827
vn -0.2706 0.2706 -0.9239
vn -0.6533 0.6533 0.3827
vn -0.2706 0.2706 0.9239
vn -0.4194 0.8232 -0.3827
vn -0.1737 0.3410 -0.9239
vn -0.4194 0.8232 0.3827
vn -0.1737 0.3410 0.9239
vn -0.1445 0.9125 -0.3827
vn -0.0599 0.3780 -0.9239
vn -0.1445 0.9125 0.3827
vn -0.0599 0.3780 0.9239
vn -0.0000 -0.0000 -1.0000
vn 0.1564 0.9877 -0.0000
vn -0.1564 0.9877 -0.0000
vn -0.0000 -0.0000 1.0000
vn 0.4540 0.8910 -0.0000
vn 0.7071 0.7071 -0.0000
vn 0.8910 0.4540 -0.0000
vn 0.9877 0.1564 -0.0000
vn 0.9877 -0.1564 -0.0000
vn 0.8910 -0.4540 -0.0000
vn 0.7071 -0.7071 -0.0000
vn 0.4540 -0.8910 -0.0000
vn 0.1564 -0.9877 -0.0000
vn -0.1564 -0.9877 -0.0000
vn -0.4540 -0.8910 -0.0000
vn -0.7071 -0.7071 -0.0000
vn -0.8910 -0.4540 -0.0000
vn -0.9877 -0.1564 -0.0000
vn -0.9877 0.1564 -0.0000
vn -0.8910 0.4540 -0.0000
vn -0.7071 0.7071 -0.0000
vn -0.4540 0.8910 -0.0000
vn 0.3090 0.9511 -0.0000
vn 0.8090 0.5878 -0.0000
vn 1.0000 -0.0000 -0.0000
vn 0.8090 -0.5878 -0.0000
vn 0.3090 -0.9511 -0.0000
vn -0.3090 -0.9511 -0.0000
vn -0.8090 -0.5878 -0.0000
vn -1.0000 -0.0000 -0.0000
vn -0.8090 0.5878 -0.0000
vn -0.3090 0.9511 -0.0000
vn 0.5000 0.8660 -0.0000
vn 0.5000 -0.8660 -0.0000
vn -0.5000 -0.8660 -0.0000
vn -0.5000 0.8660 -0.0000
vt 1.000000 0.550000
vt 0.950000 0.550000
vt 0.950000 0.500000
vt 0.999166 0.500000
vt 0.750000 0.489804
vt 0.824104 0.478067
vt 0.815717 0.452255
vt 0.750000 0.462664
vt 0.950000 0.950000
vt 1.000000 0.950000
vt 0.999166 1.000000
vt 0.950000 1.000000
vt 0.324104 0.478067
vt 0.250000 0.489804
vt 0.250000 0.462664
vt 0.315717 0.452255
vt 0.900000 0.550000
vt 0.900000 0.500000
vt 0.890953 0.444006
vt 0.875000 0.422048
vt 0.900000 0.950000
vt 0.900000 1.000000
vt 0.390953 0.444006
vt 0.375000 0.422048
vt 0.850000 0.550000
vt 0.850000 0.500000
vt 0.944006 0.390953
vt 0.922049 0.375000
vt 0.850000 0.950000
vt 0.850000 1.000000
vt 0.444006 0.390953
vt 0.422048 0.375000
vt 0.800000 0.550000
vt 0.800000 0.500000
vt 0.978067 0.324104
vt 0.952255 0.315717
vt 0.800000 0.950000
vt 0.800000 1.000000
vt 0.478067 0.324104
vt 0.452255 0.315717
vt 0.750000 0.550000
vt 0.750000 0.500000
vt 0.989804 0.250000
vt 0.962663 0.250000
vt 0.750000 0.950000
vt 0.750000 1.000000
vt 0.489804 0.250000
vt 0.462664 0.250000
vt 0.700000 0.550000
vt 0.700000 0.500000
vt 0.978067 0.175896
vt 0.952255 0.184283
vt 0.700000 0.950000
vt 0.700000 1.000000
vt 0.478067 0.175896
vt 0.452255 0.184283
vt 0.650000 0.550000
vt 0.650000 0.500000
vt 0.944006 0.109047
vt 0.922048 0.125000
vt 0.650000 0.950000
vt 0.650000 1.000000
vt 0.444006 0.109047
vt 0.422048 0.125000
vt 0.600000 0.550000
vt 0.600000 0.500000
vt 0.890953 0.055994
vt 0.875000 0.077952
vt 0.600000 0.950000
vt 0.600000 1.000000
vt 0.390953 0.055994
vt 0.375000 0.077952
vt 0.550000 0.550000
vt 0.550000 0.500000
vt 0.824104 0.021933
vt 0.815717 0.047745
vt 0.550000 0.950000
vt 0.550000 1.000000
vt 0.324104 0.021933
vt 0.315717 0.047745
vt 0.500000 0.550000
vt 0.500000 0.500000
vt 0.750000 0.010196
vt 0.750000 0.037337
vt 0.500000 0.950000
vt 0.500000 1.000000
vt 0.250000 0.010196
vt 0.250000 0.037337
vt 0.450000 0.550000
vt 0.450000 0.500000
vt 0.675896 0.021933
vt 0.684283 0.047745
vt 0.450000 0.950000
vt 0.450000 1.000000
vt 0.175896 0.021933
vt 0.184283 0.047745
vt 0.400000 0.550000
vt 0.400000 0.500000
vt 0.609047 0.055994
vt 0.625000 0.077952
vt 0.400000 0.950000
vt 0.400000 1.000000
vt 0.109047 0.055994
vt 0.125000 0.077952
vt 0.350000 0.550000
vt 0.350000 0.500000
vt 0.555994 0.109047
vt 0.577952 0.125000
vt 0.350000 0.950000
vt 0.350000 1.000000
vt 0.055994 0.109047
vt 0.077952 0.125000
vt 0.300000 0.550000
vt 0.300000 0.500000
vt 0.521933 0.175896
vt 0.547745 0.184283
vt 0.300000 0.950000
vt 0.300000 1.000000
vt 0.021933 0.175896
vt 0.047745 0.184283
vt 0.250000 0.550000
vt 0.250000 0.500000
vt 0.510196 0.250000
vt 0.537337 0.250000
vt 0.250000 0.950000
vt 0.250000 1.000000
vt 0.010196 0.250000
vt 0.037337 0.250000
vt 0.200000 0.550000
vt 0.200000 0.500000
vt 0.521933 0.324104
vt 0.547745 0.315717
vt 0.200000 0.950000
vt 0.200000 1.000000
vt 0.021933 0.324104
vt 0.047745 0.315717
vt 0.150000 0.550000
vt 0.150000 0.500000
vt 0.555994 0.390953
vt 0.577952 0.375000
vt 0.150000 0.950000
vt 0.150000 1.000000
vt 0.055994 0.390953
vt 0.077952 0.375000
vt 0.100000 0.550000
vt 0.100000 0.500000
vt 0.609047 0.444006
vt 0.625000 0.422048
vt 0.100000 0.950000
vt 0.100000 1.000000
vt 0.109047 0.444006
vt 0.125000 0.422048
vt 0.050000 0.550000
vt 0.050000 0.500000
vt 0.675896 0.478067
vt 0.684283 0.452255
vt 0.050000 0.950000
vt 0.050000 1.000000
vt 0.175896 0.478067
vt 0.184283 0.452255
vt -0.000000 0.550000
vt 0.000834 0.500000
vt -0.000000 0.950000
vt 0.000834 1.000000
vt 1.000000 0.500000
vt 1.000000 1.000000
vt 0.500000 1.000000
vt 0.500000 0.500000
vt 0.400000 1.000000
vt 0.400000 0.500000
vt 0.300000 1.000000
vt 0.300000 0.500000
vt 0.200000 1.000000
vt 0.200000 0.500000
vt 0.391068 0.444164
vt 0.250000 0.490000
vt 0.108932 0.444164
vt 0.021746 0.324164
vt 0.021746 0.175836
vt 0.108932 0.055836
vt 0.250000 0.010000
vt 0.391068 0.055836
vt 0.478254 0.175836
vt 0.478254 0.324164
vt 0.100000 1.000000
vt 0.100000 0.500000
vt -0.000000 1.000000
vt -0.000000 0.500000
vt 0.750000 0.490000
vt 0.891068 0.444164
vt 0.978254 0.324164
vt 0.978254 0.175836
vt 0.891068 0.055836
vt 0.750000 0.010000
vt 0.608932 0.055836
vt 0.521746 0.175836
vt 0.521746 0.324164
vt 0.608932 0.444164
vt 0.833333 1.000000
vt 0.833333 0.500000
vt 0.666667 1.000000
vt 0.666667 0.500000
vt 0.500000 1.000000
vt 0.500000 0.500000
vt 0.333333 1.000000
vt 0.333333 0.500000
vt 0.457846 0.370000
vt 0.250000 0.490000
vt 0.042154 0.370000
vt 0.042154 0.130000
vt 0.250000 0.010000
vt 0.457846 0.130000
vt 0.166667 1.000000
vt 0.166667 0.500000
vt -0.000000 1.000000
vt -0.000000 0.500000
vt 0.750000 0.490000
vt 0.957846 0.370000
vt 0.957846 0.130000
vt 0.750000 0.010000
vt 0.542154 0.130000
vt 0.542154 0.370000
s 0
usemtl tire
f 2/1/1 8/2/1 9/3/1 3/4/1
f 3/5/2 9/6/2 7/7/2 1/8/2
f 11/9/3 5/10/3 6/11/3 12/12/3
f 12/13/4 6/14/4 4/15/4 10/16/4
f 8/2/5 14/17/5 15/18/5 9/3/5
f 9/6/6 15/19/6 13/20/6 7/7/6
f 17/21/7 11/9/7 12/12/7 18/22/7
f 18/23/8 12/13/8 10/16/8 16/24/8
f 14/17/9 20/25/9 21/26/9 15/18/9
f 15/19/10 21/27/10 19/28/10 13/20/10
f 23/29/11 17/21/11 18/22/11 24/30/11
f 24/31/12 18/23/12 16/24/12 22/32/12
f 20/25/13 26/33/13 27/34/13 21/26/13
f 21/27/14 27/35/14 25/36/14 19/28/14
f 29/37/15 23/29/15 24/30/15 30/38/15
f 30/39/16 24/31/16 22/32/16 28/40/16
f 26/33/17 32/41/17 33/42/17 27/34/17
f 27/35/18 33/43/18 31/44/18 25/36/18
f 35/45/19 29/37/19 30/38/19 36/46/19
f 36/47/20 30/39/20 28/40/20 34/48/20
f 32/41/21 38/49/21 39/50/21 33/42/21
f 33/43/22 39/51/22 37/52/22 31/44/22
f 41/53/23 35/45/23 36/46/23 42/54/23
f 42/55/24 36/47/24 34/48/24 40/56/24
f 38/49/25 44/57/25 45/58/25 39/50/25
f 39/51/26 45/59/26 43/60/26 37/52/26
f 47/61/27 41/53/27 42/54/27 48/62/27
f 48/63/28 42/55/28 40/56/28 46/64/28
f 44/57/29 50/65/29 51/66/29 45/58/29
f 45/59/30 51/67/30 49/68/30 43/60/30
f 53/69/31 47/61/31 48/62/31 54/70/31
f 54/71/32 48/63/32 46/64/32 52/72/32
f 50/65/33 56/73/33 57/74/33 51/66/33
f 51/67/34 57/75/34 55/76/34 49/68/34
f 59/77/35 53/69/35 54/70/35 60/78/35
f 60/79/36 54/71/36 52/72/36 58/80/36
f 56/73/37 62/81/37 63/82/37 57/74/37
f 57/75/38 63/83/38 61/84/38 55/76/38
f 65/85/39 59/77/39 60/78/39 66/86/39
f 66/87/40 60/79/40 58/80/40 64/88/40
f 62/81/41 68/89/41 69/90/41 63/82/41
f 63/83/42 69/91/42 67/92/42 61/84/42
f 71/93/43 65/85/43 66/86/43 72/94/43
f 72/95/44 66/87/44 64/88/44 70/96/44
f 68/89/45 74/97/45 75/98/45 69/90/45
f 69/91/46 75/99/46 73/100/46 67/92/46
f 77/101/47 71/93/47 72/94/47 78/102/47
f 78/103/48 72/95/48 70/96/48 76/104/48
f 74/97/49 80/105/49 81/106/49 75/98/49
f 75/99/50 81/107/50 79/108/50 73/100/50
f 83/109/51 77/101/51 78/102/51 84/110/51
f 84/111/52 78/103/52 76/104/52 82/112/52
f 80/105/53 86/113/53 87/114/53 81/106/53
f 81/107/54 87/115/54 85/116/54 79/108/54
f 89/117/55 83/109/55 84/110/55 90/118/55
f 90/119/56 84/111/56 82/112/56 88/120/56
f 86/113/57 92/121/57 93/122/57 87/114/57
f 87/115/58 93/123/58 91/124/58 85/116/58
f 95/125/59 89/117/59 90/118/59 96/126/59
f 96/127/60 90/119/60 88/120/60 94/128/60
f 92/121/61 98/129/61 99/130/61 93/122/61
f 93/123/62 99/131/62 97/132/62 91/124/62
f 101/133/63 95/125/63 96/126/63 102/134/63
f 102/135/64 96/127/64 94/128/64 100/136/64
f 98/129/65 104/137/65 105/138/65 99/130/65
f 99/131/66 105/139/66 103/140/66 97/132/66
f 107/141/67 101/133/67 102/134/67 108/142/67
f 108/143/68 102/135/68 100/136/68 106/144/68
f 104/137/69 110/145/69 111/146/69 105/138/69
f 105/139/70 111/147/70 109/148/70 103/140/70
f 113/149/71 107/141/71 108/142/71 114/150/71
f 114/151/72 108/143/72 106/144/72 112/152/72
f 110/145/73 116/153/73 117/154/73 111/146/73
f 111/147/74 117/155/74 115/156/74 109/148/74
f 119/157/75 113/149/75 114/150/75 120/158/75
f 120/159/76 114/151/76 112/152/76 118/160/76
f 116/153/77 2/161/77 3/162/77 117/154/77
f 117/155/78 3/5/78 1/8/78 115/156/78
f 5/163/79 119/157/79 120/158/79 6/164/79
f 6/14/80 120/159/80 118/160/80 4/15/80
f 1/8/81 7/7/81 13/20/81 19/28/81 25/36/81 31/44/81 37/52/81 43/60/81 49/68/81 55/76/81 61/84/81 67/92/81 73/100/81 79/108/81 85/116/81 91/124/81 97/132/81 103/140/81 109/148/81 115/156/81
f 2/1/82 5/10/82 11/9/82 8/2/82
f 116/153/83 119/157/83 5/163/83 2/161/83
f 10/16/84 4/15/84 118/160/84 112/152/84 106/144/84 100/136/84 94/128/84 88/120/84 82/112/84 76/104/84 70/96/84 64/88/84 58/80/84 52/72/84 46/64/84 40/56/84 34/48/84 28/40/84 22/32/84 16/24/84
f 8/2/85 11/9/85 17/21/85 14/17/85
f 14/17/86 17/21/86 23/29/86 20/25/86
f 20/25/87 23/29/87 29/37/87 26/33/87
f 26/33/88 29/37/88 35/45/88 32/41/88
f 32/41/89 35/45/89 41/53/89 38/49/89
f 38/49/90 41/53/90 47/61/90 44/57/90
f 44/57/91 47/61/91 53/69/91 50/65/91
f 50/65/92 53/69/92 59/77/92 56/73/92
f 56/73/93 59/77/93 65/85/93 62/81/93
f 62/81/94 65/85/94 71/93/94 68/89/94
f 68/89/95 71/93/95 77/101/95 74/97/95
f 74/97/96 77/101/96 83/109/96 80/105/96
f 80/105/97 83/109/97 89/117/97 86/113/97
f 86/113/98 89/117/98 95/125/98 92/121/98
f 92/121/99 95/125/99 101/133/99 98/129/99
f 98/129/100 101/133/100 107/141/100 104/137/100
f 104/137/101 107/141/101 113/149/101 110/145/101
f 110/145/102 113/149/102 119/157/102 116/153/102
usemtl body_acid
f 121/165/103 122/166/103 124/22/103 123/18/103
f 123/18/104 124/22/104 126/38/104 125/34/104
f 125/34/105 126/38/105 128/54/105 127/50/105
f 127/50/106 128/54/106 130/70/106 129/66/106
f 129/66/107 130/70/107 132/167/107 131/168/107
f 131/168/108 132/167/108 134/169/108 133/170/108
f 133/170/109 134/169/109 136/171/109 135/172/109
f 135/172/110 136/171/110 138/173/110 137/174/110
f 124/175/84 122/176/84 140/177/84 138/178/84 136/179/84 134/180/84 132/181/84 130/182/84 128/183/84 126/184/84
f 137/174/111 138/173/111 140/185/111 139/186/111
f 139/186/112 140/185/112 122/187/112 121/188/112
f 121/189/81 123/190/81 125/191/81 127/192/81 129/193/81 131/194/81 133/195/81 135/196/81 137/197/81 139/198/81
usemtl trim
f 141/165/113 142/166/113 144/199/113 143/200/113
f 143/200/105 144/199/105 146/201/105 145/202/105
f 145/202/114 146/201/114 148/203/114 147/204/114
f 147/204/115 148/203/115 150/205/115 149/206/115
f 144/207/84 142/208/84 152/209/84 150/210/84 148/211/84 146/212/84
f 149/206/110 150/205/110 152/213/110 151/214/110
f 151/214/116 152/213/116 142/215/116 141/216/116
f 141/217/81 143/218/81 145/219/81 147/220/81 149/221/81 151/222/81
