# Blender 5.1.2
# www.blender.org
mtllib house_small.mtl
o Cube
v -2.500000 0.000000 2.100000
v -2.500000 2.800000 2.100000
v -2.500000 0.000000 -2.100000
v -2.500000 2.800000 -2.100000
v 2.500000 0.000000 2.100000
v 2.500000 2.800000 2.100000
v 2.500000 0.000000 -2.100000
v 2.500000 2.800000 -2.100000
v -0.450000 0.000000 2.170000
v -0.450000 2.100000 2.170000
v -0.450000 0.000000 2.100000
v -0.450000 2.100000 2.100000
v 0.450000 0.000000 2.170000
v 0.450000 2.100000 2.170000
v 0.450000 0.000000 2.100000
v 0.450000 2.100000 2.100000
v -1.860000 1.040000 2.177000
v -1.860000 1.860000 2.177000
v -1.860000 1.040000 2.117000
v -1.860000 1.860000 2.117000
v -1.140000 1.040000 2.177000
v -1.140000 1.860000 2.177000
v -1.140000 1.040000 2.117000
v -1.140000 1.860000 2.117000
v 1.140000 1.040000 2.177000
v 1.140000 1.860000 2.177000
v 1.140000 1.040000 2.117000
v 1.140000 1.860000 2.117000
v 1.860000 1.040000 2.177000
v 1.860000 1.860000 2.177000
v 1.860000 1.040000 2.117000
v 1.860000 1.860000 2.117000
v 1.260000 2.550000 -0.264000
v 1.260000 4.350000 -0.264000
v 1.260000 2.550000 -0.744000
v 1.260000 4.350000 -0.744000
v 1.740000 2.550000 -0.264000
v 1.740000 4.350000 -0.264000
v 1.740000 2.550000 -0.744000
v 1.740000 4.350000 -0.744000
v -2.750000 2.800000 2.350000
v 2.750000 2.800000 2.350000
v 0.000000 4.400000 2.350000
v -2.750000 2.800000 -2.350000
v 2.750000 2.800000 -2.350000
v 0.000000 4.400000 -2.350000
vn -1.0000 -0.0000 -0.0000
vn -0.0000 -0.0000 -1.0000
vn 1.0000 -0.0000 -0.0000
vn -0.0000 -0.0000 1.0000
vn -0.0000 -1.0000 -0.0000
vn -0.0000 1.0000 -0.0000
vn 0.5029 0.8643 -0.0000
vn -0.5029 0.8643 -0.0000
vt 0.375000 0.000000
vt 0.625000 0.000000
vt 0.625000 0.250000
vt 0.375000 0.250000
vt 0.625000 0.500000
vt 0.375000 0.500000
vt 0.625000 0.750000
vt 0.375000 0.750000
vt 0.625000 1.000000
vt 0.375000 1.000000
vt 0.125000 0.500000
vt 0.125000 0.750000
vt 0.875000 0.500000
vt 0.875000 0.750000
vt 0.000000 0.000000
vt 1.000000 0.000000
vt 1.000000 1.000000
vt 0.000000 1.000000
s 0
usemtl wb_wall_cream
f 1/1/1 2/2/1 4/3/1 3/4/1
f 3/4/2 4/3/2 8/5/2 7/6/2
f 7/6/3 8/5/3 6/7/3 5/8/3
f 5/8/4 6/7/4 2/9/4 1/10/4
f 3/11/5 7/6/5 5/8/5 1/12/5
f 8/5/6 4/13/6 2/14/6 6/7/6
usemtl wb_door_brown
f 9/1/1 10/2/1 12/3/1 11/4/1
f 11/4/2 12/3/2 16/5/2 15/6/2
f 15/6/3 16/5/3 14/7/3 13/8/3
f 13/8/4 14/7/4 10/9/4 9/10/4
f 11/11/5 15/6/5 13/8/5 9/12/5
f 16/5/6 12/13/6 10/14/6 14/7/6
usemtl wb_glass_blue
f 17/1/1 18/2/1 20/3/1 19/4/1
f 19/4/2 20/3/2 24/5/2 23/6/2
f 23/6/3 24/5/3 22/7/3 21/8/3
f 21/8/4 22/7/4 18/9/4 17/10/4
f 19/11/5 23/6/5 21/8/5 17/12/5
f 24/5/6 20/13/6 18/14/6 22/7/6
f 25/1/1 26/2/1 28/3/1 27/4/1
f 27/4/2 28/3/2 32/5/2 31/6/2
f 31/6/3 32/5/3 30/7/3 29/8/3
f 29/8/4 30/7/4 26/9/4 25/10/4
f 27/11/5 31/6/5 29/8/5 25/12/5
f 32/5/6 28/13/6 26/14/6 30/7/6
usemtl wb_timber_dark
f 33/1/1 34/2/1 36/3/1 35/4/1
f 35/4/2 36/3/2 40/5/2 39/6/2
f 39/6/3 40/5/3 38/7/3 37/8/3
f 37/8/4 38/7/4 34/9/4 33/10/4
f 35/11/5 39/6/5 37/8/5 33/12/5
f 40/5/6 36/13/6 34/14/6 38/7/6
usemtl wb_roof_red
f 41/15/4 42/16/4 43/17/4
f 46/15/2 45/16/2 44/17/2
f 41/15/5 44/16/5 45/17/5 42/18/5
f 42/15/7 45/16/7 46/17/7 43/18/7
f 43/15/8 46/16/8 44/17/8 41/18/8
