# Blender 5.1.2
# www.blender.org
mtllib inn.mtl
o Cube
v -5.250000 0.000000 3.750000
v -5.250000 6.000000 3.750000
v -5.250000 0.000000 -3.750000
v -5.250000 6.000000 -3.750000
v 5.250000 0.000000 3.750000
v 5.250000 6.000000 3.750000
v 5.250000 0.000000 -3.750000
v 5.250000 6.000000 -3.750000
v -0.450000 0.000000 3.820000
v -0.450000 2.100000 3.820000
v -0.450000 0.000000 3.750000
v -0.450000 2.100000 3.750000
v 0.450000 0.000000 3.820000
v 0.450000 2.100000 3.820000
v 0.450000 0.000000 3.750000
v 0.450000 2.100000 3.750000
v -3.510000 1.040000 3.827000
v -3.510000 1.860000 3.827000
v -3.510000 1.040000 3.767000
v -3.510000 1.860000 3.767000
v -2.790000 1.040000 3.827000
v -2.790000 1.860000 3.827000
v -2.790000 1.040000 3.767000
v -2.790000 1.860000 3.767000
v 2.790000 1.040000 3.827000
v 2.790000 1.860000 3.827000
v 2.790000 1.040000 3.767000
v 2.790000 1.860000 3.767000
v 3.510000 1.040000 3.827000
v 3.510000 1.860000 3.827000
v 3.510000 1.040000 3.767000
v 3.510000 1.860000 3.767000
v -3.280000 4.610000 3.827000
v -3.280000 5.390000 3.827000
v -3.280000 4.610000 3.767000
v -3.280000 5.390000 3.767000
v -2.600000 4.610000 3.827000
v -2.600000 5.390000 3.827000
v -2.600000 4.610000 3.767000
v -2.600000 5.390000 3.767000
v -0.340000 4.610000 3.827000
v -0.340000 5.390000 3.827000
v -0.340000 4.610000 3.767000
v -0.340000 5.390000 3.767000
v 0.340000 4.610000 3.827000
v 0.340000 5.390000 3.827000
v 0.340000 4.610000 3.767000
v 0.340000 5.390000 3.767000
v 2.600000 4.610000 3.827000
v 2.600000 5.390000 3.827000
v 2.600000 4.610000 3.767000
v 2.600000 5.390000 3.767000
v 3.280000 4.610000 3.827000
v 3.280000 5.390000 3.827000
v 3.280000 4.610000 3.767000
v 3.280000 5.390000 3.767000
v 2.910000 5.750000 -0.660000
v 2.910000 7.550000 -0.660000
v 2.910000 5.750000 -1.140000
v 2.910000 7.550000 -1.140000
v 3.390000 5.750000 -0.660000
v 3.390000 7.550000 -0.660000
v 3.390000 5.750000 -1.140000
v 3.390000 7.550000 -1.140000
v -5.650000 6.000000 4.150001
v 5.650000 6.000000 4.150001
v 0.000000 8.500000 4.150001
v -5.650000 6.000000 -4.150001
v 5.650000 6.000000 -4.150001
v 0.000000 8.500000 -4.150001
v 5.540000 2.450000 3.900000
v 5.540000 3.550000 3.900000
v 5.540000 2.450000 2.800000
v 5.540000 3.550000 2.800000
v 5.660000 2.450000 3.900000
v 5.660000 3.550000 3.900000
v 5.660000 2.450000 2.800000
v 5.660000 3.550000 2.800000
v 5.540000 3.500000 3.410000
v 5.540000 4.600000 3.410000
v 5.540000 3.500000 3.290000
v 5.540000 4.600000 3.290000
v 5.660000 3.500000 3.410000
v 5.660000 4.600000 3.410000
v 5.660000 3.500000 3.290000
v 5.660000 4.600000 3.290000
vn -1.0000 -0.0000 -0.0000
vn -0.0000 -0.0000 -1.0000
vn 1.0000 -0.0000 -0.0000
vn -0.0000 -0.0000 1.0000
vn -0.0000 -1.0000 -0.0000
vn -0.0000 1.0000 -0.0000
vn 0.4046 0.9145 -0.0000
vn -0.4046 0.9145 -0.0000
vt 0.375000 0.000000
vt 0.625000 0.000000
vt 0.625000 0.250000
vt 0.375000 0.250000
vt 0.625000 0.500000
vt 0.375000 0.500000
vt 0.625000 0.750000
vt 0.375000 0.750000
vt 0.625000 1.000000
vt 0.375000 1.000000
vt 0.125000 0.500000
vt 0.125000 0.750000
vt 0.875000 0.500000
vt 0.875000 0.750000
vt 0.000000 0.000000
vt 1.000000 0.000000
vt 1.000000 1.000000
vt 0.000000 1.000000
s 0
usemtl wb_wall_cream
f 1/1/1 2/2/1 4/3/1 3/4/1
f 3/4/2 4/3/2 8/5/2 7/6/2
f 7/6/3 8/5/3 6/7/3 5/8/3
f 5/8/4 6/7/4 2/9/4 1/10/4
f 3/11/5 7/6/5 5/8/5 1/12/5
f 8/5/6 4/13/6 2/14/6 6/7/6
usemtl wb_door_brown
f 9/1/1 10/2/1 12/3/1 11/4/1
f 11/4/2 12/3/2 16/5/2 15/6/2
f 15/6/3 16/5/3 14/7/3 13/8/3
f 13/8/4 14/7/4 10/9/4 9/10/4
f 11/11/5 15/6/5 13/8/5 9/12/5
f 16/5/6 12/13/6 10/14/6 14/7/6
usemtl wb_glass_blue
f 17/1/1 18/2/1 20/3/1 19/4/1
f 19/4/2 20/3/2 24/5/2 23/6/2
f 23/6/3 24/5/3 22/7/3 21/8/3
f 21/8/4 22/7/4 18/9/4 17/10/4
f 19/11/5 23/6/5 21/8/5 17/12/5
f 24/5/6 20/13/6 18/14/6 22/7/6
f 25/1/1 26/2/1 28/3/1 27/4/1
f 27/4/2 28/3/2 32/5/2 31/6/2
f 31/6/3 32/5/3 30/7/3 29/8/3
f 29/8/4 30/7/4 26/9/4 25/10/4
f 27/11/5 31/6/5 29/8/5 25/12/5
f 32/5/6 28/13/6 26/14/6 30/7/6
f 33/1/1 34/2/1 36/3/1 35/4/1
f 35/4/2 36/3/2 40/5/2 39/6/2
f 39/6/3 40/5/3 38/7/3 37/8/3
f 37/8/4 38/7/4 34/9/4 33/10/4
f 35/11/5 39/6/5 37/8/5 33/12/5
f 40/5/6 36/13/6 34/14/6 38/7/6
f 41/1/1 42/2/1 44/3/1 43/4/1
f 43/4/2 44/3/2 48/5/2 47/6/2
f 47/6/3 48/5/3 46/7/3 45/8/3
f 45/8/4 46/7/4 42/9/4 41/10/4
f 43/11/5 47/6/5 45/8/5 41/12/5
f 48/5/6 44/13/6 42/14/6 46/7/6
f 49/1/1 50/2/1 52/3/1 51/4/1
f 51/4/2 52/3/2 56/5/2 55/6/2
f 55/6/3 56/5/3 54/7/3 53/8/3
f 53/8/4 54/7/4 50/9/4 49/10/4
f 51/11/5 55/6/5 53/8/5 49/12/5
f 56/5/6 52/13/6 50/14/6 54/7/6
usemtl wb_timber_dark
f 57/1/1 58/2/1 60/3/1 59/4/1
f 59/4/2 60/3/2 64/5/2 63/6/2
f 63/6/3 64/5/3 62/7/3 61/8/3
f 61/8/4 62/7/4 58/9/4 57/10/4
f 59/11/5 63/6/5 61/8/5 57/12/5
f 64/5/6 60/13/6 58/14/6 62/7/6
f 79/1/1 80/2/1 82/3/1 81/4/1
f 81/4/2 82/3/2 86/5/2 85/6/2
f 85/6/3 86/5/3 84/7/3 83/8/3
f 83/8/4 84/7/4 80/9/4 79/10/4
f 81/11/5 85/6/5 83/8/5 79/12/5
f 86/5/6 82/13/6 80/14/6 84/7/6
usemtl wb_roof_thatch
f 65/15/4 66/16/4 67/17/4
f 70/15/2 69/16/2 68/17/2
f 65/15/5 68/16/5 69/17/5 66/18/5
f 66/15/7 69/16/7 70/17/7 67/18/7
f 67/15/8 70/16/8 68/17/8 65/18/8
usemtl wb_awning_red
f 71/1/1 72/2/1 74/3/1 73/4/1
f 73/4/2 74/3/2 78/5/2 77/6/2
f 77/6/3 78/5/3 76/7/3 75/8/3
f 75/8/4 76/7/4 72/9/4 71/10/4
f 73/11/5 77/6/5 75/8/5 71/12/5
f 78/5/6 74/13/6 72/14/6 76/7/6
