# Blender 5.1.2
# www.blender.org
mtllib shop.mtl
o Cube
v -3.500000 0.000000 2.750000
v -3.500000 3.500000 2.750000
v -3.500000 0.000000 -2.750000
v -3.500000 3.500000 -2.750000
v 3.500000 0.000000 2.750000
v 3.500000 3.500000 2.750000
v 3.500000 0.000000 -2.750000
v 3.500000 3.500000 -2.750000
v -0.450000 0.000000 2.820000
v -0.450000 2.100000 2.820000
v -0.450000 0.000000 2.750000
v -0.450000 2.100000 2.750000
v 0.450000 0.000000 2.820000
v 0.450000 2.100000 2.820000
v 0.450000 0.000000 2.750000
v 0.450000 2.100000 2.750000
v -2.870000 0.525000 2.827000
v -2.870000 1.975000 2.827000
v -2.870000 0.525000 2.767000
v -2.870000 1.975000 2.767000
v -0.910000 0.525000 2.827000
v -0.910000 1.975000 2.827000
v -0.910000 0.525000 2.767000
v -0.910000 1.975000 2.767000
v 0.910000 0.525000 2.827000
v 0.910000 1.975000 2.827000
v 0.910000 0.525000 2.767000
v 0.910000 1.975000 2.767000
v 2.870000 0.525000 2.827000
v 2.870000 1.975000 2.827000
v 2.870000 0.525000 2.767000
v 2.870000 1.975000 2.767000
v -3.700000 3.500000 2.950000
v -3.700000 4.100000 2.950000
v -3.700000 3.500000 -2.950000
v -3.700000 4.100000 -2.950000
v 3.700000 3.500000 2.950000
v 3.700000 4.100000 2.950000
v 3.700000 3.500000 -2.950000
v 3.700000 4.100000 -2.950000
v -2.870000 2.335012 4.153740
v -2.870000 2.552871 4.123122
v -2.870000 2.147129 2.816878
v -2.870000 2.364988 2.786260
v 2.870000 2.335012 4.153740
v 2.870000 2.552871 4.123122
v 2.870000 2.147129 2.816878
v 2.870000 2.364988 2.786260
vn -1.0000 -0.0000 -0.0000
vn -0.0000 -0.0000 -1.0000
vn 1.0000 -0.0000 -0.0000
vn -0.0000 -0.0000 1.0000
vn -0.0000 -1.0000 -0.0000
vn -0.0000 1.0000 -0.0000
vn -0.0000 -0.1392 -0.9903
vn -0.0000 0.1392 0.9903
vn -0.0000 -0.9903 0.1392
vn -0.0000 0.9903 -0.1392
vt 0.375000 0.000000
vt 0.625000 0.000000
vt 0.625000 0.250000
vt 0.375000 0.250000
vt 0.625000 0.500000
vt 0.375000 0.500000
vt 0.625000 0.750000
vt 0.375000 0.750000
vt 0.625000 1.000000
vt 0.375000 1.000000
vt 0.125000 0.500000
vt 0.125000 0.750000
vt 0.875000 0.500000
vt 0.875000 0.750000
s 0
usemtl wb_wall_red
f 1/1/1 2/2/1 4/3/1 3/4/1
f 3/4/2 4/3/2 8/5/2 7/6/2
f 7/6/3 8/5/3 6/7/3 5/8/3
f 5/8/4 6/7/4 2/9/4 1/10/4
f 3/11/5 7/6/5 5/8/5 1/12/5
f 8/5/6 4/13/6 2/14/6 6/7/6
usemtl wb_door_brown
f 9/1/1 10/2/1 12/3/1 11/4/1
f 11/4/2 12/3/2 16/5/2 15/6/2
f 15/6/3 16/5/3 14/7/3 13/8/3
f 13/8/4 14/7/4 10/9/4 9/10/4
f 11/11/5 15/6/5 13/8/5 9/12/5
f 16/5/6 12/13/6 10/14/6 14/7/6
usemtl wb_glass_blue
f 17/1/1 18/2/1 20/3/1 19/4/1
f 19/4/2 20/3/2 24/5/2 23/6/2
f 23/6/3 24/5/3 22/7/3 21/8/3
f 21/8/4 22/7/4 18/9/4 17/10/4
f 19/11/5 23/6/5 21/8/5 17/12/5
f 24/5/6 20/13/6 18/14/6 22/7/6
f 25/1/1 26/2/1 28/3/1 27/4/1
f 27/4/2 28/3/2 32/5/2 31/6/2
f 31/6/3 32/5/3 30/7/3 29/8/3
f 29/8/4 30/7/4 26/9/4 25/10/4
f 27/11/5 31/6/5 29/8/5 25/12/5
f 32/5/6 28/13/6 26/14/6 30/7/6
usemtl wb_roof_slate
f 33/1/1 34/2/1 36/3/1 35/4/1
f 35/4/2 36/3/2 40/5/2 39/6/2
f 39/6/3 40/5/3 38/7/3 37/8/3
f 37/8/4 38/7/4 34/9/4 33/10/4
f 35/11/5 39/6/5 37/8/5 33/12/5
f 40/5/6 36/13/6 34/14/6 38/7/6
usemtl wb_awning_red
f 41/1/1 42/2/1 44/3/1 43/4/1
f 43/4/7 44/3/7 48/5/7 47/6/7
f 47/6/3 48/5/3 46/7/3 45/8/3
f 45/8/8 46/7/8 42/9/8 41/10/8
f 43/11/9 47/6/9 45/8/9 41/12/9
f 48/5/10 44/13/10 42/14/10 46/7/10
