# Blender 5.1.2
# www.blender.org
mtllib workshop.mtl
o Cube
v -4.250000 0.000000 3.500000
v -4.250000 3.600000 3.500000
v -4.250000 0.000000 -3.500000
v -4.250000 3.600000 -3.500000
v 4.250000 0.000000 3.500000
v 4.250000 3.600000 3.500000
v 4.250000 0.000000 -3.500000
v 4.250000 3.600000 -3.500000
v -4.500000 3.600000 3.750000
v 4.500000 3.600000 3.750000
v 0.000000 5.600000 3.750000
v -4.500000 3.600000 -3.750000
v 4.500000 3.600000 -3.750000
v 0.000000 5.600000 -3.750000
v -3.600000 0.000000 3.580000
v -3.600000 3.100000 3.580000
v -3.600000 0.000000 3.500000
v -3.600000 3.100000 3.500000
v -0.800000 0.000000 3.580000
v -0.800000 3.100000 3.580000
v -0.800000 0.000000 3.500000
v -0.800000 3.100000 3.500000
v 1.450000 0.925000 3.580000
v 1.450000 2.175000 3.580000
v 1.450000 0.925000 3.500000
v 1.450000 2.175000 3.500000
v 2.950000 0.925000 3.580000
v 2.950000 2.175000 3.580000
v 2.950000 0.925000 3.500000
v 2.950000 2.175000 3.500000
v 2.480000 3.250000 -0.375000
v 2.480000 5.350000 -0.375000
v 2.480000 3.250000 -1.025000
v 2.480000 5.350000 -1.025000
v 3.130000 3.250000 -0.375000
v 3.130000 5.350000 -0.375000
v 3.130000 3.250000 -1.025000
v 3.130000 5.350000 -1.025000
vn -1.0000 -0.0000 -0.0000
vn -0.0000 -0.0000 -1.0000
vn 1.0000 -0.0000 -0.0000
vn -0.0000 -0.0000 1.0000
vn -0.0000 -1.0000 -0.0000
vn -0.0000 1.0000 -0.0000
vn 0.4061 0.9138 -0.0000
vn -0.4061 0.9138 -0.0000
vt 0.375000 0.000000
vt 0.625000 0.000000
vt 0.625000 0.250000
vt 0.375000 0.250000
vt 0.625000 0.500000
vt 0.375000 0.500000
vt 0.625000 0.750000
vt 0.375000 0.750000
vt 0.625000 1.000000
vt 0.375000 1.000000
vt 0.125000 0.500000
vt 0.125000 0.750000
vt 0.875000 0.500000
vt 0.875000 0.750000
vt 0.000000 0.000000
vt 1.000000 0.000000
vt 1.000000 1.000000
vt 0.000000 1.000000
s 0
usemtl wb_wall_ochre
f 1/1/1 2/2/1 4/3/1 3/4/1
f 3/4/2 4/3/2 8/5/2 7/6/2
f 7/6/3 8/5/3 6/7/3 5/8/3
f 5/8/4 6/7/4 2/9/4 1/10/4
f 3/11/5 7/6/5 5/8/5 1/12/5
f 8/5/6 4/13/6 2/14/6 6/7/6
usemtl wb_roof_slate
f 9/15/4 10/16/4 11/17/4
f 14/15/2 13/16/2 12/17/2
f 9/15/5 12/16/5 13/17/5 10/18/5
f 10/15/7 13/16/7 14/17/7 11/18/7
f 11/15/8 14/16/8 12/17/8 9/18/8
usemtl wb_door_brown
f 15/1/1 16/2/1 18/3/1 17/4/1
f 17/4/2 18/3/2 22/5/2 21/6/2
f 21/6/3 22/5/3 20/7/3 19/8/3
f 19/8/4 20/7/4 16/9/4 15/10/4
f 17/11/5 21/6/5 19/8/5 15/12/5
f 22/5/6 18/13/6 16/14/6 20/7/6
usemtl wb_glass_blue
f 23/1/1 24/2/1 26/3/1 25/4/1
f 25/4/2 26/3/2 30/5/2 29/6/2
f 29/6/3 30/5/3 28/7/3 27/8/3
f 27/8/4 28/7/4 24/9/4 23/10/4
f 25/11/5 29/6/5 27/8/5 23/12/5
f 30/5/6 26/13/6 24/14/6 28/7/6
usemtl wb_timber_dark
f 31/1/1 32/2/1 34/3/1 33/4/1
f 33/4/2 34/3/2 38/5/2 37/6/2
f 37/6/3 38/5/3 36/7/3 35/8/3
f 35/8/4 36/7/4 32/9/4 31/10/4
f 33/11/5 37/6/5 35/8/5 31/12/5
f 38/5/6 34/13/6 32/14/6 36/7/6
