# Blender 5.1.2
# www.blender.org
mtllib cone.mtl
o Cone
v 0.000000 0.060000 -0.155000
v 0.000000 0.340000 -0.115000
v 0.059316 0.060000 -0.143201
v 0.044009 0.340000 -0.106246
v 0.109602 0.060000 -0.109602
v 0.081317 0.340000 -0.081317
v 0.143201 0.060000 -0.059316
v 0.106246 0.340000 -0.044009
v 0.155000 0.060000 0.000000
v 0.115000 0.340000 0.000000
v 0.143201 0.060000 0.059316
v 0.106246 0.340000 0.044009
v 0.109602 0.060000 0.109602
v 0.081317 0.340000 0.081317
v 0.059316 0.060000 0.143201
v 0.044009 0.340000 0.106246
v 0.000000 0.060000 0.155000
v 0.000000 0.340000 0.115000
v -0.059316 0.060000 0.143201
v -0.044009 0.340000 0.106246
v -0.109602 0.060000 0.109602
v -0.081317 0.340000 0.081317
v -0.143201 0.060000 0.059316
v -0.106246 0.340000 0.044009
v -0.155000 0.060000 0.000000
v -0.115000 0.340000 0.000000
v -0.143201 0.060000 -0.059316
v -0.106246 0.340000 -0.044009
v -0.109602 0.060000 -0.109602
v -0.081317 0.340000 -0.081317
v -0.059316 0.060000 -0.143201
v -0.044009 0.340000 -0.106246
v -0.170000 0.000000 0.170000
v -0.170000 0.060000 0.170000
v -0.170000 0.000000 -0.170000
v -0.170000 0.060000 -0.170000
v 0.170000 0.000000 0.170000
v 0.170000 0.060000 0.170000
v 0.170000 0.000000 -0.170000
v 0.170000 0.060000 -0.170000
v 0.000000 0.340000 -0.115000
v 0.000000 0.460000 -0.098000
v 0.044009 0.340000 -0.106246
v 0.037503 0.460000 -0.090540
v 0.081317 0.340000 -0.081317
v 0.069296 0.460000 -0.069296
v 0.106246 0.340000 -0.044009
v 0.090540 0.460000 -0.037503
v 0.115000 0.340000 0.000000
v 0.098000 0.460000 0.000000
v 0.106246 0.340000 0.044009
v 0.090540 0.460000 0.037503
v 0.081317 0.340000 0.081317
v 0.069296 0.460000 0.069296
v 0.044009 0.340000 0.106246
v 0.037503 0.460000 0.090540
v 0.000000 0.340000 0.115000
v 0.000000 0.460000 0.098000
v -0.044009 0.340000 0.106246
v -0.037503 0.460000 0.090540
v -0.081317 0.340000 0.081317
v -0.069296 0.460000 0.069296
v -0.106246 0.340000 0.044009
v -0.090540 0.460000 0.037503
v -0.115000 0.340000 0.000000
v -0.098000 0.460000 0.000000
v -0.106246 0.340000 -0.044009
v -0.090540 0.460000 -0.037503
v -0.081317 0.340000 -0.081317
v -0.069296 0.460000 -0.069296
v -0.044009 0.340000 -0.106246
v -0.037503 0.460000 -0.090540
v 0.000000 0.460000 -0.098000
v 0.000000 0.740000 -0.020000
v 0.037503 0.460000 -0.090540
v 0.007654 0.740000 -0.018478
v 0.069296 0.460000 -0.069296
v 0.014142 0.740000 -0.014142
v 0.090540 0.460000 -0.037503
v 0.018478 0.740000 -0.007654
v 0.098000 0.460000 0.000000
v 0.020000 0.740000 0.000000
v 0.090540 0.460000 0.037503
v 0.018478 0.740000 0.007654
v 0.069296 0.460000 0.069296
v 0.014142 0.740000 0.014142
v 0.037503 0.460000 0.090540
v 0.007654 0.740000 0.018478
v 0.000000 0.460000 0.098000
v 0.000000 0.740000 0.020000
v -0.037503 0.460000 0.090540
v -0.007654 0.740000 0.018478
v -0.069296 0.460000 0.069296
v -0.014142 0.740000 0.014142
v -0.090540 0.460000 0.037503
v -0.018478 0.740000 0.007654
v -0.098000 0.460000 0.000000
v -0.020000 0.740000 0.000000
v -0.090540 0.460000 -0.037503
v -0.018478 0.740000 -0.007654
v -0.069296 0.460000 -0.069296
v -0.014142 0.740000 -0.014142
v -0.037503 0.460000 -0.090540
v -0.007654 0.740000 -0.018478
vn 0.1932 0.1388 -0.9713
vn 0.5502 0.1388 -0.8234
vn 0.8234 0.1388 -0.5502
vn 0.9713 0.1388 -0.1932
vn 0.9713 0.1388 0.1932
vn 0.8234 0.1388 0.5502
vn 0.5502 0.1388 0.8234
vn 0.1932 0.1388 0.9713
vn -0.1932 0.1388 0.9713
vn -0.5502 0.1388 0.8234
vn -0.8234 0.1388 0.5502
vn -0.9713 0.1388 0.1932
vn -0.9713 0.1388 -0.1932
vn -0.8234 0.1388 -0.5502
vn -0.0000 1.0000 -0.0000
vn -0.5502 0.1388 -0.8234
vn -0.1932 0.1388 -0.9713
vn -0.0000 -1.0000 -0.0000
vn -1.0000 -0.0000 -0.0000
vn -0.0000 -0.0000 -1.0000
vn 1.0000 -0.0000 -0.0000
vn -0.0000 -0.0000 1.0000
vn 0.1932 0.1376 -0.9715
vn 0.5503 0.1376 -0.8236
vn 0.8236 0.1376 -0.5503
vn 0.9715 0.1376 -0.1932
vn 0.9715 0.1376 0.1932
vn 0.8236 0.1376 0.5503
vn 0.5503 0.1376 0.8236
vn 0.1932 0.1376 0.9715
vn -0.1932 0.1376 0.9715
vn -0.5503 0.1376 0.8236
vn -0.8236 0.1376 0.5503
vn -0.9715 0.1376 0.1932
vn -0.9715 0.1376 -0.1932
vn -0.8236 0.1376 -0.5503
vn -0.5503 0.1376 -0.8236
vn -0.1932 0.1376 -0.9715
vn 0.1882 0.2636 -0.9461
vn 0.5359 0.2636 -0.8021
vn 0.8021 0.2636 -0.5359
vn 0.9461 0.2636 -0.1882
vn 0.9461 0.2636 0.1882
vn 0.8021 0.2636 0.5359
vn 0.5359 0.2636 0.8021
vn 0.1882 0.2636 0.9461
vn -0.1882 0.2636 0.9461
vn -0.5359 0.2636 0.8021
vn -0.8021 0.2636 0.5359
vn -0.9461 0.2636 0.1882
vn -0.9461 0.2636 -0.1882
vn -0.8021 0.2636 -0.5359
vn -0.5359 0.2636 -0.8021
vn -0.1882 0.2636 -0.9461
vt 1.000000 0.500000
vt 1.000000 1.000000
vt 0.937500 1.000000
vt 0.937500 0.500000
vt 0.875000 1.000000
vt 0.875000 0.500000
vt 0.812500 1.000000
vt 0.812500 0.500000
vt 0.750000 1.000000
vt 0.750000 0.500000
vt 0.687500 1.000000
vt 0.687500 0.500000
vt 0.625000 1.000000
vt 0.625000 0.500000
vt 0.562500 1.000000
vt 0.562500 0.500000
vt 0.500000 1.000000
vt 0.500000 0.500000
vt 0.437500 1.000000
vt 0.437500 0.500000
vt 0.375000 1.000000
vt 0.375000 0.500000
vt 0.312500 1.000000
vt 0.312500 0.500000
vt 0.250000 1.000000
vt 0.250000 0.500000
vt 0.187500 1.000000
vt 0.187500 0.500000
vt 0.125000 1.000000
vt 0.125000 0.500000
vt 0.341844 0.471731
vt 0.250000 0.490000
vt 0.158156 0.471731
vt 0.080294 0.419706
vt 0.028269 0.341844
vt 0.010000 0.250000
vt 0.028269 0.158156
vt 0.080294 0.080294
vt 0.158156 0.028269
vt 0.250000 0.010000
vt 0.341844 0.028269
vt 0.419706 0.080294
vt 0.471731 0.158156
vt 0.490000 0.250000
vt 0.471731 0.341844
vt 0.419706 0.419706
vt 0.062500 1.000000
vt 0.062500 0.500000
vt 0.000000 1.000000
vt 0.000000 0.500000
vt 0.750000 0.490000
vt 0.841844 0.471731
vt 0.919706 0.419706
vt 0.971731 0.341844
vt 0.990000 0.250000
vt 0.971731 0.158156
vt 0.919706 0.080294
vt 0.841844 0.028269
vt 0.750000 0.010000
vt 0.658156 0.028269
vt 0.580294 0.080294
vt 0.528269 0.158156
vt 0.510000 0.250000
vt 0.528269 0.341844
vt 0.580294 0.419706
vt 0.658156 0.471731
vt 0.375000 0.000000
vt 0.625000 0.000000
vt 0.625000 0.250000
vt 0.375000 0.250000
vt 0.625000 0.750000
vt 0.375000 0.750000
vt 0.125000 0.750000
vt 0.875000 0.750000
vt 0.028269 0.341844
vt 0.028269 0.158156
vt 0.158156 0.028269
vt 0.341844 0.028269
vt 0.919706 0.080294
vt 0.841844 0.028269
vt 0.658156 0.028269
vt 0.580294 0.080294
s 0
usemtl cone_orange
f 1/1/1 2/2/1 4/3/1 3/4/1
f 3/4/2 4/3/2 6/5/2 5/6/2
f 5/6/3 6/5/3 8/7/3 7/8/3
f 7/8/4 8/7/4 10/9/4 9/10/4
f 9/10/5 10/9/5 12/11/5 11/12/5
f 11/12/6 12/11/6 14/13/6 13/14/6
f 13/14/7 14/13/7 16/15/7 15/16/7
f 15/16/8 16/15/8 18/17/8 17/18/8
f 17/18/9 18/17/9 20/19/9 19/20/9
f 19/20/10 20/19/10 22/21/10 21/22/10
f 21/22/11 22/21/11 24/23/11 23/24/11
f 23/24/12 24/23/12 26/25/12 25/26/12
f 25/26/13 26/25/13 28/27/13 27/28/13
f 27/28/14 28/27/14 30/29/14 29/30/14
f 4/31/15 2/32/15 32/33/15 30/34/15 28/35/15 26/36/15 24/37/15 22/38/15 20/39/15 18/40/15 16/41/15 14/42/15 12/43/15 10/44/15 8/45/15 6/46/15
f 29/30/16 30/29/16 32/47/16 31/48/16
f 31/48/17 32/47/17 2/49/17 1/50/17
f 1/51/18 3/52/18 5/53/18 7/54/18 9/55/18 11/56/18 13/57/18 15/58/18 17/59/18 19/60/18 21/61/18 23/62/18 25/63/18 27/64/18 29/65/18 31/66/18
f 33/67/19 34/68/19 36/69/19 35/70/19
f 35/70/20 36/69/20 40/14/20 39/22/20
f 39/22/21 40/14/21 38/71/21 37/72/21
f 37/72/22 38/71/22 34/13/22 33/21/22
f 35/30/18 39/22/18 37/72/18 33/73/18
f 40/14/15 36/6/15 34/74/15 38/71/15
f 73/1/39 74/2/39 76/3/39 75/4/39
f 75/4/40 76/3/40 78/5/40 77/6/40
f 77/6/41 78/5/41 80/7/41 79/8/41
f 79/8/42 80/7/42 82/9/42 81/10/42
f 81/10/43 82/9/43 84/11/43 83/12/43
f 83/12/44 84/11/44 86/13/44 85/14/44
f 85/14/45 86/13/45 88/15/45 87/16/45
f 87/16/46 88/15/46 90/17/46 89/18/46
f 89/18/47 90/17/47 92/19/47 91/20/47
f 91/20/48 92/19/48 94/21/48 93/22/48
f 93/22/49 94/21/49 96/23/49 95/24/49
f 95/24/50 96/23/50 98/25/50 97/26/50
f 97/26/51 98/25/51 100/27/51 99/28/51
f 99/28/52 100/27/52 102/29/52 101/30/52
f 76/31/15 74/32/15 104/33/15 102/34/15 100/75/15 98/36/15 96/76/15 94/38/15 92/77/15 90/40/15 88/78/15 86/42/15 84/43/15 82/44/15 80/45/15 78/46/15
f 101/30/53 102/29/53 104/47/53 103/48/53
f 103/48/54 104/47/54 74/49/54 73/50/54
f 73/51/18 75/52/18 77/53/18 79/54/18 81/55/18 83/56/18 85/79/18 87/58/18 89/59/18 91/60/18 93/82/18 95/62/18 97/63/18 99/64/18 101/65/18 103/66/18
usemtl cone_white
f 41/1/23 42/2/23 44/3/23 43/4/23
f 43/4/24 44/3/24 46/5/24 45/6/24
f 45/6/25 46/5/25 48/7/25 47/8/25
f 47/8/26 48/7/26 50/9/26 49/10/26
f 49/10/27 50/9/27 52/11/27 51/12/27
f 51/12/28 52/11/28 54/13/28 53/14/28
f 53/14/29 54/13/29 56/15/29 55/16/29
f 55/16/30 56/15/30 58/17/30 57/18/30
f 57/18/31 58/17/31 60/19/31 59/20/31
f 59/20/32 60/19/32 62/21/32 61/22/32
f 61/22/33 62/21/33 64/23/33 63/24/33
f 63/24/34 64/23/34 66/25/34 65/26/34
f 65/26/35 66/25/35 68/27/35 67/28/35
f 67/28/36 68/27/36 70/29/36 69/30/36
f 44/31/15 42/32/15 72/33/15 70/34/15 68/75/15 66/36/15 64/76/15 62/38/15 60/77/15 58/40/15 56/78/15 54/42/15 52/43/15 50/44/15 48/45/15 46/46/15
f 69/30/37 70/29/37 72/47/37 71/48/37
f 71/48/38 72/47/38 42/49/38 41/50/38
f 41/51/18 43/52/18 45/53/18 47/54/18 49/55/18 51/56/18 53/79/18 55/80/18 57/59/18 59/81/18 61/82/18 63/62/18 65/63/18 67/64/18 69/65/18 71/66/18
