# Blender 5.1.2
# www.blender.org
mtllib highrise_b.mtl
o Cone
v 2.040000 19.799999 -1.100000
v 2.040000 22.200001 -1.100000
v 2.590000 19.799999 -0.952628
v 2.590000 22.200001 -0.952628
v 2.992628 19.799999 -0.550000
v 2.992628 22.200001 -0.550000
v 3.140000 19.799999 0.000000
v 3.140000 22.200001 0.000000
v 2.992628 19.799999 0.550000
v 2.992628 22.200001 0.550000
v 2.590000 19.799999 0.952628
v 2.590000 22.200001 0.952628
v 2.040000 19.799999 1.100000
v 2.040000 22.200001 1.100000
v 1.490000 19.799999 0.952628
v 1.490000 22.200001 0.952628
v 1.087372 19.799999 0.550000
v 1.087372 22.200001 0.550000
v 0.940000 19.799999 0.000000
v 0.940000 22.200001 0.000000
v 1.087372 19.799999 -0.550000
v 1.087372 22.200001 -0.550000
v 1.490000 19.799999 -0.952628
v 1.490000 22.200001 -0.952628
v -6.000000 0.000000 6.000000
v -6.000000 19.799999 6.000000
v -6.000000 0.000000 -6.000000
v -6.000000 19.799999 -6.000000
v 6.000000 0.000000 6.000000
v 6.000000 19.799999 6.000000
v 6.000000 0.000000 -6.000000
v 6.000000 19.799999 -6.000000
v 6.000000 3.927000 5.400000
v 6.000000 5.973001 5.400000
v 6.000000 3.927000 -5.400000
v 6.000000 5.973001 -5.400000
v 6.050000 3.927000 5.400000
v 6.050000 5.973001 5.400000
v 6.050000 3.927000 -5.400000
v 6.050000 5.973001 -5.400000
v -6.050000 3.927000 5.400000
v -6.050000 5.973001 5.400000
v -6.050000 3.927000 -5.400000
v -6.050000 5.973001 -5.400000
v -6.000001 3.927000 5.400000
v -6.000001 5.973001 5.400000
v -6.000001 3.927000 -5.400000
v -6.000001 5.973001 -5.400000
v -5.400000 3.927000 -6.000000
v -5.400000 5.973001 -6.000000
v -5.400000 3.927000 -6.050000
v -5.400000 5.973001 -6.050000
v 5.400000 3.927000 -6.000000
v 5.400000 5.973001 -6.000000
v 5.400000 3.927000 -6.050000
v 5.400000 5.973001 -6.050000
v -5.400000 3.927000 6.050000
v -5.400000 5.973001 6.050000
v -5.400000 3.927000 6.000000
v -5.400000 5.973001 6.000000
v 5.400000 3.927000 6.050000
v 5.400000 5.973001 6.050000
v 5.400000 3.927000 6.000000
v 5.400000 5.973001 6.000000
v 6.000000 7.227000 5.400000
v 6.000000 9.273000 5.400000
v 6.000000 7.227000 -5.400000
v 6.000000 9.273000 -5.400000
v 6.050000 7.227000 5.400000
v 6.050000 9.273000 5.400000
v 6.050000 7.227000 -5.400000
v 6.050000 9.273000 -5.400000
v -6.050000 7.227000 5.400000
v -6.050000 9.273000 5.400000
v -6.050000 7.227000 -5.400000
v -6.050000 9.273000 -5.400000
v -6.000001 7.227000 5.400000
v -6.000001 9.273000 5.400000
v -6.000001 7.227000 -5.400000
v -6.000001 9.273000 -5.400000
v -5.400000 7.227000 -6.000000
v -5.400000 9.273000 -6.000000
v -5.400000 7.227000 -6.050000
v -5.400000 9.273000 -6.050000
v 5.400000 7.227000 -6.000000
v 5.400000 9.273000 -6.000000
v 5.400000 7.227000 -6.050000
v 5.400000 9.273000 -6.050000
v -5.400000 7.227000 6.050000
v -5.400000 9.273000 6.050000
v -5.400000 7.227000 6.000000
v -5.400000 9.273000 6.000000
v 5.400000 7.227000 6.050000
v 5.400000 9.273000 6.050000
v 5.400000 7.227000 6.000000
v 5.400000 9.273000 6.000000
v 6.000000 10.527000 5.400000
v 6.000000 12.573000 5.400000
v 6.000000 10.527000 -5.400000
v 6.000000 12.573000 -5.400000
v 6.050000 10.527000 5.400000
v 6.050000 12.573000 5.400000
v 6.050000 10.527000 -5.400000
v 6.050000 12.573000 -5.400000
v -6.050000 10.527000 5.400000
v -6.050000 12.573000 5.400000
v -6.050000 10.527000 -5.400000
v -6.050000 12.573000 -5.400000
v -6.000001 10.527000 5.400000
v -6.000001 12.573000 5.400000
v -6.000001 10.527000 -5.400000
v -6.000001 12.573000 -5.400000
v -5.400000 10.527000 -6.000000
v -5.400000 12.573000 -6.000000
v -5.400000 10.527000 -6.050000
v -5.400000 12.573000 -6.050000
v 5.400000 10.527000 -6.000000
v 5.400000 12.573000 -6.000000
v 5.400000 10.527000 -6.050000
v 5.400000 12.573000 -6.050000
v -5.400000 10.527000 6.050000
v -5.400000 12.573000 6.050000
v -5.400000 10.527000 6.000000
v -5.400000 12.573000 6.000000
v 5.400000 10.527000 6.050000
v 5.400000 12.573000 6.050000
v 5.400000 10.527000 6.000000
v 5.400000 12.573000 6.000000
v 6.000000 13.827001 5.400000
v 6.000000 15.873000 5.400000
v 6.000000 13.827001 -5.400000
v 6.000000 15.873000 -5.400000
v 6.050000 13.827001 5.400000
v 6.050000 15.873000 5.400000
v 6.050000 13.827001 -5.400000
v 6.050000 15.873000 -5.400000
v -6.050000 13.827001 5.400000
v -6.050000 15.873000 5.400000
v -6.050000 13.827001 -5.400000
v -6.050000 15.873000 -5.400000
v -6.000001 13.827001 5.400000
v -6.000001 15.873000 5.400000
v -6.000001 13.827001 -5.400000
v -6.000001 15.873000 -5.400000
v -5.400000 13.827001 -6.000000
v -5.400000 15.873000 -6.000000
v -5.400000 13.827001 -6.050000
v -5.400000 15.873000 -6.050000
v 5.400000 13.827001 -6.000000
v 5.400000 15.873000 -6.000000
v 5.400000 13.827001 -6.050000
v 5.400000 15.873000 -6.050000
v -5.400000 13.827001 6.050000
v -5.400000 15.873000 6.050000
v -5.400000 13.827001 6.000000
v -5.400000 15.873000 6.000000
v 5.400000 13.827001 6.050000
v 5.400000 15.873000 6.050000
v 5.400000 13.827001 6.000000
v 5.400000 15.873000 6.000000
v 6.000000 17.126999 5.400000
v 6.000000 19.173000 5.400000
v 6.000000 17.126999 -5.400000
v 6.000000 19.173000 -5.400000
v 6.050000 17.126999 5.400000
v 6.050000 19.173000 5.400000
v 6.050000 17.126999 -5.400000
v 6.050000 19.173000 -5.400000
v -6.050000 17.126999 5.400000
v -6.050000 19.173000 5.400000
v -6.050000 17.126999 -5.400000
v -6.050000 19.173000 -5.400000
v -6.000001 17.126999 5.400000
v -6.000001 19.173000 5.400000
v -6.000001 17.126999 -5.400000
v -6.000001 19.173000 -5.400000
v -5.400000 17.126999 -6.000000
v -5.400000 19.173000 -6.000000
v -5.400000 17.126999 -6.050000
v -5.400000 19.173000 -6.050000
v 5.400000 17.126999 -6.000000
v 5.400000 19.173000 -6.000000
v 5.400000 17.126999 -6.050000
v 5.400000 19.173000 -6.050000
v -5.400000 17.126999 6.050000
v -5.400000 19.173000 6.050000
v -5.400000 17.126999 6.000000
v -5.400000 19.173000 6.000000
v 5.400000 17.126999 6.050000
v 5.400000 19.173000 6.050000
v 5.400000 17.126999 6.000000
v 5.400000 19.173000 6.000000
v 6.000000 1.400000 6.200000
v 6.000000 1.900000 6.200000
v 6.000000 1.400000 -6.200000
v 6.000000 1.900000 -6.200000
v 6.120000 1.400000 6.200000
v 6.120000 1.900000 6.200000
v 6.120000 1.400000 -6.200000
v 6.120000 1.900000 -6.200000
v -6.120001 1.400000 6.200000
v -6.120001 1.900000 6.200000
v -6.120001 1.400000 -6.200000
v -6.120001 1.900000 -6.200000
v -6.000000 1.400000 6.200000
v -6.000000 1.900000 6.200000
v -6.000000 1.400000 -6.200000
v -6.000000 1.900000 -6.200000
v -6.200000 1.400000 -6.000000
v -6.200000 1.900000 -6.000000
v -6.200000 1.400000 -6.120000
v -6.200000 1.900000 -6.120000
v 6.200000 1.400000 -6.000000
v 6.200000 1.900000 -6.000000
v 6.200000 1.400000 -6.120000
v 6.200000 1.900000 -6.120000
v -6.200000 1.400000 6.120000
v -6.200000 1.900000 6.120000
v -6.200000 1.400000 6.000000
v -6.200000 1.900000 6.000000
v 6.200000 1.400000 6.120000
v 6.200000 1.900000 6.120000
v 6.200000 1.400000 6.000000
v 6.200000 1.900000 6.000000
v -4.040000 19.799999 2.000000
v -4.040000 21.200001 2.000000
v -4.040000 19.799999 -2.000000
v -4.040000 21.200001 -2.000000
v -0.040000 19.799999 2.000000
v -0.040000 21.200001 2.000000
v -0.040000 19.799999 -2.000000
v -0.040000 21.200001 -2.000000
vn 0.2588 -0.0000 -0.9659
vn 0.7071 -0.0000 -0.7071
vn 0.9659 -0.0000 -0.2588
vn 0.9659 -0.0000 0.2588
vn 0.7071 -0.0000 0.7071
vn 0.2588 -0.0000 0.9659
vn -0.2588 -0.0000 0.9659
vn -0.7071 -0.0000 0.7071
vn -0.9659 -0.0000 0.2588
vn -0.9659 -0.0000 -0.2588
vn -0.0000 1.0000 -0.0000
vn -0.7071 -0.0000 -0.7071
vn -0.2588 -0.0000 -0.9659
vn -0.0000 -1.0000 -0.0000
vn -1.0000 -0.0000 -0.0000
vn -0.0000 -0.0000 -1.0000
vn 1.0000 -0.0000 -0.0000
vn -0.0000 -0.0000 1.0000
vt 1.000000 0.500000
vt 1.000000 1.000000
vt 0.916667 1.000000
vt 0.916667 0.500000
vt 0.833333 1.000000
vt 0.833333 0.500000
vt 0.750000 1.000000
vt 0.750000 0.500000
vt 0.666667 1.000000
vt 0.666667 0.500000
vt 0.583333 1.000000
vt 0.583333 0.500000
vt 0.500000 1.000000
vt 0.500000 0.500000
vt 0.416667 1.000000
vt 0.416667 0.500000
vt 0.333333 1.000000
vt 0.333333 0.500000
vt 0.250000 1.000000
vt 0.250000 0.500000
vt 0.166667 1.000000
vt 0.166667 0.500000
vt 0.370000 0.457846
vt 0.250000 0.490000
vt 0.130000 0.457846
vt 0.042154 0.370000
vt 0.010000 0.250000
vt 0.042154 0.130000
vt 0.130000 0.042154
vt 0.250000 0.010000
vt 0.370000 0.042154
vt 0.457846 0.130000
vt 0.490000 0.250000
vt 0.457846 0.370000
vt 0.083333 1.000000
vt 0.083333 0.500000
vt 0.000000 1.000000
vt 0.000000 0.500000
vt 0.750000 0.490000
vt 0.870000 0.457846
vt 0.957846 0.370000
vt 0.990000 0.250000
vt 0.957846 0.130000
vt 0.870000 0.042154
vt 0.750000 0.010000
vt 0.630000 0.042154
vt 0.542154 0.130000
vt 0.510000 0.250000
vt 0.542154 0.370000
vt 0.630000 0.457846
vt 0.375000 0.000000
vt 0.625000 0.000000
vt 0.625000 0.250000
vt 0.375000 0.250000
vt 0.625000 0.500000
vt 0.375000 0.500000
vt 0.625000 0.750000
vt 0.375000 0.750000
vt 0.625000 1.000000
vt 0.375000 1.000000
vt 0.125000 0.500000
vt 0.125000 0.750000
vt 0.875000 0.500000
vt 0.875000 0.750000
s 0
usemtl steel
f 1/1/1 2/2/1 4/3/1 3/4/1
f 3/4/2 4/3/2 6/5/2 5/6/2
f 5/6/3 6/5/3 8/7/3 7/8/3
f 7/8/4 8/7/4 10/9/4 9/10/4
f 9/10/5 10/9/5 12/11/5 11/12/5
f 11/12/6 12/11/6 14/13/6 13/14/6
f 13/14/7 14/13/7 16/15/7 15/16/7
f 15/16/8 16/15/8 18/17/8 17/18/8
f 17/18/9 18/17/9 20/19/9 19/20/9
f 19/20/10 20/19/10 22/21/10 21/22/10
f 4/23/11 2/24/11 24/25/11 22/26/11 20/27/11 18/28/11 16/29/11 14/30/11 12/31/11 10/32/11 8/33/11 6/34/11
f 21/22/12 22/21/12 24/35/12 23/36/12
f 23/36/13 24/35/13 2/37/13 1/38/13
f 1/39/14 3/40/14 5/41/14 7/42/14 9/43/14 11/44/14 13/45/14 15/46/14 17/47/14 19/48/14 21/49/14 23/50/14
usemtl wall_ochre
f 25/51/15 26/52/15 28/53/15 27/54/15
f 27/54/16 28/53/16 32/55/16 31/56/16
f 31/56/17 32/55/17 30/57/17 29/58/17
f 29/58/18 30/57/18 26/59/18 25/60/18
f 27/61/14 31/56/14 29/58/14 25/62/14
f 32/55/11 28/63/11 26/64/11 30/57/11
usemtl glass_teal
f 33/51/15 34/52/15 36/53/15 35/54/15
f 35/54/16 36/53/16 40/55/16 39/56/16
f 39/56/17 40/55/17 38/57/17 37/58/17
f 37/58/18 38/57/18 34/59/18 33/60/18
f 35/61/14 39/56/14 37/58/14 33/62/14
f 40/55/11 36/63/11 34/64/11 38/57/11
f 41/51/15 42/52/15 44/53/15 43/54/15
f 43/54/16 44/53/16 48/55/16 47/56/16
f 47/56/17 48/55/17 46/57/17 45/58/17
f 45/58/18 46/57/18 42/59/18 41/60/18
f 43/61/14 47/56/14 45/58/14 41/62/14
f 48/55/11 44/63/11 42/64/11 46/57/11
f 49/51/15 50/52/15 52/53/15 51/54/15
f 51/54/16 52/53/16 56/55/16 55/56/16
f 55/56/17 56/55/17 54/57/17 53/58/17
f 53/58/18 54/57/18 50/59/18 49/60/18
f 51/61/14 55/56/14 53/58/14 49/62/14
f 56/55/11 52/63/11 50/64/11 54/57/11
f 57/51/15 58/52/15 60/53/15 59/54/15
f 59/54/16 60/53/16 64/55/16 63/56/16
f 63/56/17 64/55/17 62/57/17 61/58/17
f 61/58/18 62/57/18 58/59/18 57/60/18
f 59/61/14 63/56/14 61/58/14 57/62/14
f 64/55/11 60/63/11 58/64/11 62/57/11
f 65/51/15 66/52/15 68/53/15 67/54/15
f 67/54/16 68/53/16 72/55/16 71/56/16
f 71/56/17 72/55/17 70/57/17 69/58/17
f 69/58/18 70/57/18 66/59/18 65/60/18
f 67/61/14 71/56/14 69/58/14 65/62/14
f 72/55/11 68/63/11 66/64/11 70/57/11
f 73/51/15 74/52/15 76/53/15 75/54/15
f 75/54/16 76/53/16 80/55/16 79/56/16
f 79/56/17 80/55/17 78/57/17 77/58/17
f 77/58/18 78/57/18 74/59/18 73/60/18
f 75/61/14 79/56/14 77/58/14 73/62/14
f 80/55/11 76/63/11 74/64/11 78/57/11
f 81/51/15 82/52/15 84/53/15 83/54/15
f 83/54/16 84/53/16 88/55/16 87/56/16
f 87/56/17 88/55/17 86/57/17 85/58/17
f 85/58/18 86/57/18 82/59/18 81/60/18
f 83/61/14 87/56/14 85/58/14 81/62/14
f 88/55/11 84/63/11 82/64/11 86/57/11
f 89/51/15 90/52/15 92/53/15 91/54/15
f 91/54/16 92/53/16 96/55/16 95/56/16
f 95/56/17 96/55/17 94/57/17 93/58/17
f 93/58/18 94/57/18 90/59/18 89/60/18
f 91/61/14 95/56/14 93/58/14 89/62/14
f 96/55/11 92/63/11 90/64/11 94/57/11
f 97/51/15 98/52/15 100/53/15 99/54/15
f 99/54/16 100/53/16 104/55/16 103/56/16
f 103/56/17 104/55/17 102/57/17 101/58/17
f 101/58/18 102/57/18 98/59/18 97/60/18
f 99/61/14 103/56/14 101/58/14 97/62/14
f 104/55/11 100/63/11 98/64/11 102/57/11
f 105/51/15 106/52/15 108/53/15 107/54/15
f 107/54/16 108/53/16 112/55/16 111/56/16
f 111/56/17 112/55/17 110/57/17 109/58/17
f 109/58/18 110/57/18 106/59/18 105/60/18
f 107/61/14 111/56/14 109/58/14 105/62/14
f 112/55/11 108/63/11 106/64/11 110/57/11
f 113/51/15 114/52/15 116/53/15 115/54/15
f 115/54/16 116/53/16 120/55/16 119/56/16
f 119/56/17 120/55/17 118/57/17 117/58/17
f 117/58/18 118/57/18 114/59/18 113/60/18
f 115/61/14 119/56/14 117/58/14 113/62/14
f 120/55/11 116/63/11 114/64/11 118/57/11
f 121/51/15 122/52/15 124/53/15 123/54/15
f 123/54/16 124/53/16 128/55/16 127/56/16
f 127/56/17 128/55/17 126/57/17 125/58/17
f 125/58/18 126/57/18 122/59/18 121/60/18
f 123/61/14 127/56/14 125/58/14 121/62/14
f 128/55/11 124/63/11 122/64/11 126/57/11
f 129/51/15 130/52/15 132/53/15 131/54/15
f 131/54/16 132/53/16 136/55/16 135/56/16
f 135/56/17 136/55/17 134/57/17 133/58/17
f 133/58/18 134/57/18 130/59/18 129/60/18
f 131/61/14 135/56/14 133/58/14 129/62/14
f 136/55/11 132/63/11 130/64/11 134/57/11
f 137/51/15 138/52/15 140/53/15 139/54/15
f 139/54/16 140/53/16 144/55/16 143/56/16
f 143/56/17 144/55/17 142/57/17 141/58/17
f 141/58/18 142/57/18 138/59/18 137/60/18
f 139/61/14 143/56/14 141/58/14 137/62/14
f 144/55/11 140/63/11 138/64/11 142/57/11
f 145/51/15 146/52/15 148/53/15 147/54/15
f 147/54/16 148/53/16 152/55/16 151/56/16
f 151/56/17 152/55/17 150/57/17 149/58/17
f 149/58/18 150/57/18 146/59/18 145/60/18
f 147/61/14 151/56/14 149/58/14 145/62/14
f 152/55/11 148/63/11 146/64/11 150/57/11
f 153/51/15 154/52/15 156/53/15 155/54/15
f 155/54/16 156/53/16 160/55/16 159/56/16
f 159/56/17 160/55/17 158/57/17 157/58/17
f 157/58/18 158/57/18 154/59/18 153/60/18
f 155/61/14 159/56/14 157/58/14 153/62/14
f 160/55/11 156/63/11 154/64/11 158/57/11
f 161/51/15 162/52/15 164/53/15 163/54/15
f 163/54/16 164/53/16 168/55/16 167/56/16
f 167/56/17 168/55/17 166/57/17 165/58/17
f 165/58/18 166/57/18 162/59/18 161/60/18
f 163/61/14 167/56/14 165/58/14 161/62/14
f 168/55/11 164/63/11 162/64/11 166/57/11
f 169/51/15 170/52/15 172/53/15 171/54/15
f 171/54/16 172/53/16 176/55/16 175/56/16
f 175/56/17 176/55/17 174/57/17 173/58/17
f 173/58/18 174/57/18 170/59/18 169/60/18
f 171/61/14 175/56/14 173/58/14 169/62/14
f 176/55/11 172/63/11 170/64/11 174/57/11
f 177/51/15 178/52/15 180/53/15 179/54/15
f 179/54/16 180/53/16 184/55/16 183/56/16
f 183/56/17 184/55/17 182/57/17 181/58/17
f 181/58/18 182/57/18 178/59/18 177/60/18
f 179/61/14 183/56/14 181/58/14 177/62/14
f 184/55/11 180/63/11 178/64/11 182/57/11
f 185/51/15 186/52/15 188/53/15 187/54/15
f 187/54/16 188/53/16 192/55/16 191/56/16
f 191/56/17 192/55/17 190/57/17 189/58/17
f 189/58/18 190/57/18 186/59/18 185/60/18
f 187/61/14 191/56/14 189/58/14 185/62/14
f 192/55/11 188/63/11 186/64/11 190/57/11
usemtl accent_red
f 193/51/15 194/52/15 196/53/15 195/54/15
f 195/54/16 196/53/16 200/55/16 199/56/16
f 199/56/17 200/55/17 198/57/17 197/58/17
f 197/58/18 198/57/18 194/59/18 193/60/18
f 195/61/14 199/56/14 197/58/14 193/62/14
f 200/55/11 196/63/11 194/64/11 198/57/11
f 201/51/15 202/52/15 204/53/15 203/54/15
f 203/54/16 204/53/16 208/55/16 207/56/16
f 207/56/17 208/55/17 206/57/17 205/58/17
f 205/58/18 206/57/18 202/59/18 201/60/18
f 203/61/14 207/56/14 205/58/14 201/62/14
f 208/55/11 204/63/11 202/64/11 206/57/11
f 209/51/15 210/52/15 212/53/15 211/54/15
f 211/54/16 212/53/16 216/55/16 215/56/16
f 215/56/17 216/55/17 214/57/17 213/58/17
f 213/58/18 214/57/18 210/59/18 209/60/18
f 211/61/14 215/56/14 213/58/14 209/62/14
f 216/55/11 212/63/11 210/64/11 214/57/11
f 217/51/15 218/52/15 220/53/15 219/54/15
f 219/54/16 220/53/16 224/55/16 223/56/16
f 223/56/17 224/55/17 222/57/17 221/58/17
f 221/58/18 222/57/18 218/59/18 217/60/18
f 219/61/14 223/56/14 221/58/14 217/62/14
f 224/55/11 220/63/11 218/64/11 222/57/11
usemtl roof_dark
f 225/51/15 226/52/15 228/53/15 227/54/15
f 227/54/16 228/53/16 232/55/16 231/56/16
f 231/56/17 232/55/17 230/57/17 229/58/17
f 229/58/18 230/57/18 226/59/18 225/60/18
f 227/61/14 231/56/14 229/58/14 225/62/14
f 232/55/11 228/63/11 226/64/11 230/57/11
