# Blender 5.1.2
# www.blender.org
mtllib engine_lid.mtl
o Cube
v -0.054716 -0.043743 0.560000
v -0.060410 -0.022492 0.560000
v -0.054716 -0.043743 -0.560000
v -0.060410 -0.022492 -0.560000
v -0.001590 -0.029508 0.560000
v -0.007284 -0.008257 0.560000
v -0.001590 -0.029508 -0.560000
v -0.007284 -0.008257 -0.560000
v -0.116716 -0.095743 0.560000
v -0.122410 -0.074492 0.560000
v -0.116716 -0.095743 -0.560000
v -0.122410 -0.074492 -0.560000
v -0.063590 -0.081508 0.560000
v -0.069284 -0.060257 0.560000
v -0.063590 -0.081508 -0.560000
v -0.069284 -0.060257 -0.560000
v -0.178716 -0.147743 0.560000
v -0.184410 -0.126492 0.560000
v -0.178716 -0.147743 -0.560000
v -0.184410 -0.126492 -0.560000
v -0.125590 -0.133508 0.560000
v -0.131284 -0.112257 0.560000
v -0.125590 -0.133508 -0.560000
v -0.131284 -0.112257 -0.560000
v -0.240716 -0.199743 0.560000
v -0.246410 -0.178492 0.560000
v -0.240716 -0.199743 -0.560000
v -0.246410 -0.178492 -0.560000
v -0.187590 -0.185508 0.560000
v -0.193284 -0.164257 0.560000
v -0.187590 -0.185508 -0.560000
v -0.193284 -0.164257 -0.560000
v -0.302716 -0.251743 0.560000
v -0.308410 -0.230492 0.560000
v -0.302716 -0.251743 -0.560000
v -0.308410 -0.230492 -0.560000
v -0.249590 -0.237508 0.560000
v -0.255284 -0.216257 0.560000
v -0.249590 -0.237508 -0.560000
v -0.255284 -0.216257 -0.560000
v -1.244000 -0.310000 0.564000
v -1.244000 -0.294000 0.580000
v -1.260000 -0.294000 0.564000
v -1.244000 -0.305314 0.575314
v -1.253238 -0.303238 0.573238
v -1.255314 -0.294000 0.575314
v -1.255314 -0.305314 0.564000
v -1.244000 -0.276000 0.580000
v -1.244000 -0.260000 0.564000
v -1.260000 -0.276000 0.564000
v -1.244000 -0.264686 0.575314
v -1.253238 -0.266762 0.573238
v -1.255314 -0.264686 0.564000
v -1.255314 -0.276000 0.575314
v -1.244000 -0.310000 -0.564000
v -1.260000 -0.294000 -0.564000
v -1.244000 -0.294000 -0.580000
v -1.255314 -0.305314 -0.564000
v -1.253238 -0.303238 -0.573238
v -1.255314 -0.294000 -0.575314
v -1.244000 -0.305314 -0.575314
v -1.244000 -0.260000 -0.564000
v -1.244000 -0.276000 -0.580000
v -1.260000 -0.276000 -0.564000
v -1.244000 -0.264686 -0.575314
v -1.253238 -0.266762 -0.573238
v -1.255314 -0.276000 -0.575314
v -1.255314 -0.264686 -0.564000
v -0.326000 -0.310000 0.564000
v -0.310000 -0.294000 0.564000
v -0.326000 -0.294000 0.580000
v -0.314686 -0.305314 0.564000
v -0.316762 -0.303238 0.573238
v -0.314686 -0.294000 0.575314
v -0.326000 -0.305314 0.575314
v -0.326000 -0.260000 0.564000
v -0.326000 -0.276000 0.580000
v -0.310000 -0.276000 0.564000
v -0.326000 -0.264686 0.575314
v -0.316762 -0.266762 0.573238
v -0.314686 -0.276000 0.575314
v -0.314686 -0.264686 0.564000
v -0.326000 -0.310000 -0.564000
v -0.326000 -0.294000 -0.580000
v -0.310000 -0.294000 -0.564000
v -0.326000 -0.305314 -0.575314
v -0.316762 -0.303238 -0.573238
v -0.314686 -0.294000 -0.575314
v -0.314686 -0.305314 -0.564000
v -0.326000 -0.260000 -0.564000
v -0.310000 -0.276000 -0.564000
v -0.326000 -0.276000 -0.580000
v -0.314686 -0.264686 -0.564000
v -0.316762 -0.266762 -0.573238
v -0.314686 -0.276000 -0.575314
v -0.326000 -0.264686 -0.575314
v -0.520000 -0.255000 0.550000
v -0.520000 -0.225000 0.550000
v -0.520000 -0.255000 -0.550000
v -0.520000 -0.225000 -0.550000
v -0.340000 -0.255000 0.550000
v -0.340000 -0.225000 0.550000
v -0.340000 -0.255000 -0.550000
v -0.340000 -0.225000 -0.550000
vn -0.9659 -0.2588 -0.0000
vn -0.0000 -0.0000 -1.0000
vn 0.9659 0.2588 -0.0000
vn -0.0000 -0.0000 1.0000
vn 0.2588 -0.9659 -0.0000
vn -0.2588 0.9659 -0.0000
vn -0.3251 -0.8881 0.3251
vn -0.3251 -0.3251 0.8881
vn -0.8881 -0.3251 0.3251
vn -0.3251 0.3251 0.8881
vn -0.3251 0.8881 0.3251
vn -0.8881 0.3251 0.3251
vn -0.3251 -0.8881 -0.3251
vn -0.8881 -0.3251 -0.3251
vn -0.3251 -0.3251 -0.8881
vn -0.3251 0.8881 -0.3251
vn -0.3251 0.3251 -0.8881
vn -0.8881 0.3251 -0.3251
vn 0.3251 -0.8881 0.3251
vn 0.8881 -0.3251 0.3251
vn 0.3251 -0.3251 0.8881
vn 0.3251 0.8881 0.3251
vn 0.3251 0.3251 0.8881
vn 0.8881 0.3251 0.3251
vn 0.3251 -0.8881 -0.3251
vn 0.3251 -0.3251 -0.8881
vn 0.8881 -0.3251 -0.3251
vn 0.3251 0.8881 -0.3251
vn 0.8881 0.3251 -0.3251
vn 0.3251 0.3251 -0.8881
vn -0.3827 -0.9239 -0.0000
vn -0.9239 -0.3827 -0.0000
vn -0.3827 -0.0000 0.9239
vn -0.9239 -0.0000 0.3827
vn -0.3827 0.9239 -0.0000
vn -0.9239 0.3827 -0.0000
vn -0.3827 -0.0000 -0.9239
vn -0.9239 -0.0000 -0.3827
vn -0.0000 -0.9239 -0.3827
vn -0.0000 -0.3827 -0.9239
vn -0.0000 0.9239 -0.3827
vn -0.0000 0.3827 -0.9239
vn 0.9239 -0.0000 -0.3827
vn 0.3827 -0.0000 -0.9239
vn 0.3827 -0.9239 -0.0000
vn 0.9239 -0.3827 -0.0000
vn 0.3827 0.9239 -0.0000
vn 0.9239 0.3827 -0.0000
vn 0.3827 -0.0000 0.9239
vn 0.9239 -0.0000 0.3827
vn -0.0000 -0.9239 0.3827
vn -0.0000 -0.3827 0.9239
vn -0.0000 0.9239 0.3827
vn -0.0000 0.3827 0.9239
vn -0.0000 -1.0000 -0.0000
vn -1.0000 -0.0000 -0.0000
vn -0.0000 1.0000 -0.0000
vn 1.0000 -0.0000 -0.0000
vt 0.375000 0.000000
vt 0.625000 0.000000
vt 0.625000 0.250000
vt 0.375000 0.250000
vt 0.625000 0.500000
vt 0.375000 0.500000
vt 0.625000 0.750000
vt 0.375000 0.750000
vt 0.625000 1.000000
vt 0.375000 1.000000
vt 0.125000 0.500000
vt 0.125000 0.750000
vt 0.875000 0.500000
vt 0.875000 0.750000
vt 0.129211 0.746552
vt 0.129211 0.750000
vt 0.126780 0.750000
vt 0.125000 0.746552
vt 0.455000 0.995790
vt 0.455000 1.000000
vt 0.408812 1.000000
vt 0.375000 0.995789
vt 0.455000 0.003448
vt 0.375000 0.003448
vt 0.375000 0.001457
vt 0.455000 0.000000
vt 0.545000 0.995789
vt 0.625000 0.995789
vt 0.625000 0.998220
vt 0.545000 1.000000
vt 0.870789 0.746552
vt 0.875000 0.746552
vt 0.875000 0.748543
vt 0.870789 0.750000
vt 0.545000 0.003448
vt 0.545000 0.000000
vt 0.591188 0.000000
vt 0.625000 0.003448
vt 0.129211 0.503448
vt 0.125000 0.503448
vt 0.125000 0.501457
vt 0.129211 0.500000
vt 0.455000 0.246552
vt 0.455000 0.250000
vt 0.391906 0.250890
vt 0.375000 0.246552
vt 0.455000 0.254211
vt 0.375000 0.254211
vt 0.870789 0.503448
vt 0.870789 0.500000
vt 0.873220 0.500000
vt 0.875000 0.503448
vt 0.545000 0.254211
vt 0.545000 0.250000
vt 0.608094 0.249271
vt 0.625000 0.254211
vt 0.545000 0.246552
vt 0.625000 0.246552
vt 0.370789 0.746552
vt 0.375000 0.746552
vt 0.386271 0.750107
vt 0.372895 0.752105
vt 0.455000 0.746552
vt 0.455000 0.750000
vt 0.455000 0.754211
vt 0.629210 0.746552
vt 0.627105 0.752105
vt 0.614323 0.749514
vt 0.625000 0.746552
vt 0.545000 0.754211
vt 0.545000 0.750000
vt 0.545000 0.746552
vt 0.370789 0.503448
vt 0.372895 0.497895
vt 0.385677 0.500486
vt 0.375000 0.503448
vt 0.455000 0.495789
vt 0.455000 0.500000
vt 0.455000 0.503448
vt 0.629210 0.503448
vt 0.625000 0.503448
vt 0.613729 0.499893
vt 0.627105 0.497895
vt 0.545000 0.503448
vt 0.545000 0.500000
vt 0.545000 0.495789
s 0
usemtl trim
f 1/1/1 2/2/1 4/3/1 3/4/1
f 3/4/2 4/3/2 8/5/2 7/6/2
f 7/6/3 8/5/3 6/7/3 5/8/3
f 5/8/4 6/7/4 2/9/4 1/10/4
f 3/11/5 7/6/5 5/8/5 1/12/5
f 8/5/6 4/13/6 2/14/6 6/7/6
f 9/1/1 10/2/1 12/3/1 11/4/1
f 11/4/2 12/3/2 16/5/2 15/6/2
f 15/6/3 16/5/3 14/7/3 13/8/3
f 13/8/4 14/7/4 10/9/4 9/10/4
f 11/11/5 15/6/5 13/8/5 9/12/5
f 16/5/6 12/13/6 10/14/6 14/7/6
f 17/1/1 18/2/1 20/3/1 19/4/1
f 19/4/2 20/3/2 24/5/2 23/6/2
f 23/6/3 24/5/3 22/7/3 21/8/3
f 21/8/4 22/7/4 18/9/4 17/10/4
f 19/11/5 23/6/5 21/8/5 17/12/5
f 24/5/6 20/13/6 18/14/6 22/7/6
f 25/1/1 26/2/1 28/3/1 27/4/1
f 27/4/2 28/3/2 32/5/2 31/6/2
f 31/6/3 32/5/3 30/7/3 29/8/3
f 29/8/4 30/7/4 26/9/4 25/10/4
f 27/11/5 31/6/5 29/8/5 25/12/5
f 32/5/6 28/13/6 26/14/6 30/7/6
f 33/1/1 34/2/1 36/3/1 35/4/1
f 35/4/2 36/3/2 40/5/2 39/6/2
f 39/6/3 40/5/3 38/7/3 37/8/3
f 37/8/4 38/7/4 34/9/4 33/10/4
f 35/11/5 39/6/5 37/8/5 33/12/5
f 40/5/6 36/13/6 34/14/6 38/7/6
usemtl body_signal_red
f 41/15/7 44/16/7 45/17/7 47/18/7
f 42/19/8 46/20/8 45/21/8 44/22/8
f 43/23/9 47/24/9 45/25/9 46/26/9
f 48/27/10 51/28/10 52/29/10 54/30/10
f 49/31/11 53/32/11 52/33/11 51/34/11
f 50/35/12 54/36/12 52/37/12 53/38/12
f 55/39/13 58/40/13 59/41/13 61/42/13
f 56/43/14 60/44/14 59/45/14 58/46/14
f 57/47/15 61/48/15 59/45/15 60/44/15
f 62/49/16 65/50/16 66/51/16 68/52/16
f 63/53/17 67/54/17 66/55/17 65/56/17
f 64/57/18 68/58/18 66/55/18 67/54/18
f 69/59/19 72/60/19 73/61/19 75/62/19
f 70/63/20 74/64/20 73/61/20 72/60/20
f 71/65/21 75/62/21 73/61/21 74/64/21
f 76/66/22 79/67/22 80/68/22 82/69/22
f 77/70/23 81/71/23 80/68/23 79/67/23
f 78/72/24 82/69/24 80/68/24 81/71/24
f 83/73/25 86/74/25 87/75/25 89/76/25
f 84/77/26 88/78/26 87/75/26 86/74/26
f 85/79/27 89/76/27 87/75/27 88/78/27
f 90/80/28 93/81/28 94/82/28 96/83/28
f 91/84/29 95/85/29 94/82/29 93/81/29
f 92/86/30 96/83/30 94/82/30 95/85/30
f 55/39/31 41/15/31 47/18/31 58/40/31
f 58/46/32 47/24/32 43/23/32 56/43/32
f 42/19/33 48/27/33 54/30/33 46/20/33
f 46/26/34 54/36/34 50/35/34 43/23/34
f 49/31/35 62/49/35 68/52/35 53/32/35
f 53/38/36 68/58/36 64/57/36 50/35/36
f 63/53/37 57/47/37 60/44/37 67/54/37
f 67/54/38 60/44/38 56/43/38 64/57/38
f 83/73/39 55/39/39 61/42/39 86/74/39
f 86/74/40 61/48/40 57/47/40 84/77/40
f 62/49/41 90/80/41 96/83/41 65/50/41
f 65/56/42 96/83/42 92/86/42 63/53/42
f 91/84/43 85/79/43 88/78/43 95/85/43
f 95/85/44 88/78/44 84/77/44 92/86/44
f 69/59/45 83/73/45 89/76/45 72/60/45
f 72/60/46 89/76/46 85/79/46 70/63/46
f 90/80/47 76/66/47 82/69/47 93/81/47
f 93/81/48 82/69/48 78/72/48 91/84/48
f 77/70/49 71/65/49 74/64/49 81/71/49
f 81/71/50 74/64/50 70/63/50 78/72/50
f 41/15/51 69/59/51 75/62/51 44/16/51
f 44/22/52 75/62/52 71/65/52 42/19/52
f 76/66/53 49/31/53 51/34/53 79/67/53
f 79/67/54 51/28/54 48/27/54 77/70/54
f 55/39/55 83/73/55 69/59/55 41/15/55
f 43/23/56 50/35/56 64/57/56 56/43/56
f 71/65/4 77/70/4 48/27/4 42/19/4
f 90/80/57 62/49/57 49/31/57 76/66/57
f 57/47/2 63/53/2 92/86/2 84/77/2
f 85/79/58 91/84/58 78/72/58 70/63/58
f 97/1/56 98/2/56 100/3/56 99/4/56
f 99/4/2 100/3/2 104/5/2 103/6/2
f 103/6/58 104/5/58 102/7/58 101/8/58
f 101/8/4 102/7/4 98/9/4 97/10/4
f 99/11/55 103/6/55 101/8/55 97/12/55
f 104/5/57 100/13/57 98/14/57 102/7/57
