# Blender 5.1.2
# www.blender.org
mtllib wing.mtl
o Cube
v -0.080000 0.000000 -0.375000
v -0.080000 0.200000 -0.375000
v -0.080000 0.000000 -0.425000
v -0.080000 0.200000 -0.425000
v -0.020000 0.000000 -0.375000
v -0.020000 0.200000 -0.375000
v -0.020000 0.000000 -0.425000
v -0.020000 0.200000 -0.425000
v -0.080000 0.000000 0.425000
v -0.080000 0.200000 0.425000
v -0.080000 0.000000 0.375000
v -0.080000 0.200000 0.375000
v -0.020000 0.000000 0.425000
v -0.020000 0.200000 0.425000
v -0.020000 0.000000 0.375000
v -0.020000 0.200000 0.375000
v -0.259594 0.234708 0.763000
v -0.257924 0.246592 0.775000
v -0.269807 0.248262 0.763000
v -0.259105 0.238189 0.771485
v -0.265749 0.240695 0.769928
v -0.266326 0.247772 0.771485
v -0.267507 0.239370 0.763000
v -0.255001 0.267387 0.775000
v -0.253331 0.279270 0.763000
v -0.266884 0.269057 0.763000
v -0.253820 0.275790 0.771485
v -0.260898 0.275212 0.769928
v -0.262223 0.276971 0.763000
v -0.263404 0.268568 0.771485
v -0.259594 0.234708 -0.763000
v -0.269807 0.248262 -0.763000
v -0.257924 0.246592 -0.775000
v -0.267507 0.239370 -0.763000
v -0.265749 0.240695 -0.769928
v -0.266326 0.247772 -0.771485
v -0.259105 0.238189 -0.771485
v -0.253331 0.279270 -0.763000
v -0.255001 0.267387 -0.775000
v -0.266884 0.269057 -0.763000
v -0.253820 0.275790 -0.771485
v -0.260898 0.275212 -0.769928
v -0.263404 0.268568 -0.771485
v -0.262223 0.276971 -0.763000
v 0.053331 0.190730 0.763000
v 0.066884 0.200943 0.763000
v 0.055001 0.202613 0.775000
v 0.062223 0.193029 0.763000
v 0.060898 0.194788 0.769928
v 0.063404 0.201432 0.771485
v 0.053820 0.194210 0.771485
v 0.059594 0.235292 0.763000
v 0.057924 0.223408 0.775000
v 0.069807 0.221738 0.763000
v 0.059105 0.231811 0.771485
v 0.065749 0.229305 0.769928
v 0.066326 0.222228 0.771485
v 0.067507 0.230630 0.763000
v 0.053331 0.190730 -0.763000
v 0.055001 0.202613 -0.775000
v 0.066884 0.200943 -0.763000
v 0.053820 0.194210 -0.771485
v 0.060898 0.194788 -0.769928
v 0.063404 0.201432 -0.771485
v 0.062223 0.193029 -0.763000
v 0.059594 0.235292 -0.763000
v 0.069807 0.221738 -0.763000
v 0.057924 0.223408 -0.775000
v 0.067507 0.230630 -0.763000
v 0.065749 0.229305 -0.769928
v 0.066326 0.222228 -0.771485
v 0.059105 0.231811 -0.771485
v -0.250000 0.190000 -0.752500
v -0.250000 0.280000 -0.752500
v -0.250000 0.190000 -0.772500
v -0.250000 0.280000 -0.772500
v 0.050000 0.190000 -0.752500
v 0.050000 0.280000 -0.752500
v 0.050000 0.190000 -0.772500
v 0.050000 0.280000 -0.772500
v -0.250000 0.190000 0.772500
v -0.250000 0.280000 0.772500
v -0.250000 0.190000 0.752500
v -0.250000 0.280000 0.752500
v 0.050000 0.190000 0.772500
v 0.050000 0.280000 0.772500
v 0.050000 0.190000 0.752500
v 0.050000 0.280000 0.752500
vn -1.0000 -0.0000 -0.0000
vn -0.0000 -0.0000 -1.0000
vn 1.0000 -0.0000 -0.0000
vn -0.0000 -0.0000 1.0000
vn -0.0000 -1.0000 -0.0000
vn -0.0000 1.0000 -0.0000
vn -0.4455 -0.8342 0.3251
vn -0.3671 -0.2767 0.8881
vn -0.9247 -0.1983 0.3251
vn -0.2767 0.3671 0.8881
vn -0.1983 0.9247 0.3251
vn -0.8342 0.4455 0.3251
vn -0.4455 -0.8342 -0.3251
vn -0.9247 -0.1983 -0.3251
vn -0.3671 -0.2767 -0.8881
vn -0.1983 0.9247 -0.3251
vn -0.2767 0.3671 -0.8881
vn -0.8342 0.4455 -0.3251
vn 0.1983 -0.9247 0.3251
vn 0.8342 -0.4455 0.3251
vn 0.2767 -0.3671 0.8881
vn 0.4455 0.8342 0.3251
vn 0.3671 0.2767 0.8881
vn 0.9247 0.1983 0.3251
vn 0.1983 -0.9247 -0.3251
vn 0.2767 -0.3671 -0.8881
vn 0.8342 -0.4455 -0.3251
vn 0.4455 0.8342 -0.3251
vn 0.9247 0.1983 -0.3251
vn 0.3671 0.2767 -0.8881
vn -0.5075 -0.8616 -0.0000
vn -0.9681 -0.2504 -0.0000
vn -0.3790 0.0533 0.9239
vn -0.9149 0.1286 0.3827
vn -0.2504 0.9681 -0.0000
vn -0.8616 0.5075 -0.0000
vn -0.3790 0.0533 -0.9239
vn -0.9149 0.1286 -0.3827
vn -0.1286 -0.9149 -0.3827
vn -0.0533 -0.3790 -0.9239
vn 0.1286 0.9149 -0.3827
vn 0.0533 0.3790 -0.9239
vn 0.9149 -0.1286 -0.3827
vn 0.3790 -0.0533 -0.9239
vn 0.2504 -0.9681 -0.0000
vn 0.8616 -0.5075 -0.0000
vn 0.5075 0.8616 -0.0000
vn 0.9681 0.2504 -0.0000
vn 0.3790 -0.0533 0.9239
vn 0.9149 -0.1286 0.3827
vn -0.1286 -0.9149 0.3827
vn -0.0533 -0.3790 0.9239
vn 0.1286 0.9149 0.3827
vn 0.0533 0.3790 0.9239
vn -0.1392 -0.9903 -0.0000
vn -0.9903 0.1392 -0.0000
vn 0.1392 0.9903 -0.0000
vn 0.9903 -0.1392 -0.0000
vt 0.375000 0.000000
vt 0.625000 0.000000
vt 0.625000 0.250000
vt 0.375000 0.250000
vt 0.625000 0.500000
vt 0.375000 0.500000
vt 0.625000 0.750000
vt 0.375000 0.750000
vt 0.625000 1.000000
vt 0.375000 1.000000
vt 0.125000 0.500000
vt 0.125000 0.750000
vt 0.875000 0.500000
vt 0.875000 0.750000
vt 0.133824 0.748065
vt 0.133824 0.750000
vt 0.128729 0.750000
vt 0.125000 0.748064
vt 0.441667 0.991176
vt 0.441667 1.000000
vt 0.403177 1.000000
vt 0.375000 0.991176
vt 0.441667 0.001935
vt 0.375000 0.001936
vt 0.375000 0.000818
vt 0.441667 0.000000
vt 0.558333 0.991176
vt 0.625000 0.991176
vt 0.625000 0.996271
vt 0.558333 1.000000
vt 0.866176 0.748064
vt 0.875000 0.748064
vt 0.875000 0.749182
vt 0.866176 0.750000
vt 0.558333 0.001935
vt 0.558333 0.000000
vt 0.596823 0.000000
vt 0.625000 0.001935
vt 0.133824 0.501935
vt 0.125000 0.501935
vt 0.125000 0.500818
vt 0.133824 0.500000
vt 0.441667 0.248065
vt 0.441667 0.250000
vt 0.389088 0.251865
vt 0.375000 0.248065
vt 0.441667 0.258824
vt 0.375000 0.258824
vt 0.866177 0.501935
vt 0.866176 0.500000
vt 0.871271 0.500000
vt 0.875000 0.501936
vt 0.558333 0.258824
vt 0.558333 0.250000
vt 0.610912 0.249591
vt 0.625000 0.258824
vt 0.558333 0.248065
vt 0.625000 0.248064
vt 0.366176 0.748064
vt 0.375000 0.748065
vt 0.384392 0.750970
vt 0.370588 0.754412
vt 0.441667 0.748065
vt 0.441667 0.750000
vt 0.441667 0.758823
vt 0.633824 0.748065
vt 0.629412 0.754412
vt 0.616851 0.749727
vt 0.625000 0.748065
vt 0.558333 0.758824
vt 0.558333 0.750000
vt 0.558333 0.748064
vt 0.366176 0.501935
vt 0.370588 0.495588
vt 0.383149 0.500273
vt 0.375000 0.501936
vt 0.441667 0.491176
vt 0.441667 0.500000
vt 0.441667 0.501935
vt 0.633824 0.501935
vt 0.625000 0.501935
vt 0.615608 0.499030
vt 0.629412 0.495588
vt 0.558333 0.501935
vt 0.558333 0.500000
vt 0.558333 0.491176
s 0
usemtl trim
f 1/1/1 2/2/1 4/3/1 3/4/1
f 3/4/2 4/3/2 8/5/2 7/6/2
f 7/6/3 8/5/3 6/7/3 5/8/3
f 5/8/4 6/7/4 2/9/4 1/10/4
f 3/11/5 7/6/5 5/8/5 1/12/5
f 8/5/6 4/13/6 2/14/6 6/7/6
f 9/1/1 10/2/1 12/3/1 11/4/1
f 11/4/2 12/3/2 16/5/2 15/6/2
f 15/6/3 16/5/3 14/7/3 13/8/3
f 13/8/4 14/7/4 10/9/4 9/10/4
f 11/11/5 15/6/5 13/8/5 9/12/5
f 16/5/6 12/13/6 10/14/6 14/7/6
f 73/1/1 74/2/1 76/3/1 75/4/1
f 75/4/2 76/3/2 80/5/2 79/6/2
f 79/6/3 80/5/3 78/7/3 77/8/3
f 77/8/4 78/7/4 74/9/4 73/10/4
f 75/11/5 79/6/5 77/8/5 73/12/5
f 80/5/6 76/13/6 74/14/6 78/7/6
f 81/1/1 82/2/1 84/3/1 83/4/1
f 83/4/2 84/3/2 88/5/2 87/6/2
f 87/6/3 88/5/3 86/7/3 85/8/3
f 85/8/4 86/7/4 82/9/4 81/10/4
f 83/11/5 87/6/5 85/8/5 81/12/5
f 88/5/6 84/13/6 82/14/6 86/7/6
usemtl body_signal_red
f 17/15/7 20/16/7 21/17/7 23/18/7
f 18/19/8 22/20/8 21/21/8 20/22/8
f 19/23/9 23/24/9 21/25/9 22/26/9
f 24/27/10 27/28/10 28/29/10 30/30/10
f 25/31/11 29/32/11 28/33/11 27/34/11
f 26/35/12 30/36/12 28/37/12 29/38/12
f 31/39/13 34/40/13 35/41/13 37/42/13
f 32/43/14 36/44/14 35/45/14 34/46/14
f 33/47/15 37/48/15 35/45/15 36/44/15
f 38/49/16 41/50/16 42/51/16 44/52/16
f 39/53/17 43/54/17 42/55/17 41/56/17
f 40/57/18 44/58/18 42/55/18 43/54/18
f 45/59/19 48/60/19 49/61/19 51/62/19
f 46/63/20 50/64/20 49/61/20 48/60/20
f 47/65/21 51/62/21 49/61/21 50/64/21
f 52/66/22 55/67/22 56/68/22 58/69/22
f 53/70/23 57/71/23 56/68/23 55/67/23
f 54/72/24 58/69/24 56/68/24 57/71/24
f 59/73/25 62/74/25 63/75/25 65/76/25
f 60/77/26 64/78/26 63/75/26 62/74/26
f 61/79/27 65/76/27 63/75/27 64/78/27
f 66/80/28 69/81/28 70/82/28 72/83/28
f 67/84/29 71/85/29 70/82/29 69/81/29
f 68/86/30 72/83/30 70/82/30 71/85/30
f 31/39/31 17/15/31 23/18/31 34/40/31
f 34/46/32 23/24/32 19/23/32 32/43/32
f 18/19/33 24/27/33 30/30/33 22/20/33
f 22/26/34 30/36/34 26/35/34 19/23/34
f 25/31/35 38/49/35 44/52/35 29/32/35
f 29/38/36 44/58/36 40/57/36 26/35/36
f 39/53/37 33/47/37 36/44/37 43/54/37
f 43/54/38 36/44/38 32/43/38 40/57/38
f 59/73/39 31/39/39 37/42/39 62/74/39
f 62/74/40 37/48/40 33/47/40 60/77/40
f 38/49/41 66/80/41 72/83/41 41/50/41
f 41/56/42 72/83/42 68/86/42 39/53/42
f 67/84/43 61/79/43 64/78/43 71/85/43
f 71/85/44 64/78/44 60/77/44 68/86/44
f 45/59/45 59/73/45 65/76/45 48/60/45
f 48/60/46 65/76/46 61/79/46 46/63/46
f 66/80/47 52/66/47 58/69/47 69/81/47
f 69/81/48 58/69/48 54/72/48 67/84/48
f 53/70/49 47/65/49 50/64/49 57/71/49
f 57/71/50 50/64/50 46/63/50 54/72/50
f 17/15/51 45/59/51 51/62/51 20/16/51
f 20/22/52 51/62/52 47/65/52 18/19/52
f 52/66/53 25/31/53 27/34/53 55/67/53
f 55/67/54 27/28/54 24/27/54 53/70/54
f 31/39/55 59/73/55 45/59/55 17/15/55
f 19/23/56 26/35/56 40/57/56 32/43/56
f 47/65/4 53/70/4 24/27/4 18/19/4
f 66/80/57 38/49/57 25/31/57 52/66/57
f 33/47/2 39/53/2 68/86/2 60/77/2
f 61/79/58 67/84/58 54/72/58 46/63/58
