# Blender 5.1.2
# www.blender.org
mtllib bumper_r.mtl
o Cube
v -0.070000 -0.160000 0.945000
v -0.070000 -0.130000 0.975000
v -0.100000 -0.130000 0.945000
v -0.070000 -0.151213 0.966213
v -0.087321 -0.147321 0.962321
v -0.091213 -0.130000 0.966213
v -0.091213 -0.151213 0.945000
v -0.070000 0.130000 0.975000
v -0.070000 0.160000 0.945000
v -0.100000 0.130000 0.945000
v -0.070000 0.151213 0.966213
v -0.087321 0.147321 0.962321
v -0.091213 0.151213 0.945000
v -0.091213 0.130000 0.966213
v -0.070000 -0.160000 -0.945000
v -0.100000 -0.130000 -0.945000
v -0.070000 -0.130000 -0.975000
v -0.091213 -0.151213 -0.945000
v -0.087321 -0.147321 -0.962321
v -0.091213 -0.130000 -0.966213
v -0.070000 -0.151213 -0.966213
v -0.070000 0.160000 -0.945000
v -0.070000 0.130000 -0.975000
v -0.100000 0.130000 -0.945000
v -0.070000 0.151213 -0.966213
v -0.087321 0.147321 -0.962321
v -0.091213 0.130000 -0.966213
v -0.091213 0.151213 -0.945000
v -0.030000 -0.160000 0.945000
v 0.000000 -0.130000 0.945000
v -0.030000 -0.130000 0.975000
v -0.008787 -0.151213 0.945000
v -0.012679 -0.147321 0.962321
v -0.008787 -0.130000 0.966213
v -0.030000 -0.151213 0.966213
v -0.030000 0.160000 0.945000
v -0.030000 0.130000 0.975000
v 0.000000 0.130000 0.945000
v -0.030000 0.151213 0.966213
v -0.012679 0.147321 0.962321
v -0.008787 0.130000 0.966213
v -0.008787 0.151213 0.945000
v -0.030000 -0.160000 -0.945000
v -0.030000 -0.130000 -0.975000
v 0.000000 -0.130000 -0.945000
v -0.030000 -0.151213 -0.966213
v -0.012679 -0.147321 -0.962321
v -0.008787 -0.130000 -0.966213
v -0.008787 -0.151213 -0.945000
v -0.030000 0.160000 -0.945000
v 0.000000 0.130000 -0.945000
v -0.030000 0.130000 -0.975000
v -0.008787 0.151213 -0.945000
v -0.012679 0.147321 -0.962321
v -0.008787 0.130000 -0.966213
v -0.030000 0.151213 -0.966213
v -0.090000 0.160000 0.400000
v -0.090000 0.190000 0.400000
v -0.090000 0.160000 -0.400000
v -0.090000 0.190000 -0.400000
v -0.030000 0.160000 0.400000
v -0.030000 0.190000 0.400000
v -0.030000 0.160000 -0.400000
v -0.030000 0.190000 -0.400000
v -0.097500 -0.190000 0.050000
v -0.097500 -0.090000 0.050000
v -0.097500 -0.190000 -0.050000
v -0.097500 -0.090000 -0.050000
v -0.047500 -0.190000 0.050000
v -0.047500 -0.090000 0.050000
v -0.047500 -0.190000 -0.050000
v -0.047500 -0.090000 -0.050000
vn -0.3251 -0.8881 0.3251
vn -0.3251 -0.3251 0.8881
vn -0.8881 -0.3251 0.3251
vn -0.3251 0.3251 0.8881
vn -0.3251 0.8881 0.3251
vn -0.8881 0.3251 0.3251
vn -0.3251 -0.8881 -0.3251
vn -0.8881 -0.3251 -0.3251
vn -0.3251 -0.3251 -0.8881
vn -0.3251 0.8881 -0.3251
vn -0.3251 0.3251 -0.8881
vn -0.8881 0.3251 -0.3251
vn 0.3251 -0.8881 0.3251
vn 0.8881 -0.3251 0.3251
vn 0.3251 -0.3251 0.8881
vn 0.3251 0.8881 0.3251
vn 0.3251 0.3251 0.8881
vn 0.8881 0.3251 0.3251
vn 0.3251 -0.8881 -0.3251
vn 0.3251 -0.3251 -0.8881
vn 0.8881 -0.3251 -0.3251
vn 0.3251 0.8881 -0.3251
vn 0.8881 0.3251 -0.3251
vn 0.3251 0.3251 -0.8881
vn -0.3827 -0.9239 -0.0000
vn -0.9239 -0.3827 -0.0000
vn -0.3827 -0.0000 0.9239
vn -0.9239 -0.0000 0.3827
vn -0.3827 0.9239 -0.0000
vn -0.9239 0.3827 -0.0000
vn -0.3827 -0.0000 -0.9239
vn -0.9239 -0.0000 -0.3827
vn -0.0000 -0.9239 -0.3827
vn -0.0000 -0.3827 -0.9239
vn -0.0000 0.9239 -0.3827
vn -0.0000 0.3827 -0.9239
vn 0.9239 -0.0000 -0.3827
vn 0.3827 -0.0000 -0.9239
vn 0.3827 -0.9239 -0.0000
vn 0.9239 -0.3827 -0.0000
vn 0.3827 0.9239 -0.0000
vn 0.9239 0.3827 -0.0000
vn 0.3827 -0.0000 0.9239
vn 0.9239 -0.0000 0.3827
vn -0.0000 -0.9239 0.3827
vn -0.0000 -0.3827 0.9239
vn -0.0000 0.9239 0.3827
vn -0.0000 0.3827 0.9239
vn -0.0000 -1.0000 -0.0000
vn -1.0000 -0.0000 -0.0000
vn -0.0000 -0.0000 1.0000
vn -0.0000 1.0000 -0.0000
vn -0.0000 -0.0000 -1.0000
vn 1.0000 -0.0000 -0.0000
vt 0.200000 0.746154
vt 0.200000 0.750000
vt 0.156699 0.750000
vt 0.125000 0.746154
vt 0.398438 0.925000
vt 0.398438 1.000000
vt 0.384906 1.000000
vt 0.375000 0.925000
vt 0.398437 0.003846
vt 0.375000 0.003846
vt 0.375000 0.001626
vt 0.398438 0.000000
vt 0.601562 0.925000
vt 0.625000 0.925000
vt 0.625000 0.968301
vt 0.601562 1.000000
vt 0.800000 0.746154
vt 0.875000 0.746154
vt 0.875000 0.748374
vt 0.800000 0.750000
vt 0.601562 0.003846
vt 0.601562 0.000000
vt 0.615094 0.000000
vt 0.625000 0.003846
vt 0.200000 0.503846
vt 0.125000 0.503846
vt 0.125000 0.501626
vt 0.200000 0.500000
vt 0.398437 0.246154
vt 0.398438 0.250000
vt 0.379953 0.265849
vt 0.375000 0.246154
vt 0.398438 0.325000
vt 0.375000 0.325000
vt 0.800000 0.503846
vt 0.800000 0.500000
vt 0.843301 0.500000
vt 0.875000 0.503846
vt 0.601562 0.325000
vt 0.601562 0.250000
vt 0.620047 0.249187
vt 0.625000 0.325000
vt 0.601562 0.246154
vt 0.625000 0.246154
vt 0.300000 0.746154
vt 0.375000 0.746154
vt 0.378302 0.760024
vt 0.337500 0.787500
vt 0.398437 0.746154
vt 0.398438 0.750000
vt 0.398438 0.825000
vt 0.700000 0.746154
vt 0.662500 0.787500
vt 0.632264 0.749458
vt 0.625000 0.746154
vt 0.601562 0.825000
vt 0.601562 0.750000
vt 0.601562 0.746154
vt 0.300000 0.503846
vt 0.337500 0.462500
vt 0.367736 0.500542
vt 0.375000 0.503846
vt 0.398438 0.425000
vt 0.398438 0.500000
vt 0.398437 0.503846
vt 0.700000 0.503846
vt 0.625000 0.503846
vt 0.621698 0.489976
vt 0.662500 0.462500
vt 0.601562 0.503846
vt 0.601562 0.500000
vt 0.601562 0.425000
vt 0.375000 0.000000
vt 0.625000 0.000000
vt 0.625000 0.250000
vt 0.375000 0.250000
vt 0.625000 0.500000
vt 0.375000 0.500000
vt 0.625000 0.750000
vt 0.375000 0.750000
vt 0.625000 1.000000
vt 0.375000 1.000000
vt 0.125000 0.500000
vt 0.125000 0.750000
vt 0.875000 0.500000
vt 0.875000 0.750000
s 0
usemtl chrome
f 1/1/1 4/2/1 5/3/1 7/4/1
f 2/5/2 6/6/2 5/7/2 4/8/2
f 3/9/3 7/10/3 5/11/3 6/12/3
f 8/13/4 11/14/4 12/15/4 14/16/4
f 9/17/5 13/18/5 12/19/5 11/20/5
f 10/21/6 14/22/6 12/23/6 13/24/6
f 15/25/7 18/26/7 19/27/7 21/28/7
f 16/29/8 20/30/8 19/31/8 18/32/8
f 17/33/9 21/34/9 19/31/9 20/30/9
f 22/35/10 25/36/10 26/37/10 28/38/10
f 23/39/11 27/40/11 26/41/11 25/42/11
f 24/43/12 28/44/12 26/41/12 27/40/12
f 29/45/13 32/46/13 33/47/13 35/48/13
f 30/49/14 34/50/14 33/47/14 32/46/14
f 31/51/15 35/48/15 33/47/15 34/50/15
f 36/52/16 39/53/16 40/54/16 42/55/16
f 37/56/17 41/57/17 40/54/17 39/53/17
f 38/58/18 42/55/18 40/54/18 41/57/18
f 43/59/19 46/60/19 47/61/19 49/62/19
f 44/63/20 48/64/20 47/61/20 46/60/20
f 45/65/21 49/62/21 47/61/21 48/64/21
f 50/66/22 53/67/22 54/68/22 56/69/22
f 51/70/23 55/71/23 54/68/23 53/67/23
f 52/72/24 56/69/24 54/68/24 55/71/24
f 15/25/25 1/1/25 7/4/25 18/26/25
f 18/32/26 7/10/26 3/9/26 16/29/26
f 2/5/27 8/13/27 14/16/27 6/6/27
f 6/12/28 14/22/28 10/21/28 3/9/28
f 9/17/29 22/35/29 28/38/29 13/18/29
f 13/24/30 28/44/30 24/43/30 10/21/30
f 23/39/31 17/33/31 20/30/31 27/40/31
f 27/40/32 20/30/32 16/29/32 24/43/32
f 43/59/33 15/25/33 21/28/33 46/60/33
f 46/60/34 21/34/34 17/33/34 44/63/34
f 22/35/35 50/66/35 56/69/35 25/36/35
f 25/42/36 56/69/36 52/72/36 23/39/36
f 51/70/37 45/65/37 48/64/37 55/71/37
f 55/71/38 48/64/38 44/63/38 52/72/38
f 29/45/39 43/59/39 49/62/39 32/46/39
f 32/46/40 49/62/40 45/65/40 30/49/40
f 50/66/41 36/52/41 42/55/41 53/67/41
f 53/67/42 42/55/42 38/58/42 51/70/42
f 37/56/43 31/51/43 34/50/43 41/57/43
f 41/57/44 34/50/44 30/49/44 38/58/44
f 1/1/45 29/45/45 35/48/45 4/2/45
f 4/8/46 35/48/46 31/51/46 2/5/46
f 36/52/47 9/17/47 11/20/47 39/53/47
f 39/53/48 11/14/48 8/13/48 37/56/48
f 15/25/49 43/59/49 29/45/49 1/1/49
f 3/9/50 10/21/50 24/43/50 16/29/50
f 31/51/51 37/56/51 8/13/51 2/5/51
f 50/66/52 22/35/52 9/17/52 36/52/52
f 17/33/53 23/39/53 52/72/53 44/63/53
f 45/65/54 51/70/54 38/58/54 30/49/54
usemtl trim
f 57/73/50 58/74/50 60/75/50 59/76/50
f 59/76/53 60/75/53 64/77/53 63/78/53
f 63/78/54 64/77/54 62/79/54 61/80/54
f 61/80/51 62/79/51 58/81/51 57/82/51
f 59/83/49 63/78/49 61/80/49 57/84/49
f 64/77/52 60/85/52 58/86/52 62/79/52
f 65/73/50 66/74/50 68/75/50 67/76/50
f 67/76/53 68/75/53 72/77/53 71/78/53
f 71/78/54 72/77/54 70/79/54 69/80/54
f 69/80/51 70/79/51 66/81/51 65/82/51
f 67/83/49 71/78/49 69/80/49 65/84/49
f 72/77/52 68/85/52 66/86/52 70/79/52
