# Blender 5.1.2
# www.blender.org
mtllib door_r.mtl
o Cube
v -1.212000 -0.370000 0.012000
v -1.212000 -0.352000 0.030000
v -1.230000 -0.352000 0.012000
v -1.212000 -0.364728 0.024728
v -1.222392 -0.362392 0.022392
v -1.224728 -0.352000 0.024728
v -1.224728 -0.364728 0.012000
v -1.212000 0.392000 0.030000
v -1.212000 0.410000 0.012000
v -1.230000 0.392000 0.012000
v -1.212000 0.404728 0.024728
v -1.222392 0.402392 0.022392
v -1.224728 0.404728 0.012000
v -1.224728 0.392000 0.024728
v -1.212000 -0.370000 -0.012000
v -1.230000 -0.352000 -0.012000
v -1.212000 -0.352000 -0.030000
v -1.224728 -0.364728 -0.012000
v -1.222392 -0.362392 -0.022392
v -1.224728 -0.352000 -0.024728
v -1.212000 -0.364728 -0.024728
v -1.212000 0.410000 -0.012000
v -1.212000 0.392000 -0.030000
v -1.230000 0.392000 -0.012000
v -1.212000 0.404728 -0.024728
v -1.222392 0.402392 -0.022392
v -1.224728 0.392000 -0.024728
v -1.224728 0.404728 -0.012000
v -0.028000 -0.370000 0.012000
v -0.010000 -0.352000 0.012000
v -0.028000 -0.352000 0.030000
v -0.015272 -0.364728 0.012000
v -0.017608 -0.362392 0.022392
v -0.015272 -0.352000 0.024728
v -0.028000 -0.364728 0.024728
v -0.028000 0.410000 0.012000
v -0.028000 0.392000 0.030000
v -0.010000 0.392000 0.012000
v -0.028000 0.404728 0.024728
v -0.017608 0.402392 0.022392
v -0.015272 0.392000 0.024728
v -0.015272 0.404728 0.012000
v -0.028000 -0.370000 -0.012000
v -0.028000 -0.352000 -0.030000
v -0.010000 -0.352000 -0.012000
v -0.028000 -0.364728 -0.024728
v -0.017608 -0.362392 -0.022392
v -0.015272 -0.352000 -0.024728
v -0.015272 -0.364728 -0.012000
v -0.028000 0.410000 -0.012000
v -0.010000 0.392000 -0.012000
v -0.028000 0.392000 -0.030000
v -0.015272 0.404728 -0.012000
v -0.017608 0.402392 -0.022392
v -0.015272 0.392000 -0.024728
v -0.028000 0.404728 -0.024728
v -1.000000 0.400000 -0.107500
v -1.000000 0.920000 -0.107500
v -1.000000 0.400000 -0.152500
v -1.000000 0.920000 -0.152500
v -0.060000 0.400000 -0.107500
v -0.060000 0.920000 -0.107500
v -0.060000 0.400000 -0.152500
v -0.060000 0.920000 -0.152500
v -1.170000 0.255000 0.045000
v -1.170000 0.305000 0.045000
v -1.170000 0.255000 0.025000
v -1.170000 0.305000 0.025000
v -1.030000 0.255000 0.045000
v -1.030000 0.305000 0.045000
v -1.030000 0.255000 0.025000
v -1.030000 0.305000 0.025000
v -1.195000 -0.260000 0.039500
v -1.195000 -0.180000 0.039500
v -1.195000 -0.260000 0.024500
v -1.195000 -0.180000 0.024500
v -0.045000 -0.260000 0.039500
v -0.045000 -0.180000 0.039500
v -0.045000 -0.260000 0.024500
v -0.045000 -0.180000 0.024500
vn -0.3251 -0.8881 0.3251
vn -0.3251 -0.3251 0.8881
vn -0.8881 -0.3251 0.3251
vn -0.3251 0.3251 0.8881
vn -0.3251 0.8881 0.3251
vn -0.8881 0.3251 0.3251
vn -0.3251 -0.8881 -0.3251
vn -0.8881 -0.3251 -0.3251
vn -0.3251 -0.3251 -0.8881
vn -0.3251 0.8881 -0.3251
vn -0.3251 0.3251 -0.8881
vn -0.8881 0.3251 -0.3251
vn 0.3251 -0.8881 0.3251
vn 0.8881 -0.3251 0.3251
vn 0.3251 -0.3251 0.8881
vn 0.3251 0.8881 0.3251
vn 0.3251 0.3251 0.8881
vn 0.8881 0.3251 0.3251
vn 0.3251 -0.8881 -0.3251
vn 0.3251 -0.3251 -0.8881
vn 0.8881 -0.3251 -0.3251
vn 0.3251 0.8881 -0.3251
vn 0.8881 0.3251 -0.3251
vn 0.3251 0.3251 -0.8881
vn -0.3827 -0.9239 -0.0000
vn -0.9239 -0.3827 -0.0000
vn -0.3827 -0.0000 0.9239
vn -0.9239 -0.0000 0.3827
vn -0.3827 0.9239 -0.0000
vn -0.9239 0.3827 -0.0000
vn -0.3827 -0.0000 -0.9239
vn -0.9239 -0.0000 -0.3827
vn -0.0000 -0.9239 -0.3827
vn -0.0000 -0.3827 -0.9239
vn -0.0000 0.9239 -0.3827
vn -0.0000 0.3827 -0.9239
vn 0.9239 -0.0000 -0.3827
vn 0.3827 -0.0000 -0.9239
vn 0.3827 -0.9239 -0.0000
vn 0.9239 -0.3827 -0.0000
vn 0.3827 0.9239 -0.0000
vn 0.9239 0.3827 -0.0000
vn 0.3827 -0.0000 0.9239
vn 0.9239 -0.0000 0.3827
vn -0.0000 -0.9239 0.3827
vn -0.0000 -0.3827 0.9239
vn -0.0000 0.9239 0.3827
vn -0.0000 0.3827 0.9239
vn -0.0000 -1.0000 -0.0000
vn -1.0000 -0.0000 -0.0000
vn -0.0000 -0.0000 1.0000
vn -0.0000 1.0000 -0.0000
vn -0.0000 -0.0000 -1.0000
vn 1.0000 -0.0000 -0.0000
vt 0.128689 0.675000
vt 0.128689 0.750000
vt 0.126559 0.750000
vt 0.125000 0.675000
vt 0.380769 0.996311
vt 0.380769 1.000000
vt 0.377438 1.000000
vt 0.375000 0.996311
vt 0.380769 0.075000
vt 0.375000 0.075000
vt 0.375000 0.031699
vt 0.380769 0.000000
vt 0.619231 0.996311
vt 0.625000 0.996311
vt 0.625000 0.998441
vt 0.619231 1.000000
vt 0.871311 0.675000
vt 0.875000 0.675000
vt 0.875000 0.718301
vt 0.871311 0.750000
vt 0.619231 0.075000
vt 0.619231 0.000000
vt 0.622562 0.000000
vt 0.625000 0.075000
vt 0.128689 0.575000
vt 0.125000 0.575000
vt 0.125000 0.531699
vt 0.128689 0.500000
vt 0.380769 0.175000
vt 0.380769 0.250000
vt 0.376219 0.250779
vt 0.375000 0.175000
vt 0.380769 0.253689
vt 0.375000 0.253689
vt 0.871311 0.575000
vt 0.871311 0.500000
vt 0.873441 0.500000
vt 0.875000 0.575000
vt 0.619231 0.253689
vt 0.619231 0.250000
vt 0.623781 0.234151
vt 0.625000 0.253689
vt 0.619231 0.175000
vt 0.625000 0.175000
vt 0.371311 0.675000
vt 0.375000 0.675000
vt 0.375813 0.739953
vt 0.373156 0.751844
vt 0.380769 0.675000
vt 0.380769 0.750000
vt 0.380769 0.753689
vt 0.628689 0.675000
vt 0.626844 0.751844
vt 0.624707 0.739434
vt 0.625000 0.675000
vt 0.619231 0.753689
vt 0.619231 0.750000
vt 0.619231 0.675000
vt 0.371311 0.575000
vt 0.373156 0.498156
vt 0.375293 0.510566
vt 0.375000 0.575000
vt 0.380769 0.496311
vt 0.380769 0.500000
vt 0.380769 0.575000
vt 0.628689 0.575000
vt 0.625000 0.575000
vt 0.624187 0.510047
vt 0.626844 0.498156
vt 0.619231 0.575000
vt 0.619231 0.500000
vt 0.619231 0.496311
vt 0.375000 0.000000
vt 0.625000 0.000000
vt 0.625000 0.250000
vt 0.375000 0.250000
vt 0.625000 0.500000
vt 0.375000 0.500000
vt 0.625000 0.750000
vt 0.375000 0.750000
vt 0.625000 1.000000
vt 0.375000 1.000000
vt 0.125000 0.500000
vt 0.125000 0.750000
vt 0.875000 0.500000
vt 0.875000 0.750000
s 0
usemtl body_red
f 1/1/1 4/2/1 5/3/1 7/4/1
f 2/5/2 6/6/2 5/7/2 4/8/2
f 3/9/3 7/10/3 5/11/3 6/12/3
f 8/13/4 11/14/4 12/15/4 14/16/4
f 9/17/5 13/18/5 12/19/5 11/20/5
f 10/21/6 14/22/6 12/23/6 13/24/6
f 15/25/7 18/26/7 19/27/7 21/28/7
f 16/29/8 20/30/8 19/31/8 18/32/8
f 17/33/9 21/34/9 19/31/9 20/30/9
f 22/35/10 25/36/10 26/37/10 28/38/10
f 23/39/11 27/40/11 26/41/11 25/42/11
f 24/43/12 28/44/12 26/41/12 27/40/12
f 29/45/13 32/46/13 33/47/13 35/48/13
f 30/49/14 34/50/14 33/47/14 32/46/14
f 31/51/15 35/48/15 33/47/15 34/50/15
f 36/52/16 39/53/16 40/54/16 42/55/16
f 37/56/17 41/57/17 40/54/17 39/53/17
f 38/58/18 42/55/18 40/54/18 41/57/18
f 43/59/19 46/60/19 47/61/19 49/62/19
f 44/63/20 48/64/20 47/61/20 46/60/20
f 45/65/21 49/62/21 47/61/21 48/64/21
f 50/66/22 53/67/22 54/68/22 56/69/22
f 51/70/23 55/71/23 54/68/23 53/67/23
f 52/72/24 56/69/24 54/68/24 55/71/24
f 15/25/25 1/1/25 7/4/25 18/26/25
f 18/32/26 7/10/26 3/9/26 16/29/26
f 2/5/27 8/13/27 14/16/27 6/6/27
f 6/12/28 14/22/28 10/21/28 3/9/28
f 9/17/29 22/35/29 28/38/29 13/18/29
f 13/24/30 28/44/30 24/43/30 10/21/30
f 23/39/31 17/33/31 20/30/31 27/40/31
f 27/40/32 20/30/32 16/29/32 24/43/32
f 43/59/33 15/25/33 21/28/33 46/60/33
f 46/60/34 21/34/34 17/33/34 44/63/34
f 22/35/35 50/66/35 56/69/35 25/36/35
f 25/42/36 56/69/36 52/72/36 23/39/36
f 51/70/37 45/65/37 48/64/37 55/71/37
f 55/71/38 48/64/38 44/63/38 52/72/38
f 29/45/39 43/59/39 49/62/39 32/46/39
f 32/46/40 49/62/40 45/65/40 30/49/40
f 50/66/41 36/52/41 42/55/41 53/67/41
f 53/67/42 42/55/42 38/58/42 51/70/42
f 37/56/43 31/51/43 34/50/43 41/57/43
f 41/57/44 34/50/44 30/49/44 38/58/44
f 1/1/45 29/45/45 35/48/45 4/2/45
f 4/8/46 35/48/46 31/51/46 2/5/46
f 36/52/47 9/17/47 11/20/47 39/53/47
f 39/53/48 11/14/48 8/13/48 37/56/48
f 15/25/49 43/59/49 29/45/49 1/1/49
f 3/9/50 10/21/50 24/43/50 16/29/50
f 31/51/51 37/56/51 8/13/51 2/5/51
f 50/66/52 22/35/52 9/17/52 36/52/52
f 17/33/53 23/39/53 52/72/53 44/63/53
f 45/65/54 51/70/54 38/58/54 30/49/54
usemtl glass
f 57/73/50 58/74/50 60/75/50 59/76/50
f 59/76/53 60/75/53 64/77/53 63/78/53
f 63/78/54 64/77/54 62/79/54 61/80/54
f 61/80/51 62/79/51 58/81/51 57/82/51
f 59/83/49 63/78/49 61/80/49 57/84/49
f 64/77/52 60/85/52 58/86/52 62/79/52
usemtl chrome
f 65/73/50 66/74/50 68/75/50 67/76/50
f 67/76/53 68/75/53 72/77/53 71/78/53
f 71/78/54 72/77/54 70/79/54 69/80/54
f 69/80/51 70/79/51 66/81/51 65/82/51
f 67/83/49 71/78/49 69/80/49 65/84/49
f 72/77/52 68/85/52 66/86/52 70/79/52
usemtl trim
f 73/73/50 74/74/50 76/75/50 75/76/50
f 75/76/53 76/75/53 80/77/53 79/78/53
f 79/78/54 80/77/54 78/79/54 77/80/54
f 77/80/51 78/79/51 74/81/51 73/82/51
f 75/83/49 79/78/49 77/80/49 73/84/49
f 80/77/52 76/85/52 74/86/52 78/79/52
