# Blender 5.1.2
# www.blender.org
mtllib hood.mtl
o Cube
v 0.018000 -0.050000 0.682000
v 0.018000 -0.032000 0.700000
v 0.000000 -0.032000 0.682000
v 0.018000 -0.044728 0.694728
v 0.007608 -0.042392 0.692392
v 0.005272 -0.032000 0.694728
v 0.005272 -0.044728 0.682000
v 0.018000 -0.008000 0.700000
v 0.018000 0.010000 0.682000
v 0.000000 -0.008000 0.682000
v 0.018000 0.004728 0.694728
v 0.007608 0.002392 0.692392
v 0.005272 0.004728 0.682000
v 0.005272 -0.008000 0.694728
v 0.018000 -0.050000 -0.682000
v 0.000000 -0.032000 -0.682000
v 0.018000 -0.032000 -0.700000
v 0.005272 -0.044728 -0.682000
v 0.007608 -0.042392 -0.692392
v 0.005272 -0.032000 -0.694728
v 0.018000 -0.044728 -0.694728
v 0.018000 0.010000 -0.682000
v 0.018000 -0.008000 -0.700000
v 0.000000 -0.008000 -0.682000
v 0.018000 0.004728 -0.694728
v 0.007608 0.002392 -0.692392
v 0.005272 -0.008000 -0.694728
v 0.005272 0.004728 -0.682000
v 1.422000 -0.050000 0.682000
v 1.440000 -0.032000 0.682000
v 1.422000 -0.032000 0.700000
v 1.434728 -0.044728 0.682000
v 1.432392 -0.042392 0.692392
v 1.434728 -0.032000 0.694728
v 1.422000 -0.044728 0.694728
v 1.422000 0.010000 0.682000
v 1.422000 -0.008000 0.700000
v 1.440000 -0.008000 0.682000
v 1.422000 0.004728 0.694728
v 1.432392 0.002392 0.692392
v 1.434728 -0.008000 0.694728
v 1.434728 0.004728 0.682000
v 1.422000 -0.050000 -0.682000
v 1.422000 -0.032000 -0.700000
v 1.440000 -0.032000 -0.682000
v 1.422000 -0.044728 -0.694728
v 1.432392 -0.042392 -0.692392
v 1.434728 -0.032000 -0.694728
v 1.434728 -0.044728 -0.682000
v 1.422000 0.010000 -0.682000
v 1.440000 -0.008000 -0.682000
v 1.422000 -0.008000 -0.700000
v 1.434728 0.004728 -0.682000
v 1.432392 0.002392 -0.692392
v 1.434728 -0.008000 -0.694728
v 1.422000 0.004728 -0.694728
v 0.175000 0.010000 0.365000
v 0.175000 0.025000 0.380000
v 0.160000 0.025000 0.365000
v 0.175000 0.014393 0.375607
v 0.166340 0.016340 0.373660
v 0.164393 0.025000 0.375607
v 0.164393 0.014393 0.365000
v 0.175000 0.045000 0.380000
v 0.175000 0.060000 0.365000
v 0.160000 0.045000 0.365000
v 0.175000 0.055607 0.375607
v 0.166340 0.053660 0.373660
v 0.164393 0.055607 0.365000
v 0.164393 0.045000 0.375607
v 0.175000 0.010000 -0.365000
v 0.160000 0.025000 -0.365000
v 0.175000 0.025000 -0.380000
v 0.164393 0.014393 -0.365000
v 0.166340 0.016340 -0.373660
v 0.164393 0.025000 -0.375607
v 0.175000 0.014393 -0.375607
v 0.175000 0.060000 -0.365000
v 0.175000 0.045000 -0.380000
v 0.160000 0.045000 -0.365000
v 0.175000 0.055607 -0.375607
v 0.166340 0.053660 -0.373660
v 0.164393 0.045000 -0.375607
v 0.164393 0.055607 -0.365000
v 1.065000 0.010000 0.365000
v 1.080000 0.025000 0.365000
v 1.065000 0.025000 0.380000
v 1.075607 0.014393 0.365000
v 1.073660 0.016340 0.373660
v 1.075607 0.025000 0.375607
v 1.065000 0.014393 0.375607
v 1.065000 0.060000 0.365000
v 1.065000 0.045000 0.380000
v 1.080000 0.045000 0.365000
v 1.065000 0.055607 0.375607
v 1.073660 0.053660 0.373660
v 1.075607 0.045000 0.375607
v 1.075607 0.055607 0.365000
v 1.065000 0.010000 -0.365000
v 1.065000 0.025000 -0.380000
v 1.080000 0.025000 -0.365000
v 1.065000 0.014393 -0.375607
v 1.073660 0.016340 -0.373660
v 1.075607 0.025000 -0.375607
v 1.075607 0.014393 -0.365000
v 1.065000 0.060000 -0.365000
v 1.080000 0.045000 -0.365000
v 1.065000 0.045000 -0.380000
v 1.075607 0.055607 -0.365000
v 1.073660 0.053660 -0.373660
v 1.075607 0.045000 -0.375607
v 1.065000 0.055607 -0.375607
vn -0.3251 -0.8881 0.3251
vn -0.3251 -0.3251 0.8881
vn -0.8881 -0.3251 0.3251
vn -0.3251 0.3251 0.8881
vn -0.3251 0.8881 0.3251
vn -0.8881 0.3251 0.3251
vn -0.3251 -0.8881 -0.3251
vn -0.8881 -0.3251 -0.3251
vn -0.3251 -0.3251 -0.8881
vn -0.3251 0.8881 -0.3251
vn -0.3251 0.3251 -0.8881
vn -0.8881 0.3251 -0.3251
vn 0.3251 -0.8881 0.3251
vn 0.8881 -0.3251 0.3251
vn 0.3251 -0.3251 0.8881
vn 0.3251 0.8881 0.3251
vn 0.3251 0.3251 0.8881
vn 0.8881 0.3251 0.3251
vn 0.3251 -0.8881 -0.3251
vn 0.3251 -0.3251 -0.8881
vn 0.8881 -0.3251 -0.3251
vn 0.3251 0.8881 -0.3251
vn 0.8881 0.3251 -0.3251
vn 0.3251 0.3251 -0.8881
vn -0.3827 -0.9239 -0.0000
vn -0.9239 -0.3827 -0.0000
vn -0.3827 -0.0000 0.9239
vn -0.9239 -0.0000 0.3827
vn -0.3827 0.9239 -0.0000
vn -0.9239 0.3827 -0.0000
vn -0.3827 -0.0000 -0.9239
vn -0.9239 -0.0000 -0.3827
vn -0.0000 -0.9239 -0.3827
vn -0.0000 -0.3827 -0.9239
vn -0.0000 0.9239 -0.3827
vn -0.0000 0.3827 -0.9239
vn 0.9239 -0.0000 -0.3827
vn 0.3827 -0.0000 -0.9239
vn 0.3827 -0.9239 -0.0000
vn 0.9239 -0.3827 -0.0000
vn 0.3827 0.9239 -0.0000
vn 0.9239 0.3827 -0.0000
vn 0.3827 -0.0000 0.9239
vn 0.9239 -0.0000 0.3827
vn -0.0000 -0.9239 0.3827
vn -0.0000 -0.3827 0.9239
vn -0.0000 0.9239 0.3827
vn -0.0000 0.3827 0.9239
vn -0.0000 -1.0000 -0.0000
vn -1.0000 -0.0000 -0.0000
vn -0.0000 -0.0000 1.0000
vn -0.0000 1.0000 -0.0000
vn -0.0000 -0.0000 -1.0000
vn 1.0000 -0.0000 -0.0000
vt 0.128125 0.746786
vt 0.128125 0.750000
vt 0.126321 0.750000
vt 0.125000 0.746786
vt 0.450000 0.996875
vt 0.450000 1.000000
vt 0.406699 1.000000
vt 0.375000 0.996875
vt 0.450000 0.003214
vt 0.375000 0.003214
vt 0.375000 0.001359
vt 0.450000 0.000000
vt 0.550000 0.996875
vt 0.625000 0.996875
vt 0.625000 0.998679
vt 0.550000 1.000000
vt 0.871875 0.746786
vt 0.875000 0.746786
vt 0.875000 0.748641
vt 0.871875 0.750000
vt 0.550000 0.003214
vt 0.550000 0.000000
vt 0.593301 0.000000
vt 0.625000 0.003214
vt 0.128125 0.503214
vt 0.125000 0.503214
vt 0.125000 0.501359
vt 0.128125 0.500000
vt 0.450000 0.246786
vt 0.450000 0.250000
vt 0.390849 0.250660
vt 0.375000 0.246786
vt 0.450000 0.253125
vt 0.375000 0.253125
vt 0.871875 0.503214
vt 0.871875 0.500000
vt 0.873679 0.500000
vt 0.875000 0.503214
vt 0.550000 0.253125
vt 0.550000 0.250000
vt 0.609151 0.249321
vt 0.625000 0.253125
vt 0.550000 0.246786
vt 0.625000 0.246786
vt 0.371875 0.746786
vt 0.375000 0.746786
vt 0.385566 0.749987
vt 0.373438 0.751562
vt 0.450000 0.746786
vt 0.450000 0.750000
vt 0.450000 0.753125
vt 0.628125 0.746786
vt 0.626562 0.751562
vt 0.614874 0.749547
vt 0.625000 0.746786
vt 0.550000 0.753125
vt 0.550000 0.750000
vt 0.550000 0.746786
vt 0.371875 0.503214
vt 0.373438 0.498438
vt 0.385126 0.500453
vt 0.375000 0.503214
vt 0.450000 0.496875
vt 0.450000 0.500000
vt 0.450000 0.503214
vt 0.628125 0.503214
vt 0.625000 0.503214
vt 0.614434 0.500013
vt 0.626562 0.498438
vt 0.550000 0.503214
vt 0.550000 0.500000
vt 0.550000 0.496875
vt 0.129076 0.745066
vt 0.129076 0.750000
vt 0.126723 0.750000
vt 0.125000 0.745066
vt 0.450000 0.995924
vt 0.406699 1.000000
vt 0.375000 0.995924
vt 0.450000 0.004934
vt 0.375000 0.004934
vt 0.375000 0.002085
vt 0.550000 0.995924
vt 0.625000 0.995924
vt 0.625000 0.998277
vt 0.870924 0.745066
vt 0.875000 0.745066
vt 0.875000 0.747915
vt 0.870924 0.750000
vt 0.550000 0.004934
vt 0.593301 0.000000
vt 0.625000 0.004934
vt 0.129076 0.504934
vt 0.125000 0.504934
vt 0.125000 0.502085
vt 0.129076 0.500000
vt 0.450000 0.245066
vt 0.390849 0.250861
vt 0.375000 0.245066
vt 0.450000 0.254076
vt 0.375000 0.254076
vt 0.870924 0.504934
vt 0.870924 0.500000
vt 0.873277 0.500000
vt 0.875000 0.504934
vt 0.550000 0.254076
vt 0.609151 0.248957
vt 0.625000 0.254076
vt 0.550000 0.245066
vt 0.625000 0.245066
vt 0.370924 0.745066
vt 0.375000 0.745066
vt 0.385566 0.749879
vt 0.372962 0.752038
vt 0.450000 0.745066
vt 0.450000 0.754076
vt 0.629076 0.745066
vt 0.627038 0.752038
vt 0.615008 0.749305
vt 0.625000 0.745066
vt 0.550000 0.754076
vt 0.550000 0.745066
vt 0.370924 0.504934
vt 0.372962 0.497962
vt 0.384992 0.500695
vt 0.375000 0.504934
vt 0.450000 0.495924
vt 0.450000 0.504934
vt 0.629076 0.504934
vt 0.625000 0.504934
vt 0.614434 0.500121
vt 0.627038 0.497962
vt 0.550000 0.504934
vt 0.550000 0.495924
s 0
usemtl body_red
f 1/1/1 4/2/1 5/3/1 7/4/1
f 2/5/2 6/6/2 5/7/2 4/8/2
f 3/9/3 7/10/3 5/11/3 6/12/3
f 8/13/4 11/14/4 12/15/4 14/16/4
f 9/17/5 13/18/5 12/19/5 11/20/5
f 10/21/6 14/22/6 12/23/6 13/24/6
f 15/25/7 18/26/7 19/27/7 21/28/7
f 16/29/8 20/30/8 19/31/8 18/32/8
f 17/33/9 21/34/9 19/31/9 20/30/9
f 22/35/10 25/36/10 26/37/10 28/38/10
f 23/39/11 27/40/11 26/41/11 25/42/11
f 24/43/12 28/44/12 26/41/12 27/40/12
f 29/45/13 32/46/13 33/47/13 35/48/13
f 30/49/14 34/50/14 33/47/14 32/46/14
f 31/51/15 35/48/15 33/47/15 34/50/15
f 36/52/16 39/53/16 40/54/16 42/55/16
f 37/56/17 41/57/17 40/54/17 39/53/17
f 38/58/18 42/55/18 40/54/18 41/57/18
f 43/59/19 46/60/19 47/61/19 49/62/19
f 44/63/20 48/64/20 47/61/20 46/60/20
f 45/65/21 49/62/21 47/61/21 48/64/21
f 50/66/22 53/67/22 54/68/22 56/69/22
f 51/70/23 55/71/23 54/68/23 53/67/23
f 52/72/24 56/69/24 54/68/24 55/71/24
f 15/25/25 1/1/25 7/4/25 18/26/25
f 18/32/26 7/10/26 3/9/26 16/29/26
f 2/5/27 8/13/27 14/16/27 6/6/27
f 6/12/28 14/22/28 10/21/28 3/9/28
f 9/17/29 22/35/29 28/38/29 13/18/29
f 13/24/30 28/44/30 24/43/30 10/21/30
f 23/39/31 17/33/31 20/30/31 27/40/31
f 27/40/32 20/30/32 16/29/32 24/43/32
f 43/59/33 15/25/33 21/28/33 46/60/33
f 46/60/34 21/34/34 17/33/34 44/63/34
f 22/35/35 50/66/35 56/69/35 25/36/35
f 25/42/36 56/69/36 52/72/36 23/39/36
f 51/70/37 45/65/37 48/64/37 55/71/37
f 55/71/38 48/64/38 44/63/38 52/72/38
f 29/45/39 43/59/39 49/62/39 32/46/39
f 32/46/40 49/62/40 45/65/40 30/49/40
f 50/66/41 36/52/41 42/55/41 53/67/41
f 53/67/42 42/55/42 38/58/42 51/70/42
f 37/56/43 31/51/43 34/50/43 41/57/43
f 41/57/44 34/50/44 30/49/44 38/58/44
f 1/1/45 29/45/45 35/48/45 4/2/45
f 4/8/46 35/48/46 31/51/46 2/5/46
f 36/52/47 9/17/47 11/20/47 39/53/47
f 39/53/48 11/14/48 8/13/48 37/56/48
f 15/25/49 43/59/49 29/45/49 1/1/49
f 3/9/50 10/21/50 24/43/50 16/29/50
f 31/51/51 37/56/51 8/13/51 2/5/51
f 50/66/52 22/35/52 9/17/52 36/52/52
f 17/33/53 23/39/53 52/72/53 44/63/53
f 45/65/54 51/70/54 38/58/54 30/49/54
f 57/73/1 60/74/1 61/75/1 63/76/1
f 58/77/2 62/6/2 61/78/2 60/79/2
f 59/80/3 63/81/3 61/82/3 62/12/3
f 64/83/4 67/84/4 68/85/4 70/16/4
f 65/86/5 69/87/5 68/88/5 67/89/5
f 66/90/6 70/22/6 68/91/6 69/92/6
f 71/93/7 74/94/7 75/95/7 77/96/7
f 72/97/8 76/30/8 75/98/8 74/99/8
f 73/100/9 77/101/9 75/98/9 76/30/9
f 78/102/10 81/103/10 82/104/10 84/105/10
f 79/106/11 83/40/11 82/107/11 81/108/11
f 80/109/12 84/110/12 82/107/12 83/40/12
f 85/111/13 88/112/13 89/113/13 91/114/13
f 86/115/14 90/50/14 89/113/14 88/112/14
f 87/116/15 91/114/15 89/113/15 90/50/15
f 92/117/16 95/118/16 96/119/16 98/120/16
f 93/121/17 97/57/17 96/119/17 95/118/17
f 94/122/18 98/120/18 96/119/18 97/57/18
f 99/123/19 102/124/19 103/125/19 105/126/19
f 100/127/20 104/64/20 103/125/20 102/124/20
f 101/128/21 105/126/21 103/125/21 104/64/21
f 106/129/22 109/130/22 110/131/22 112/132/22
f 107/133/23 111/71/23 110/131/23 109/130/23
f 108/134/24 112/132/24 110/131/24 111/71/24
f 71/93/25 57/73/25 63/76/25 74/94/25
f 74/99/26 63/81/26 59/80/26 72/97/26
f 58/77/27 64/83/27 70/16/27 62/6/27
f 62/12/28 70/22/28 66/90/28 59/80/28
f 65/86/29 78/102/29 84/105/29 69/87/29
f 69/92/30 84/110/30 80/109/30 66/90/30
f 79/106/31 73/100/31 76/30/31 83/40/31
f 83/40/32 76/30/32 72/97/32 80/109/32
f 99/123/33 71/93/33 77/96/33 102/124/33
f 102/124/34 77/101/34 73/100/34 100/127/34
f 78/102/35 106/129/35 112/132/35 81/103/35
f 81/108/36 112/132/36 108/134/36 79/106/36
f 107/133/37 101/128/37 104/64/37 111/71/37
f 111/71/38 104/64/38 100/127/38 108/134/38
f 85/111/39 99/123/39 105/126/39 88/112/39
f 88/112/40 105/126/40 101/128/40 86/115/40
f 106/129/41 92/117/41 98/120/41 109/130/41
f 109/130/42 98/120/42 94/122/42 107/133/42
f 93/121/43 87/116/43 90/50/43 97/57/43
f 97/57/44 90/50/44 86/115/44 94/122/44
f 57/73/45 85/111/45 91/114/45 60/74/45
f 60/79/46 91/114/46 87/116/46 58/77/46
f 92/117/47 65/86/47 67/89/47 95/118/47
f 95/118/48 67/84/48 64/83/48 93/121/48
f 71/93/49 99/123/49 85/111/49 57/73/49
f 59/80/50 66/90/50 80/109/50 72/97/50
f 87/116/51 93/121/51 64/83/51 58/77/51
f 106/129/52 78/102/52 65/86/52 92/117/52
f 73/100/53 79/106/53 108/134/53 100/127/53
f 101/128/54 107/133/54 94/122/54 86/115/54
