# Blender 5.1.2
# www.blender.org
mtllib trunk.mtl
o Cube
v -0.414593 -0.380918 0.540000
v -0.446732 -0.342615 0.540000
v -0.414593 -0.380918 -0.540000
v -0.446732 -0.342615 -0.540000
v 0.006732 -0.027385 0.540000
v -0.025407 0.010918 0.540000
v 0.006732 -0.027385 -0.540000
v -0.025407 0.010918 -0.540000
v -0.523599 -0.476001 0.554000
v -0.533884 -0.463744 0.570000
v -0.546140 -0.474029 0.554000
v -0.526611 -0.472411 0.565314
v -0.535022 -0.476758 0.563238
v -0.542550 -0.471017 0.565314
v -0.535278 -0.479683 0.554000
v -0.545454 -0.449955 0.570000
v -0.555738 -0.437699 0.554000
v -0.557710 -0.460240 0.554000
v -0.552726 -0.441289 0.565314
v -0.558468 -0.448817 0.563238
v -0.561393 -0.448561 0.554000
v -0.554121 -0.457228 0.565314
v -0.523599 -0.476001 -0.554000
v -0.546140 -0.474029 -0.554000
v -0.533884 -0.463744 -0.570000
v -0.535278 -0.479683 -0.554000
v -0.535022 -0.476758 -0.563238
v -0.542550 -0.471017 -0.565314
v -0.526611 -0.472411 -0.565314
v -0.555738 -0.437699 -0.554000
v -0.545454 -0.449955 -0.570000
v -0.557710 -0.460240 -0.554000
v -0.552726 -0.441289 -0.565314
v -0.558468 -0.448817 -0.563238
v -0.554121 -0.457228 -0.565314
v -0.561393 -0.448561 -0.554000
v -0.364262 -0.342301 0.554000
v -0.362290 -0.319760 0.554000
v -0.374546 -0.330044 0.570000
v -0.358607 -0.331439 0.554000
v -0.361532 -0.331183 0.563238
v -0.365880 -0.322772 0.565314
v -0.367274 -0.338711 0.565314
v -0.396401 -0.303999 0.554000
v -0.386117 -0.316256 0.570000
v -0.373860 -0.305971 0.554000
v -0.393389 -0.307589 0.565314
v -0.384978 -0.303241 0.563238
v -0.377450 -0.308983 0.565314
v -0.384722 -0.300317 0.554000
v -0.364262 -0.342301 -0.554000
v -0.374546 -0.330044 -0.570000
v -0.362290 -0.319760 -0.554000
v -0.367274 -0.338711 -0.565314
v -0.361532 -0.331183 -0.563238
v -0.365880 -0.322772 -0.565314
v -0.358607 -0.331439 -0.554000
v -0.396401 -0.303999 -0.554000
v -0.373860 -0.305971 -0.554000
v -0.386117 -0.316256 -0.570000
v -0.384722 -0.300317 -0.554000
v -0.384978 -0.303241 -0.563238
v -0.377450 -0.308983 -0.565314
v -0.393389 -0.307589 -0.565314
v -0.536707 -0.490089 0.180000
v -0.572060 -0.447957 0.180000
v -0.536707 -0.490089 -0.180000
v -0.572060 -0.447957 -0.180000
v -0.414140 -0.387243 0.180000
v -0.449493 -0.345111 0.180000
v -0.414140 -0.387243 -0.180000
v -0.449493 -0.345111 -0.180000
vn -0.7660 -0.6428 -0.0000
vn -0.0000 -0.0000 -1.0000
vn 0.7660 0.6428 -0.0000
vn -0.0000 -0.0000 1.0000
vn 0.6428 -0.7660 -0.0000
vn -0.6428 0.7660 -0.0000
vn 0.3218 -0.8892 0.3251
vn -0.0401 -0.4580 0.8881
vn -0.4714 -0.8199 0.3251
vn -0.4580 0.0401 0.8881
vn -0.8199 0.4714 0.3251
vn -0.8892 -0.3218 0.3251
vn 0.3218 -0.8892 -0.3251
vn -0.4714 -0.8199 -0.3251
vn -0.0401 -0.4580 -0.8881
vn -0.8199 0.4714 -0.3251
vn -0.4580 0.0401 -0.8881
vn -0.8892 -0.3218 -0.3251
vn 0.8198 -0.4714 0.3251
vn 0.8892 0.3218 0.3251
vn 0.4580 -0.0401 0.8881
vn -0.3218 0.8892 0.3251
vn 0.0401 0.4580 0.8881
vn 0.4714 0.8198 0.3251
vn 0.8198 -0.4714 -0.3251
vn 0.4580 -0.0401 -0.8881
vn 0.8892 0.3218 -0.3251
vn -0.3218 0.8892 -0.3251
vn 0.4714 0.8198 -0.3251
vn 0.0401 0.4580 -0.8881
vn 0.3007 -0.9537 -0.0000
vn -0.4617 -0.8870 -0.0000
vn -0.2932 -0.2460 0.9239
vn -0.7077 -0.5939 0.3827
vn -0.8870 0.4617 -0.0000
vn -0.9537 -0.3007 -0.0000
vn -0.2932 -0.2460 -0.9239
vn -0.7077 -0.5939 -0.3827
vn 0.5939 -0.7077 -0.3827
vn 0.2460 -0.2932 -0.9239
vn -0.5939 0.7077 -0.3827
vn -0.2460 0.2932 -0.9239
vn 0.7077 0.5939 -0.3827
vn 0.2932 0.2460 -0.9239
vn 0.8870 -0.4617 -0.0000
vn 0.9537 0.3007 -0.0000
vn -0.3007 0.9537 -0.0000
vn 0.4617 0.8870 -0.0000
vn 0.2932 0.2460 0.9239
vn 0.7077 0.5939 0.3827
vn 0.5939 -0.7077 0.3827
vn 0.2460 -0.2932 0.9239
vn -0.5939 0.7077 0.3827
vn -0.2460 0.2932 0.9239
vt 0.375000 0.000000
vt 0.625000 0.000000
vt 0.625000 0.250000
vt 0.375000 0.250000
vt 0.625000 0.500000
vt 0.375000 0.500000
vt 0.625000 0.750000
vt 0.375000 0.750000
vt 0.625000 1.000000
vt 0.375000 1.000000
vt 0.125000 0.500000
vt 0.125000 0.750000
vt 0.875000 0.500000
vt 0.875000 0.750000
vt 0.141667 0.746491
vt 0.141667 0.750000
vt 0.132044 0.750000
vt 0.125000 0.746491
vt 0.455000 0.983333
vt 0.455000 1.000000
vt 0.408812 1.000000
vt 0.375000 0.983333
vt 0.455000 0.003509
vt 0.375000 0.003509
vt 0.375000 0.001483
vt 0.455000 0.000000
vt 0.545000 0.983333
vt 0.625000 0.983333
vt 0.625000 0.992956
vt 0.545000 1.000000
vt 0.858333 0.746491
vt 0.875000 0.746491
vt 0.875000 0.748517
vt 0.858333 0.750000
vt 0.545000 0.003509
vt 0.545000 0.000000
vt 0.591188 0.000000
vt 0.625000 0.003509
vt 0.141667 0.503509
vt 0.125000 0.503509
vt 0.125000 0.501483
vt 0.141667 0.500000
vt 0.455000 0.246491
vt 0.455000 0.250000
vt 0.391906 0.253522
vt 0.375000 0.246491
vt 0.455000 0.266667
vt 0.375000 0.266667
vt 0.858333 0.503509
vt 0.858333 0.500000
vt 0.867956 0.500000
vt 0.875000 0.503509
vt 0.545000 0.266667
vt 0.545000 0.250000
vt 0.608094 0.249259
vt 0.625000 0.266667
vt 0.545000 0.246491
vt 0.625000 0.246491
vt 0.358333 0.746491
vt 0.375000 0.746491
vt 0.386271 0.751854
vt 0.366667 0.758333
vt 0.455000 0.746491
vt 0.455000 0.750000
vt 0.455000 0.766667
vt 0.641667 0.746491
vt 0.633333 0.758333
vt 0.616077 0.749506
vt 0.625000 0.746491
vt 0.545000 0.766667
vt 0.545000 0.750000
vt 0.545000 0.746491
vt 0.358333 0.503509
vt 0.366667 0.491667
vt 0.383923 0.500494
vt 0.375000 0.503509
vt 0.455000 0.483333
vt 0.455000 0.500000
vt 0.455000 0.503509
vt 0.641667 0.503509
vt 0.625000 0.503509
vt 0.613729 0.498146
vt 0.633333 0.491667
vt 0.545000 0.503509
vt 0.545000 0.500000
vt 0.545000 0.483333
s 0
usemtl glass
f 1/1/1 2/2/1 4/3/1 3/4/1
f 3/4/2 4/3/2 8/5/2 7/6/2
f 7/6/3 8/5/3 6/7/3 5/8/3
f 5/8/4 6/7/4 2/9/4 1/10/4
f 3/11/5 7/6/5 5/8/5 1/12/5
f 8/5/6 4/13/6 2/14/6 6/7/6
usemtl body_orange
f 9/15/7 12/16/7 13/17/7 15/18/7
f 10/19/8 14/20/8 13/21/8 12/22/8
f 11/23/9 15/24/9 13/25/9 14/26/9
f 16/27/10 19/28/10 20/29/10 22/30/10
f 17/31/11 21/32/11 20/33/11 19/34/11
f 18/35/12 22/36/12 20/37/12 21/38/12
f 23/39/13 26/40/13 27/41/13 29/42/13
f 24/43/14 28/44/14 27/45/14 26/46/14
f 25/47/15 29/48/15 27/45/15 28/44/15
f 30/49/16 33/50/16 34/51/16 36/52/16
f 31/53/17 35/54/17 34/55/17 33/56/17
f 32/57/18 36/58/18 34/55/18 35/54/18
f 37/59/19 40/60/19 41/61/19 43/62/19
f 38/63/20 42/64/20 41/61/20 40/60/20
f 39/65/21 43/62/21 41/61/21 42/64/21
f 44/66/22 47/67/22 48/68/22 50/69/22
f 45/70/23 49/71/23 48/68/23 47/67/23
f 46/72/24 50/69/24 48/68/24 49/71/24
f 51/73/25 54/74/25 55/75/25 57/76/25
f 52/77/26 56/78/26 55/75/26 54/74/26
f 53/79/27 57/76/27 55/75/27 56/78/27
f 58/80/28 61/81/28 62/82/28 64/83/28
f 59/84/29 63/85/29 62/82/29 61/81/29
f 60/86/30 64/83/30 62/82/30 63/85/30
f 23/39/31 9/15/31 15/18/31 26/40/31
f 26/46/32 15/24/32 11/23/32 24/43/32
f 10/19/33 16/27/33 22/30/33 14/20/33
f 14/26/34 22/36/34 18/35/34 11/23/34
f 17/31/35 30/49/35 36/52/35 21/32/35
f 21/38/36 36/58/36 32/57/36 18/35/36
f 31/53/37 25/47/37 28/44/37 35/54/37
f 35/54/38 28/44/38 24/43/38 32/57/38
f 51/73/39 23/39/39 29/42/39 54/74/39
f 54/74/40 29/48/40 25/47/40 52/77/40
f 30/49/41 58/80/41 64/83/41 33/50/41
f 33/56/42 64/83/42 60/86/42 31/53/42
f 59/84/43 53/79/43 56/78/43 63/85/43
f 63/85/44 56/78/44 52/77/44 60/86/44
f 37/59/45 51/73/45 57/76/45 40/60/45
f 40/60/46 57/76/46 53/79/46 38/63/46
f 58/80/47 44/66/47 50/69/47 61/81/47
f 61/81/48 50/69/48 46/72/48 59/84/48
f 45/70/49 39/65/49 42/64/49 49/71/49
f 49/71/50 42/64/50 38/63/50 46/72/50
f 9/15/51 37/59/51 43/62/51 12/16/51
f 12/22/52 43/62/52 39/65/52 10/19/52
f 44/66/53 17/31/53 19/34/53 47/67/53
f 47/67/54 19/28/54 16/27/54 45/70/54
f 23/39/5 51/73/5 37/59/5 9/15/5
f 11/23/1 18/35/1 32/57/1 24/43/1
f 39/65/4 45/70/4 16/27/4 10/19/4
f 58/80/6 30/49/6 17/31/6 44/66/6
f 25/47/2 31/53/2 60/86/2 52/77/2
f 53/79/3 59/84/3 46/72/3 38/63/3
usemtl trim
f 65/1/1 66/2/1 68/3/1 67/4/1
f 67/4/2 68/3/2 72/5/2 71/6/2
f 71/6/3 72/5/3 70/7/3 69/8/3
f 69/8/4 70/7/4 66/9/4 65/10/4
f 67/11/5 71/6/5 69/8/5 65/12/5
f 72/5/6 68/13/6 66/14/6 70/7/6
