# Blender 5.1.2
# www.blender.org
mtllib wheel.mtl
o Cylinder
v 0.000000 0.274784 -0.120000
v 0.000000 0.300000 -0.095000
v 0.000000 0.292614 -0.112678
v 0.000000 0.274784 0.120000
v 0.000000 0.300000 0.095000
v 0.000000 0.292614 0.112678
v 0.071119 0.265421 -0.120000
v 0.077646 0.289778 -0.095000
v 0.075734 0.282644 -0.112678
v 0.071119 0.265421 0.120000
v 0.077646 0.289778 0.095000
v 0.075734 0.282644 0.112678
v 0.137392 0.237970 -0.120000
v 0.150000 0.259808 -0.095000
v 0.146307 0.253412 -0.112678
v 0.137392 0.237970 0.120000
v 0.150000 0.259808 0.095000
v 0.146307 0.253412 0.112678
v 0.194302 0.194302 -0.120000
v 0.212132 0.212132 -0.095000
v 0.206910 0.206910 -0.112678
v 0.194302 0.194302 0.120000
v 0.212132 0.212132 0.095000
v 0.206910 0.206910 0.112678
v 0.237970 0.137392 -0.120000
v 0.259808 0.150000 -0.095000
v 0.253412 0.146307 -0.112678
v 0.237970 0.137392 0.120000
v 0.259808 0.150000 0.095000
v 0.253412 0.146307 0.112678
v 0.265421 0.071119 -0.120000
v 0.289778 0.077646 -0.095000
v 0.282644 0.075734 -0.112678
v 0.265421 0.071119 0.120000
v 0.289778 0.077646 0.095000
v 0.282644 0.075734 0.112678
v 0.274784 0.000000 -0.120000
v 0.300000 0.000000 -0.095000
v 0.292614 0.000000 -0.112678
v 0.274784 -0.000000 0.120000
v 0.300000 -0.000000 0.095000
v 0.292614 -0.000000 0.112678
v 0.265421 -0.071119 -0.120000
v 0.289778 -0.077646 -0.095000
v 0.282644 -0.075734 -0.112678
v 0.265421 -0.071119 0.120000
v 0.289778 -0.077646 0.095000
v 0.282644 -0.075734 0.112678
v 0.237970 -0.137392 -0.120000
v 0.259808 -0.150000 -0.095000
v 0.253412 -0.146307 -0.112678
v 0.237970 -0.137392 0.120000
v 0.259808 -0.150000 0.095000
v 0.253412 -0.146307 0.112678
v 0.194302 -0.194302 -0.120000
v 0.212132 -0.212132 -0.095000
v 0.206910 -0.206910 -0.112678
v 0.194302 -0.194302 0.120000
v 0.212132 -0.212132 0.095000
v 0.206910 -0.206910 0.112678
v 0.137392 -0.237970 -0.120000
v 0.150000 -0.259808 -0.095000
v 0.146307 -0.253412 -0.112678
v 0.137392 -0.237970 0.120000
v 0.150000 -0.259808 0.095000
v 0.146307 -0.253412 0.112678
v 0.071119 -0.265421 -0.120000
v 0.077646 -0.289778 -0.095000
v 0.075734 -0.282644 -0.112678
v 0.071119 -0.265421 0.120000
v 0.077646 -0.289778 0.095000
v 0.075734 -0.282644 0.112678
v 0.000000 -0.274784 -0.120000
v 0.000000 -0.300000 -0.095000
v 0.000000 -0.292614 -0.112678
v 0.000000 -0.274784 0.120000
v 0.000000 -0.300000 0.095000
v 0.000000 -0.292614 0.112678
v -0.071119 -0.265421 -0.120000
v -0.077646 -0.289778 -0.095000
v -0.075734 -0.282644 -0.112678
v -0.071119 -0.265421 0.120000
v -0.077646 -0.289778 0.095000
v -0.075734 -0.282644 0.112678
v -0.137392 -0.237970 -0.120000
v -0.150000 -0.259808 -0.095000
v -0.146307 -0.253412 -0.112678
v -0.137392 -0.237970 0.120000
v -0.150000 -0.259808 0.095000
v -0.146307 -0.253412 0.112678
v -0.194302 -0.194302 -0.120000
v -0.212132 -0.212132 -0.095000
v -0.206910 -0.206910 -0.112678
v -0.194302 -0.194302 0.120000
v -0.212132 -0.212132 0.095000
v -0.206910 -0.206910 0.112678
v -0.237970 -0.137392 -0.120000
v -0.259808 -0.150000 -0.095000
v -0.253412 -0.146307 -0.112678
v -0.237970 -0.137392 0.120000
v -0.259808 -0.150000 0.095000
v -0.253412 -0.146307 0.112678
v -0.265421 -0.071119 -0.120000
v -0.289778 -0.077646 -0.095000
v -0.282644 -0.075734 -0.112678
v -0.265421 -0.071119 0.120000
v -0.289778 -0.077646 0.095000
v -0.282644 -0.075734 0.112678
v -0.274784 0.000000 -0.120000
v -0.300000 0.000000 -0.095000
v -0.292614 0.000000 -0.112678
v -0.274784 -0.000000 0.120000
v -0.300000 -0.000000 0.095000
v -0.292614 -0.000000 0.112678
v -0.265421 0.071119 -0.120000
v -0.289778 0.077646 -0.095000
v -0.282644 0.075734 -0.112678
v -0.265421 0.071119 0.120000
v -0.289778 0.077646 0.095000
v -0.282644 0.075734 0.112678
v -0.237970 0.137392 -0.120000
v -0.259808 0.150000 -0.095000
v -0.253412 0.146307 -0.112678
v -0.237970 0.137392 0.120000
v -0.259808 0.150000 0.095000
v -0.253412 0.146307 0.112678
v -0.194302 0.194302 -0.120000
v -0.212132 0.212132 -0.095000
v -0.206910 0.206910 -0.112678
v -0.194302 0.194302 0.120000
v -0.212132 0.212132 0.095000
v -0.206910 0.206910 0.112678
v -0.137392 0.237970 -0.120000
v -0.150000 0.259808 -0.095000
v -0.146307 0.253412 -0.112678
v -0.137392 0.237970 0.120000
v -0.150000 0.259808 0.095000
v -0.146307 0.253412 0.112678
v -0.071119 0.265421 -0.120000
v -0.077646 0.289778 -0.095000
v -0.075734 0.282644 -0.112678
v -0.071119 0.265421 0.120000
v -0.077646 0.289778 0.095000
v -0.075734 0.282644 0.112678
v 0.000000 0.186000 -0.125000
v 0.000000 0.186000 0.125000
v 0.071179 0.171842 -0.125000
v 0.071179 0.171842 0.125000
v 0.131522 0.131522 -0.125000
v 0.131522 0.131522 0.125000
v 0.171842 0.071179 -0.125000
v 0.171842 0.071179 0.125000
v 0.186000 0.000000 -0.125000
v 0.186000 -0.000000 0.125000
v 0.171842 -0.071179 -0.125000
v 0.171842 -0.071179 0.125000
v 0.131522 -0.131522 -0.125000
v 0.131522 -0.131522 0.125000
v 0.071179 -0.171842 -0.125000
v 0.071179 -0.171842 0.125000
v 0.000000 -0.186000 -0.125000
v 0.000000 -0.186000 0.125000
v -0.071179 -0.171842 -0.125000
v -0.071179 -0.171842 0.125000
v -0.131522 -0.131522 -0.125000
v -0.131522 -0.131522 0.125000
v -0.171842 -0.071179 -0.125000
v -0.171842 -0.071179 0.125000
v -0.186000 0.000000 -0.125000
v -0.186000 -0.000000 0.125000
v -0.171842 0.071179 -0.125000
v -0.171842 0.071179 0.125000
v -0.131522 0.131522 -0.125000
v -0.131522 0.131522 0.125000
v -0.071179 0.171842 -0.125000
v -0.071179 0.171842 0.125000
v 0.000000 0.060000 -0.130000
v 0.000000 0.060000 0.130000
v 0.035267 0.048541 -0.130000
v 0.035267 0.048541 0.130000
v 0.057063 0.018541 -0.130000
v 0.057063 0.018541 0.130000
v 0.057063 -0.018541 -0.130000
v 0.057063 -0.018541 0.130000
v 0.035267 -0.048541 -0.130000
v 0.035267 -0.048541 0.130000
v 0.000000 -0.060000 -0.130000
v 0.000000 -0.060000 0.130000
v -0.035267 -0.048541 -0.130000
v -0.035267 -0.048541 0.130000
v -0.057063 -0.018541 -0.130000
v -0.057063 -0.018541 0.130000
v -0.057063 0.018541 -0.130000
v -0.057063 0.018541 0.130000
v -0.035267 0.048541 -0.130000
v -0.035267 0.048541 0.130000
vn 0.1206 0.9160 -0.3827
vn 0.0499 0.3794 -0.9239
vn 0.1206 0.9160 0.3827
vn 0.0500 0.3794 0.9239
vn 0.3536 0.8536 -0.3827
vn 0.1464 0.3536 -0.9239
vn 0.3536 0.8536 0.3827
vn 0.1464 0.3536 0.9239
vn 0.5624 0.7330 -0.3827
vn 0.2330 0.3036 -0.9239
vn 0.5624 0.7330 0.3827
vn 0.2330 0.3036 0.9239
vn 0.7330 0.5624 -0.3827
vn 0.3036 0.2330 -0.9239
vn 0.7330 0.5624 0.3827
vn 0.3036 0.2330 0.9239
vn 0.8536 0.3536 -0.3827
vn 0.3536 0.1464 -0.9239
vn 0.8536 0.3536 0.3827
vn 0.3536 0.1464 0.9239
vn 0.9160 0.1206 -0.3827
vn 0.3794 0.0500 -0.9239
vn 0.9160 0.1206 0.3827
vn 0.3794 0.0500 0.9239
vn 0.9160 -0.1206 -0.3827
vn 0.3794 -0.0500 -0.9239
vn 0.9160 -0.1206 0.3827
vn 0.3794 -0.0500 0.9239
vn 0.8536 -0.3536 -0.3827
vn 0.3536 -0.1464 -0.9239
vn 0.8536 -0.3536 0.3827
vn 0.3536 -0.1464 0.9239
vn 0.7330 -0.5624 -0.3827
vn 0.3036 -0.2330 -0.9239
vn 0.7330 -0.5624 0.3827
vn 0.3036 -0.2330 0.9239
vn 0.5624 -0.7330 -0.3827
vn 0.2330 -0.3036 -0.9239
vn 0.5624 -0.7330 0.3827
vn 0.2330 -0.3036 0.9239
vn 0.3536 -0.8536 -0.3827
vn 0.1464 -0.3536 -0.9239
vn 0.3536 -0.8536 0.3827
vn 0.1464 -0.3536 0.9239
vn 0.1206 -0.9160 -0.3827
vn 0.0500 -0.3794 -0.9239
vn 0.1206 -0.9160 0.3827
vn 0.0499 -0.3794 0.9239
vn -0.1206 -0.9160 -0.3827
vn -0.0499 -0.3794 -0.9239
vn -0.1206 -0.9160 0.3827
vn -0.0500 -0.3794 0.9239
vn -0.3536 -0.8536 -0.3827
vn -0.1464 -0.3536 -0.9239
vn -0.3536 -0.8536 0.3827
vn -0.1464 -0.3536 0.9239
vn -0.5624 -0.7330 -0.3827
vn -0.2330 -0.3036 -0.9239
vn -0.5624 -0.7330 0.3827
vn -0.2330 -0.3036 0.9239
vn -0.7330 -0.5624 -0.3827
vn -0.3036 -0.2330 -0.9239
vn -0.7330 -0.5624 0.3827
vn -0.3036 -0.2330 0.9239
vn -0.8536 -0.3536 -0.3827
vn -0.3536 -0.1464 -0.9239
vn -0.8536 -0.3536 0.3827
vn -0.3536 -0.1464 0.9239
vn -0.9160 -0.1206 -0.3827
vn -0.3794 -0.0500 -0.9239
vn -0.9160 -0.1206 0.3827
vn -0.3794 -0.0500 0.9239
vn -0.9160 0.1206 -0.3827
vn -0.3794 0.0500 -0.9239
vn -0.9160 0.1206 0.3827
vn -0.3794 0.0500 0.9239
vn -0.8536 0.3536 -0.3827
vn -0.3536 0.1464 -0.9239
vn -0.8536 0.3536 0.3827
vn -0.3536 0.1464 0.9239
vn -0.7330 0.5624 -0.3827
vn -0.3036 0.2330 -0.9239
vn -0.7330 0.5624 0.3827
vn -0.3036 0.2330 0.9239
vn -0.5624 0.7330 -0.3827
vn -0.2330 0.3036 -0.9239
vn -0.5624 0.7330 0.3827
vn -0.2330 0.3036 0.9239
vn -0.3536 0.8536 -0.3827
vn -0.1464 0.3536 -0.9239
vn -0.3536 0.8536 0.3827
vn -0.1464 0.3536 0.9239
vn -0.1206 0.9160 -0.3827
vn -0.0500 0.3794 -0.9239
vn -0.1206 0.9160 0.3827
vn -0.0499 0.3794 0.9239
vn -0.0000 -0.0000 -1.0000
vn 0.1305 0.9914 -0.0000
vn -0.1305 0.9914 -0.0000
vn -0.0000 -0.0000 1.0000
vn 0.3827 0.9239 -0.0000
vn 0.6088 0.7934 -0.0000
vn 0.7934 0.6088 -0.0000
vn 0.9239 0.3827 -0.0000
vn 0.9914 0.1305 -0.0000
vn 0.9914 -0.1305 -0.0000
vn 0.9239 -0.3827 -0.0000
vn 0.7934 -0.6088 -0.0000
vn 0.6088 -0.7934 -0.0000
vn 0.3827 -0.9239 -0.0000
vn 0.1305 -0.9914 -0.0000
vn -0.1305 -0.9914 -0.0000
vn -0.3827 -0.9239 -0.0000
vn -0.6088 -0.7934 -0.0000
vn -0.7934 -0.6088 -0.0000
vn -0.9239 -0.3827 -0.0000
vn -0.9914 -0.1305 -0.0000
vn -0.9914 0.1305 -0.0000
vn -0.9239 0.3827 -0.0000
vn -0.7934 0.6088 -0.0000
vn -0.6088 0.7934 -0.0000
vn -0.3827 0.9239 -0.0000
vn 0.1951 0.9808 -0.0000
vn 0.5556 0.8315 -0.0000
vn 0.8315 0.5556 -0.0000
vn 0.9808 0.1951 -0.0000
vn 0.9808 -0.1951 -0.0000
vn 0.8315 -0.5556 -0.0000
vn 0.5556 -0.8315 -0.0000
vn 0.1951 -0.9808 -0.0000
vn -0.1951 -0.9808 -0.0000
vn -0.5556 -0.8315 -0.0000
vn -0.8315 -0.5556 -0.0000
vn -0.9808 -0.1951 -0.0000
vn -0.9808 0.1951 -0.0000
vn -0.8315 0.5556 -0.0000
vn -0.5556 0.8315 -0.0000
vn -0.1951 0.9808 -0.0000
vn 0.3090 0.9511 -0.0000
vn 0.8090 0.5878 -0.0000
vn 1.0000 -0.0000 -0.0000
vn 0.8090 -0.5878 -0.0000
vn 0.3090 -0.9511 -0.0000
vn -0.3090 -0.9511 -0.0000
vn -0.8090 -0.5878 -0.0000
vn -1.0000 -0.0000 -0.0000
vn -0.8090 0.5878 -0.0000
vn -0.3090 0.9511 -0.0000
vt 1.000000 0.552083
vt 0.958333 0.552083
vt 0.958333 0.500000
vt 0.999487 0.500000
vt 0.750000 0.489899
vt 0.812091 0.481725
vt 0.806896 0.462337
vt 0.750000 0.469827
vt 0.958333 0.947917
vt 1.000000 0.947917
vt 0.999487 1.000000
vt 0.958333 1.000000
vt 0.312091 0.481725
vt 0.250000 0.489899
vt 0.250000 0.469827
vt 0.306895 0.462337
vt 0.916667 0.552083
vt 0.916667 0.500000
vt 0.869950 0.457759
vt 0.859914 0.440376
vt 0.916667 0.947917
vt 0.916667 1.000000
vt 0.369950 0.457759
vt 0.359914 0.440376
vt 0.875000 0.552083
vt 0.875000 0.500000
vt 0.919634 0.419634
vt 0.905441 0.405441
vt 0.875000 0.947917
vt 0.875000 1.000000
vt 0.419634 0.419634
vt 0.405442 0.405441
vt 0.833333 0.552083
vt 0.833333 0.500000
vt 0.957759 0.369950
vt 0.940376 0.359914
vt 0.833333 0.947917
vt 0.833333 1.000000
vt 0.457759 0.369950
vt 0.440376 0.359914
vt 0.791667 0.552083
vt 0.791667 0.500000
vt 0.981725 0.312091
vt 0.962337 0.306895
vt 0.791667 0.947917
vt 0.791667 1.000000
vt 0.481725 0.312091
vt 0.462337 0.306896
vt 0.750000 0.552083
vt 0.750000 0.500000
vt 0.989899 0.250000
vt 0.969828 0.250000
vt 0.750000 0.947917
vt 0.750000 1.000000
vt 0.489899 0.250000
vt 0.469828 0.250000
vt 0.708333 0.552083
vt 0.708333 0.500000
vt 0.981725 0.187909
vt 0.962337 0.193104
vt 0.708333 0.947917
vt 0.708333 1.000000
vt 0.481725 0.187909
vt 0.462337 0.193104
vt 0.666667 0.552083
vt 0.666667 0.500000
vt 0.957759 0.130050
vt 0.940376 0.140086
vt 0.666667 0.947917
vt 0.666667 1.000000
vt 0.457759 0.130050
vt 0.440376 0.140086
vt 0.625000 0.552083
vt 0.625000 0.500000
vt 0.919634 0.080366
vt 0.905441 0.094559
vt 0.625000 0.947917
vt 0.625000 1.000000
vt 0.419634 0.080366
vt 0.405441 0.094559
vt 0.583333 0.552083
vt 0.583333 0.500000
vt 0.869950 0.042241
vt 0.859914 0.059624
vt 0.583333 0.947917
vt 0.583333 1.000000
vt 0.369950 0.042241
vt 0.359914 0.059624
vt 0.541666 0.552083
vt 0.541666 0.500000
vt 0.812091 0.018275
vt 0.806896 0.037663
vt 0.541666 0.947917
vt 0.541666 1.000000
vt 0.312091 0.018275
vt 0.306896 0.037663
vt 0.500000 0.552083
vt 0.500000 0.500000
vt 0.750000 0.010101
vt 0.750000 0.030173
vt 0.500000 0.947917
vt 0.500000 1.000000
vt 0.250000 0.010101
vt 0.250000 0.030173
vt 0.458333 0.552083
vt 0.458333 0.500000
vt 0.687909 0.018275
vt 0.693105 0.037663
vt 0.458333 0.947917
vt 0.458333 1.000000
vt 0.187909 0.018275
vt 0.193105 0.037663
vt 0.416666 0.552083
vt 0.416667 0.500000
vt 0.630050 0.042241
vt 0.640086 0.059624
vt 0.416667 0.947917
vt 0.416667 1.000000
vt 0.130050 0.042241
vt 0.140086 0.059624
vt 0.375000 0.552083
vt 0.375000 0.500000
vt 0.580366 0.080366
vt 0.594559 0.094559
vt 0.375000 0.947917
vt 0.375000 1.000000
vt 0.080366 0.080366
vt 0.094559 0.094559
vt 0.333333 0.552083
vt 0.333333 0.500000
vt 0.542241 0.130050
vt 0.559624 0.140086
vt 0.333333 0.947917
vt 0.333333 1.000000
vt 0.042241 0.130050
vt 0.059624 0.140086
vt 0.291667 0.552083
vt 0.291667 0.500000
vt 0.518275 0.187909
vt 0.537663 0.193104
vt 0.291667 0.947917
vt 0.291667 1.000000
vt 0.018275 0.187909
vt 0.037663 0.193104
vt 0.250000 0.552083
vt 0.250000 0.500000
vt 0.510101 0.250000
vt 0.530173 0.250000
vt 0.250000 0.947917
vt 0.250000 1.000000
vt 0.010101 0.250000
vt 0.030173 0.250000
vt 0.208333 0.552083
vt 0.208333 0.500000
vt 0.518275 0.312091
vt 0.537663 0.306896
vt 0.208333 0.947917
vt 0.208333 1.000000
vt 0.018275 0.312091
vt 0.037663 0.306895
vt 0.166666 0.552083
vt 0.166667 0.500000
vt 0.542241 0.369950
vt 0.559624 0.359914
vt 0.166667 0.947917
vt 0.166667 1.000000
vt 0.042241 0.369950
vt 0.059624 0.359914
vt 0.125000 0.552083
vt 0.125000 0.500000
vt 0.580366 0.419634
vt 0.594559 0.405441
vt 0.125000 0.947917
vt 0.125000 1.000000
vt 0.080366 0.419634
vt 0.094559 0.405441
vt 0.083333 0.552083
vt 0.083333 0.500000
vt 0.630050 0.457759
vt 0.640086 0.440376
vt 0.083333 0.947917
vt 0.083333 1.000000
vt 0.130050 0.457759
vt 0.140086 0.440376
vt 0.041666 0.552083
vt 0.041666 0.500000
vt 0.687909 0.481725
vt 0.693104 0.462337
vt 0.041666 0.947917
vt 0.041666 1.000000
vt 0.187909 0.481725
vt 0.193104 0.462337
vt -0.000000 0.552083
vt 0.000513 0.500000
vt -0.000000 0.947917
vt 0.000513 1.000000
vt 1.000000 0.500000
vt 1.000000 1.000000
vt 0.937500 1.000000
vt 0.937500 0.500000
vt 0.875000 1.000000
vt 0.875000 0.500000
vt 0.812500 1.000000
vt 0.812500 0.500000
vt 0.750000 1.000000
vt 0.750000 0.500000
vt 0.687500 1.000000
vt 0.687500 0.500000
vt 0.625000 1.000000
vt 0.625000 0.500000
vt 0.562500 1.000000
vt 0.562500 0.500000
vt 0.500000 1.000000
vt 0.500000 0.500000
vt 0.437500 1.000000
vt 0.437500 0.500000
vt 0.375000 1.000000
vt 0.375000 0.500000
vt 0.312500 1.000000
vt 0.312500 0.500000
vt 0.250000 1.000000
vt 0.250000 0.500000
vt 0.187500 1.000000
vt 0.187500 0.500000
vt 0.125000 1.000000
vt 0.125000 0.500000
vt 0.341844 0.471731
vt 0.250000 0.490000
vt 0.158156 0.471731
vt 0.080294 0.419706
vt 0.028269 0.341844
vt 0.010000 0.250000
vt 0.028269 0.158156
vt 0.080294 0.080294
vt 0.158156 0.028269
vt 0.250000 0.010000
vt 0.341844 0.028269
vt 0.419706 0.080294
vt 0.471731 0.158156
vt 0.490000 0.250000
vt 0.471731 0.341844
vt 0.419706 0.419706
vt 0.062500 1.000000
vt 0.062500 0.500000
vt 0.000000 1.000000
vt 0.000000 0.500000
vt 0.750000 0.490000
vt 0.841844 0.471731
vt 0.919706 0.419706
vt 0.971731 0.341844
vt 0.990000 0.250000
vt 0.971731 0.158156
vt 0.919706 0.080294
vt 0.841844 0.028269
vt 0.750000 0.010000
vt 0.658156 0.028269
vt 0.580294 0.080294
vt 0.528269 0.158156
vt 0.510000 0.250000
vt 0.528269 0.341844
vt 0.580294 0.419706
vt 0.658156 0.471731
vt 0.900000 1.000000
vt 0.900000 0.500000
vt 0.800000 1.000000
vt 0.800000 0.500000
vt 0.700000 1.000000
vt 0.700000 0.500000
vt 0.600000 1.000000
vt 0.600000 0.500000
vt 0.500000 1.000000
vt 0.500000 0.500000
vt 0.400000 1.000000
vt 0.400000 0.500000
vt 0.300000 1.000000
vt 0.300000 0.500000
vt 0.200000 1.000000
vt 0.200000 0.500000
vt 0.391068 0.444164
vt 0.108932 0.444164
vt 0.021746 0.324164
vt 0.021746 0.175836
vt 0.108932 0.055836
vt 0.391068 0.055836
vt 0.478254 0.175836
vt 0.478254 0.324164
vt 0.100000 1.000000
vt 0.100000 0.500000
vt -0.000000 1.000000
vt -0.000000 0.500000
vt 0.891068 0.444164
vt 0.978254 0.324164
vt 0.978254 0.175836
vt 0.891068 0.055836
vt 0.608932 0.055836
vt 0.521746 0.175836
vt 0.521746 0.324164
vt 0.608932 0.444164
s 0
usemtl tire
f 2/1/1 8/2/1 9/3/1 3/4/1
f 3/5/2 9/6/2 7/7/2 1/8/2
f 11/9/3 5/10/3 6/11/3 12/12/3
f 12/13/4 6/14/4 4/15/4 10/16/4
f 8/2/5 14/17/5 15/18/5 9/3/5
f 9/6/6 15/19/6 13/20/6 7/7/6
f 17/21/7 11/9/7 12/12/7 18/22/7
f 18/23/8 12/13/8 10/16/8 16/24/8
f 14/17/9 20/25/9 21/26/9 15/18/9
f 15/19/10 21/27/10 19/28/10 13/20/10
f 23/29/11 17/21/11 18/22/11 24/30/11
f 24/31/12 18/23/12 16/24/12 22/32/12
f 20/25/13 26/33/13 27/34/13 21/26/13
f 21/27/14 27/35/14 25/36/14 19/28/14
f 29/37/15 23/29/15 24/30/15 30/38/15
f 30/39/16 24/31/16 22/32/16 28/40/16
f 26/33/17 32/41/17 33/42/17 27/34/17
f 27/35/18 33/43/18 31/44/18 25/36/18
f 35/45/19 29/37/19 30/38/19 36/46/19
f 36/47/20 30/39/20 28/40/20 34/48/20
f 32/41/21 38/49/21 39/50/21 33/42/21
f 33/43/22 39/51/22 37/52/22 31/44/22
f 41/53/23 35/45/23 36/46/23 42/54/23
f 42/55/24 36/47/24 34/48/24 40/56/24
f 38/49/25 44/57/25 45/58/25 39/50/25
f 39/51/26 45/59/26 43/60/26 37/52/26
f 47/61/27 41/53/27 42/54/27 48/62/27
f 48/63/28 42/55/28 40/56/28 46/64/28
f 44/57/29 50/65/29 51/66/29 45/58/29
f 45/59/30 51/67/30 49/68/30 43/60/30
f 53/69/31 47/61/31 48/62/31 54/70/31
f 54/71/32 48/63/32 46/64/32 52/72/32
f 50/65/33 56/73/33 57/74/33 51/66/33
f 51/67/34 57/75/34 55/76/34 49/68/34
f 59/77/35 53/69/35 54/70/35 60/78/35
f 60/79/36 54/71/36 52/72/36 58/80/36
f 56/73/37 62/81/37 63/82/37 57/74/37
f 57/75/38 63/83/38 61/84/38 55/76/38
f 65/85/39 59/77/39 60/78/39 66/86/39
f 66/87/40 60/79/40 58/80/40 64/88/40
f 62/81/41 68/89/41 69/90/41 63/82/41
f 63/83/42 69/91/42 67/92/42 61/84/42
f 71/93/43 65/85/43 66/86/43 72/94/43
f 72/95/44 66/87/44 64/88/44 70/96/44
f 68/89/45 74/97/45 75/98/45 69/90/45
f 69/91/46 75/99/46 73/100/46 67/92/46
f 77/101/47 71/93/47 72/94/47 78/102/47
f 78/103/48 72/95/48 70/96/48 76/104/48
f 74/97/49 80/105/49 81/106/49 75/98/49
f 75/99/50 81/107/50 79/108/50 73/100/50
f 83/109/51 77/101/51 78/102/51 84/110/51
f 84/111/52 78/103/52 76/104/52 82/112/52
f 80/105/53 86/113/53 87/114/53 81/106/53
f 81/107/54 87/115/54 85/116/54 79/108/54
f 89/117/55 83/109/55 84/110/55 90/118/55
f 90/119/56 84/111/56 82/112/56 88/120/56
f 86/113/57 92/121/57 93/122/57 87/114/57
f 87/115/58 93/123/58 91/124/58 85/116/58
f 95/125/59 89/117/59 90/118/59 96/126/59
f 96/127/60 90/119/60 88/120/60 94/128/60
f 92/121/61 98/129/61 99/130/61 93/122/61
f 93/123/62 99/131/62 97/132/62 91/124/62
f 101/133/63 95/125/63 96/126/63 102/134/63
f 102/135/64 96/127/64 94/128/64 100/136/64
f 98/129/65 104/137/65 105/138/65 99/130/65
f 99/131/66 105/139/66 103/140/66 97/132/66
f 107/141/67 101/133/67 102/134/67 108/142/67
f 108/143/68 102/135/68 100/136/68 106/144/68
f 104/137/69 110/145/69 111/146/69 105/138/69
f 105/139/70 111/147/70 109/148/70 103/140/70
f 113/149/71 107/141/71 108/142/71 114/150/71
f 114/151/72 108/143/72 106/144/72 112/152/72
f 110/145/73 116/153/73 117/154/73 111/146/73
f 111/147/74 117/155/74 115/156/74 109/148/74
f 119/157/75 113/149/75 114/150/75 120/158/75
f 120/159/76 114/151/76 112/152/76 118/160/76
f 116/153/77 122/161/77 123/162/77 117/154/77
f 117/155/78 123/163/78 121/164/78 115/156/78
f 125/165/79 119/157/79 120/158/79 126/166/79
f 126/167/80 120/159/80 118/160/80 124/168/80
f 122/161/81 128/169/81 129/170/81 123/162/81
f 123/163/82 129/171/82 127/172/82 121/164/82
f 131/173/83 125/165/83 126/166/83 132/174/83
f 132/175/84 126/167/84 124/168/84 130/176/84
f 128/169/85 134/177/85 135/178/85 129/170/85
f 129/171/86 135/179/86 133/180/86 127/172/86
f 137/181/87 131/173/87 132/174/87 138/182/87
f 138/183/88 132/175/88 130/176/88 136/184/88
f 134/177/89 140/185/89 141/186/89 135/178/89
f 135/179/90 141/187/90 139/188/90 133/180/90
f 143/189/91 137/181/91 138/182/91 144/190/91
f 144/191/92 138/183/92 136/184/92 142/192/92
f 140/185/93 2/193/93 3/194/93 141/186/93
f 141/187/94 3/5/94 1/8/94 139/188/94
f 5/195/95 143/189/95 144/190/95 6/196/95
f 6/14/96 144/191/96 142/192/96 4/15/96
f 1/8/97 7/7/97 13/20/97 19/28/97 25/36/97 31/44/97 37/52/97 43/60/97 49/68/97 55/76/97 61/84/97 67/92/97 73/100/97 79/108/97 85/116/97 91/124/97 97/132/97 103/140/97 109/148/97 115/156/97 121/164/97 127/172/97 133/180/97 139/188/97
f 2/1/98 5/10/98 11/9/98 8/2/98
f 140/185/99 143/189/99 5/195/99 2/193/99
f 10/16/100 4/15/100 142/192/100 136/184/100 130/176/100 124/168/100 118/160/100 112/152/100 106/144/100 100/136/100 94/128/100 88/120/100 82/112/100 76/104/100 70/96/100 64/88/100 58/80/100 52/72/100 46/64/100 40/56/100 34/48/100 28/40/100 22/32/100 16/24/100
f 8/2/101 11/9/101 17/21/101 14/17/101
f 14/17/102 17/21/102 23/29/102 20/25/102
f 20/25/103 23/29/103 29/37/103 26/33/103
f 26/33/104 29/37/104 35/45/104 32/41/104
f 32/41/105 35/45/105 41/53/105 38/49/105
f 38/49/106 41/53/106 47/61/106 44/57/106
f 44/57/107 47/61/107 53/69/107 50/65/107
f 50/65/108 53/69/108 59/77/108 56/73/108
f 56/73/109 59/77/109 65/85/109 62/81/109
f 62/81/110 65/85/110 71/93/110 68/89/110
f 68/89/111 71/93/111 77/101/111 74/97/111
f 74/97/112 77/101/112 83/109/112 80/105/112
f 80/105/113 83/109/113 89/117/113 86/113/113
f 86/113/114 89/117/114 95/125/114 92/121/114
f 92/121/115 95/125/115 101/133/115 98/129/115
f 98/129/116 101/133/116 107/141/116 104/137/116
f 104/137/117 107/141/117 113/149/117 110/145/117
f 110/145/118 113/149/118 119/157/118 116/153/118
f 116/153/119 119/157/119 125/165/119 122/161/119
f 122/161/120 125/165/120 131/173/120 128/169/120
f 128/169/121 131/173/121 137/181/121 134/177/121
f 134/177/122 137/181/122 143/189/122 140/185/122
usemtl rim_dark
f 145/197/123 146/198/123 148/199/123 147/200/123
f 147/200/124 148/199/124 150/201/124 149/202/124
f 149/202/125 150/201/125 152/203/125 151/204/125
f 151/204/126 152/203/126 154/205/126 153/206/126
f 153/206/127 154/205/127 156/207/127 155/208/127
f 155/208/128 156/207/128 158/209/128 157/210/128
f 157/210/129 158/209/129 160/211/129 159/212/129
f 159/212/130 160/211/130 162/213/130 161/214/130
f 161/214/131 162/213/131 164/215/131 163/216/131
f 163/216/132 164/215/132 166/217/132 165/218/132
f 165/218/133 166/217/133 168/219/133 167/220/133
f 167/220/134 168/219/134 170/221/134 169/222/134
f 169/222/135 170/221/135 172/223/135 171/224/135
f 171/224/136 172/223/136 174/225/136 173/226/136
f 148/227/100 146/228/100 176/229/100 174/230/100 172/231/100 170/232/100 168/233/100 166/234/100 164/235/100 162/236/100 160/237/100 158/238/100 156/239/100 154/240/100 152/241/100 150/242/100
f 173/226/137 174/225/137 176/243/137 175/244/137
f 175/244/138 176/243/138 146/245/138 145/246/138
f 145/247/97 147/248/97 149/249/97 151/250/97 153/251/97 155/252/97 157/253/97 159/254/97 161/255/97 163/256/97 165/257/97 167/258/97 169/259/97 171/260/97 173/261/97 175/262/97
usemtl trim
f 177/197/139 178/198/139 180/263/139 179/264/139
f 179/264/140 180/263/140 182/265/140 181/266/140
f 181/266/141 182/265/141 184/267/141 183/268/141
f 183/268/142 184/267/142 186/269/142 185/270/142
f 185/270/143 186/269/143 188/271/143 187/272/143
f 187/272/144 188/271/144 190/273/144 189/274/144
f 189/274/145 190/273/145 192/275/145 191/276/145
f 191/276/146 192/275/146 194/277/146 193/278/146
f 180/279/100 178/228/100 196/280/100 194/281/100 192/282/100 190/283/100 188/236/100 186/284/100 184/285/100 182/286/100
f 193/278/147 194/277/147 196/287/147 195/288/147
f 195/288/148 196/287/148 178/289/148 177/290/148
f 177/247/97 179/291/97 181/292/97 183/293/97 185/294/97 187/255/97 189/295/97 191/296/97 193/297/97 195/298/97
